<svg width="1625" height="375" viewBox="0 0 1625 375" fill="none" xmlns="http://www.w3.org/2000/svg">
<path d="M1589.03 332.539C1590.3 332.539 1591.23 332.225 1591.77 331.596C1592.35 330.968 1592.62 329.576 1592.62 327.394C1592.62 325.643 1592.3 324.431 1591.68 323.758C1591.05 323.111 1590.15 322.77 1589.03 322.77H1580.53V332.539H1589.03ZM1569.79 312.983H1589.36C1598.69 312.983 1603.36 317.742 1603.36 327.286C1603.36 331.345 1602.73 334.425 1601.52 336.49C1600.28 338.555 1598.43 340.01 1595.99 340.863L1605.16 357.878H1594.42L1585.88 340.441H1580.53V357.878H1569.79V312.983ZM1597.56 364.209C1602.82 364.209 1606.91 361.964 1609.79 357.474C1612.66 352.985 1614.1 345.577 1614.1 335.278C1614.1 326.658 1613.07 319.744 1611 314.554C1608.93 309.373 1604.75 306.787 1598.51 306.787H1576.71C1571.19 306.787 1566.78 308.852 1563.56 312.983C1560.36 317.113 1558.74 324.548 1558.74 335.278C1558.74 344.051 1560.22 351.054 1563.19 356.307C1566.2 361.56 1570.69 364.209 1576.71 364.209H1597.56ZM1555.1 363.4C1550.35 356.379 1548 346.996 1548 335.278C1548 323.65 1550.07 314.357 1554.24 307.416C1558.42 300.484 1565.93 297 1576.71 297H1598.51C1608.39 297 1615.27 300.367 1619.09 307.102C1622.91 313.836 1624.84 323.219 1624.84 335.278C1624.84 348.118 1622.5 357.771 1617.83 364.253C1613.16 370.745 1606.73 373.978 1598.51 373.978H1576.71C1567.05 373.978 1559.82 370.449 1555.1 363.4Z" fill="#303AB2"/>
<path d="M1483.61 355.824L1471.76 288.745C1471.42 287.002 1470.35 285.774 1468.68 284.884C1467.04 284.066 1465.17 284.048 1463.36 284.635C1456.24 286.646 1448.93 288.194 1441.49 289.226C1433.95 290.293 1425.69 290.756 1416.81 290.756C1408.54 290.756 1400.62 289.742 1393.13 287.642C1385.73 285.632 1378.95 282.571 1372.94 278.603C1367.03 274.511 1362.15 269.28 1358.63 262.715C1355.09 256.38 1353.22 248.765 1353.22 239.922C1353.22 224.692 1358.77 212.504 1369.82 203.323C1380.87 194.195 1395.18 189.622 1412.79 189.622C1423.7 189.622 1432.63 190.369 1439.78 191.651C1446.99 192.967 1452.93 194.604 1457.79 196.241C1462.2 197.949 1465.19 196.383 1466.81 191.651L1482.54 124.11C1482.54 121.014 1480.99 119.021 1477.93 118.06C1465.65 114.288 1453.18 111.761 1440.69 110.64C1428.06 109.413 1416.81 108.79 1406.67 108.79C1377.06 108.79 1351.44 112.633 1330.02 120.071C1308.4 127.508 1290.72 137.472 1276.61 150.016C1262.55 162.506 1252.11 176.794 1245.13 192.932C1238.21 208.981 1234.74 225.724 1234.74 242.929C1234.74 263.035 1238.5 281.059 1245.99 297.09C1253.46 313.157 1264.13 326.999 1278.05 338.529C1291.82 350.023 1308.67 358.866 1328.24 364.845C1347.99 371.019 1370.09 374.043 1394.79 374.043C1411.64 374.043 1427.58 373.083 1442.51 371.268C1457.61 369.399 1470.07 366.304 1480.23 361.784C1483.23 360.539 1484.28 358.51 1483.61 355.824Z" fill="#303AB2"/>
<path d="M1119.2 85.526C1131.69 90.2055 1144.71 90.7926 1157.93 88.2661C1172.18 85.526 1184.71 79.601 1194.76 69.8328C1204.33 60.4205 1209.78 49.5136 1208.83 36.3826C1208.83 35.9378 1209.1 35.404 1209.42 34.977C1212.96 30.0484 1211.2 24.9597 1205.2 22.8246C1204.71 22.7 1204.1 22.3264 1203.91 21.9349C1198.34 13.2165 1190.12 7.43391 1179.87 3.76862C1165.3 -1.19554 1150.62 -0.928651 1137.2 2.66547C1123.48 6.54427 1112.63 12.3803 1104.07 21.3656C1095.37 30.6712 1090.51 41.0799 1091.42 53.3924C1091.42 53.8728 1091.15 54.4778 1090.94 54.8514C1087.29 59.6554 1089.04 64.7797 1095.1 66.986C1095.55 67.1639 1096.17 67.591 1096.49 68.0002C1101.81 76.2204 1109.48 81.8607 1119.2 85.526Z" fill="#303AB2"/>
<path d="M1204.89 108.824H1103.77C1099.27 108.824 1095.69 112.205 1095.69 116.226V119.269V121.066V124.126V358.883V361.854V363.758V366.694C1095.69 370.75 1099.27 374.06 1103.77 374.06H1204.89C1209.33 374.06 1212.96 370.733 1212.96 366.694V363.758V361.854V358.883V124.126V121.066V119.269V116.226C1212.96 112.205 1209.33 108.824 1204.89 108.824Z" fill="#303AB2"/>
<path d="M1023.68 288.426C1015.41 288.426 1008.7 281.718 1008.7 273.462V248.695V221.988V201.206L1008.74 201.135V193.982V191.83H1062.08C1064.45 191.83 1066.35 190.175 1066.35 188.04V114.325C1066.35 112.189 1064.45 110.517 1062.08 110.517H1008.74V54.7013C1008.74 52.584 1006.89 50.8403 1004.47 50.8403L899.882 89.4149C897.391 90.1622 895.541 91.2297 895.541 93.3115V110.499H865.863C863.532 110.499 861.664 112.172 861.664 114.307V188.022C861.664 190.157 863.532 191.812 865.863 191.812H895.541V193.965V201.064V267.128C895.541 303.923 904.437 330.755 922.123 347.409C929.667 354.597 940.023 360.824 953.331 366.144C966.409 371.393 981.373 374.027 998.062 374.027C1011.53 374.027 1023.99 373.226 1035.3 371.696C1046.6 370.237 1055.44 368.262 1061.81 365.895C1064.89 364.454 1066.35 362.621 1066.35 360.255V290.205C1066.35 289.476 1066.12 288.906 1065.94 288.319C1065.57 288.355 1065.19 288.444 1064.84 288.444H1023.68V288.426Z" fill="#303AB2"/>
<path d="M839.529 115.031C838.319 111.365 833.675 110.031 829.725 110.031C809.886 110.031 794.638 118.394 794.638 118.394C787.219 121.329 780.475 125.511 774.283 130.937V120.03V116.419C774.283 112.308 770.6 108.981 766.028 108.981H686.441H671.958H665.321C660.73 108.981 657.065 112.326 657.065 116.419V120.013V363.078V366.69C657.065 370.747 660.73 374.181 665.321 374.181H671.958H686.441H766.028C767.896 374.181 769.55 373.576 770.92 372.74C772.824 371.939 773.838 370.516 774.141 368.256C774.141 368.185 774.141 368.06 774.177 367.936C774.177 367.687 774.265 367.491 774.265 367.189V206.734C774.265 198.496 780.973 191.824 789.229 191.824H822.163L822.199 191.788H835.579C837.946 191.788 839.796 190.116 839.796 187.998V180.188V145.937C839.796 139.496 839.796 133.037 839.796 126.596V117.148C839.796 117.077 839.796 116.988 839.796 116.988V114.319L839.529 115.031Z" fill="#303AB2"/>
<path d="M597.14 145.245C583.529 133.84 566.946 125.033 547.73 118.485C528.443 112.151 507.323 108.842 484.441 108.842C457.503 108.842 433.732 112.276 413.182 119.037C392.56 125.851 375.212 135.193 361.227 147.256C347.135 159.266 336.442 173.465 329.2 189.638C321.781 205.918 318.222 223.729 318.222 243.034C318.222 264.065 322.404 282.658 330.837 299.01C339.342 315.254 350.783 328.973 365.319 340.146C379.981 351.32 396.99 359.825 416.242 365.537C435.405 371.301 456.204 374.184 478.356 374.184C500.793 374.184 521.895 371.088 541.52 365.003C561.217 358.882 578.476 350.164 593.279 338.634C608.065 327.051 619.595 312.888 628.046 296.198C636.498 279.349 640.715 260.097 640.715 238.408C640.715 219.512 636.8 202.04 629.185 186.133C621.516 170.173 610.841 156.597 597.14 145.245ZM511.629 286.822C503.764 297.106 492.929 302.266 479.335 302.266C464.104 302.266 452.753 296.287 445.618 284.277C438.358 272.303 434.675 258.158 434.675 241.717C434.675 234.173 435.547 226.594 437.184 219.103C438.696 211.683 441.276 205.118 444.977 199.513C448.571 193.837 453.109 189.318 458.802 185.848C464.496 182.361 471.471 180.706 479.94 180.706C494.779 180.706 505.704 186.756 512.767 198.979C519.813 211.114 523.283 225.401 523.283 241.699C523.301 261.36 519.368 276.342 511.629 286.822Z" fill="#303AB2"/>
<path d="M185.471 108.824C174.617 108.824 164.725 109.91 156.024 111.938C147.341 114.02 139.655 116.618 132.911 119.696C126.969 122.347 121.826 125.354 117.325 128.628V121.368C117.325 117.311 113.713 114.02 109.194 114.02H8.16684C3.62971 114.02 0 117.311 0 121.368V180.974C7.68644 181.614 13.7182 187.984 13.7182 195.795V287.392C13.7182 295.203 7.68644 301.572 0 302.195V364.025V366.818C0 370.928 3.62971 374.184 8.16684 374.184H109.194C113.713 374.184 117.325 370.928 117.325 366.818V364.025V216.648C117.325 216.595 117.325 216.541 117.361 216.452H117.325V213.801C117.325 213.801 117.325 213.712 117.361 213.677C117.734 198.286 131.523 185.884 148.551 185.884C165.063 185.884 178.461 197.574 179.546 212.253C179.635 212.485 179.688 212.627 179.742 212.84V215.1H179.546C179.635 215.225 179.688 215.438 179.742 215.669V282.872V285.63V351.961V354.808V364.025V366.818C179.742 370.928 183.371 374.184 187.873 374.184H288.259C292.743 374.184 296.426 370.928 296.426 366.818V364.025V317.906V315.095V285.648V282.89V226.452V226.345V223.605V223.534C296.426 185.635 286.516 157.096 266.694 137.809C246.873 118.486 219.793 108.824 185.471 108.824Z" fill="#303AB2"/>
</svg>
