<svg width="3869" height="375" viewBox="0 0 3869 375" fill="none" xmlns="http://www.w3.org/2000/svg">
<path d="M1759.52 195.001H1719V173.774H1823.56V195.001H1783.24V314.858H1759.52V195.001Z" fill="#303AB2"/>
<path d="M1841.05 195.177C1840.34 194.533 1839.99 193.715 1839.99 192.689V175.29C1839.99 174.142 1840.3 173.22 1840.95 172.524C1841.57 171.811 1842.48 171.463 1843.62 171.463H1861.6C1862.75 171.463 1863.6 171.811 1864.17 172.524C1864.75 173.22 1865.02 174.142 1865.02 175.29V192.689C1865.02 194.985 1863.88 196.134 1861.58 196.134H1843.61C1842.6 196.134 1841.75 195.821 1841.05 195.177ZM1840.56 212.384H1864.26V314.861H1840.56V212.384Z" fill="#303AB2"/>
<path d="M1898.38 304.43C1891.05 296.723 1887.4 283.256 1887.4 264.013C1887.4 250.373 1889.05 239.708 1892.37 231.983C1895.68 224.275 1900.43 218.865 1906.61 215.733C1912.78 212.601 1920.66 211.035 1930.22 211.035C1942.45 211.035 1954.12 212.375 1965.2 215.037V228.625H1937.3C1930.93 228.625 1925.87 229.617 1922.11 231.583C1918.35 233.549 1915.55 237.081 1913.71 242.178C1911.86 247.276 1910.92 254.549 1910.92 263.979C1910.92 273.269 1911.84 280.368 1913.71 285.309C1915.55 290.198 1918.35 293.556 1922.11 295.331C1925.87 297.123 1931 298.01 1937.49 298.01H1966.74V311.389C1961.76 312.659 1955.93 313.756 1949.25 314.643C1942.55 315.53 1936.03 315.983 1929.66 315.983C1916.12 316 1905.72 312.138 1898.38 304.43Z" fill="#303AB2"/>
<path d="M1986.03 169H2009.73V249.851H2022.74L2048.35 212.392H2072.64L2040.14 260.568L2075.32 314.869H2051.03L2022.38 271.077H2009.76V314.869H1986.07V169H1986.03Z" fill="#303AB2"/>
<path d="M2105.78 311.128C2099.35 307.996 2094.68 302.724 2091.81 295.261C2088.96 287.814 2087.53 277.271 2087.53 263.63C2087.53 249.746 2088.89 239.046 2091.62 231.513C2094.35 223.997 2098.88 218.707 2105.19 215.645C2111.49 212.583 2120.38 211.052 2131.87 211.052C2141.92 211.052 2149.87 212.079 2155.75 214.114C2161.6 216.15 2165.88 219.682 2168.56 224.727C2171.22 229.755 2172.56 236.802 2172.56 245.849C2172.56 255.279 2169.85 262.029 2164.44 266.101C2159.01 270.172 2151.14 272.225 2140.83 272.225H2110.81C2111.07 278.854 2111.96 283.986 2113.49 287.623C2115.02 291.259 2117.7 293.903 2121.62 295.556C2125.5 297.209 2131.13 298.062 2138.53 298.062H2169.5V311.998C2162.61 313.285 2156.47 314.242 2151.04 314.886C2145.63 315.512 2139.42 315.843 2132.4 315.843C2121.11 315.808 2112.22 314.242 2105.78 311.128ZM2138.56 257.889C2143.16 257.889 2146.46 256.984 2148.5 255.227C2150.53 253.417 2151.56 250.303 2151.56 245.849C2151.56 239.22 2150.1 234.627 2147.18 232.087C2144.24 229.547 2139.14 228.259 2131.88 228.259C2126.4 228.259 2122.16 229.129 2119.18 230.834C2116.17 232.557 2114.01 235.514 2112.67 239.725C2111.33 243.935 2110.66 249.99 2110.66 257.889H2138.56Z" fill="#303AB2"/>
<path d="M2208.43 306.807C2203.53 301.448 2201.21 292.419 2201.46 279.666L2202.24 231.472H2186.16V216.179L2202.99 212.351L2206.43 183.678H2224.96V212.351H2250.96V231.472H2224.96V279.457C2224.96 285.459 2226.08 289.618 2228.32 291.984C2230.53 294.35 2233.44 295.707 2237 296.09L2249.81 297.429V314.828H2232.79C2221.47 314.845 2213.34 312.166 2208.43 306.807Z" fill="#303AB2"/>
<path d="M2284.8 314.946C2276.78 314.25 2270.97 313.259 2267.4 311.971V298.035H2311.56C2316.78 298.035 2320.59 297.322 2322.92 295.93C2325.28 294.52 2326.45 291.65 2326.45 287.335V283.699C2326.45 280.254 2325.35 277.661 2323.13 275.956C2320.88 274.216 2317.28 273.381 2312.32 273.381H2296.82C2276.19 273.381 2265.87 264.404 2265.87 246.431V240.69C2265.87 230.755 2268.86 223.396 2274.86 218.611C2280.87 213.826 2290.99 211.443 2305.26 211.443C2310.98 211.443 2317.59 211.86 2325.04 212.678C2332.5 213.513 2338.26 214.435 2342.33 215.445V229.398H2300.67C2295.69 229.398 2292.04 230.268 2289.65 231.973C2287.3 233.713 2286.12 236.601 2286.12 240.672V244.309C2286.12 248.258 2287.34 250.903 2289.76 252.242C2292.19 253.582 2296 254.243 2301.24 254.243H2317.09C2326.88 254.243 2334.3 256.54 2339.25 261.133C2344.23 265.726 2346.72 272.216 2346.72 280.636V289.023C2346.72 298.974 2343.41 305.951 2336.78 309.953C2330.16 313.972 2320.22 315.99 2306.96 315.99C2300.23 316.007 2292.82 315.642 2284.8 314.946Z" fill="#303AB2"/>
<path d="M2451.88 195.001H2411.35V173.774H2515.92V195.001H2475.59V314.858H2451.89V195.001H2451.88Z" fill="#303AB2"/>
<path d="M2539.62 311.023C2532.99 307.839 2528.12 302.498 2524.98 294.981C2521.85 287.448 2520.3 276.939 2520.3 263.438C2520.3 249.415 2521.85 238.645 2524.98 231.147C2528.12 223.613 2532.95 218.411 2539.53 215.471C2546.09 212.53 2554.98 211.069 2566.18 211.069C2577.51 211.069 2586.49 212.565 2593.05 215.575C2599.61 218.567 2604.48 223.857 2607.66 231.425C2610.86 239.028 2612.45 249.693 2612.45 263.455C2612.45 277.218 2610.91 287.865 2607.85 295.382C2604.79 302.898 2599.94 308.187 2593.31 311.249C2586.68 314.311 2577.65 315.842 2566.17 315.842C2555.1 315.807 2546.24 314.207 2539.62 311.023ZM2579.48 294.581C2582.59 293.05 2584.92 289.901 2586.45 285.116C2587.98 280.332 2588.73 273.059 2588.73 263.229C2588.73 253.538 2587.98 246.301 2586.45 241.533C2584.92 236.766 2582.57 233.634 2579.48 232.173C2576.34 230.712 2571.91 229.963 2566.18 229.963C2560.58 229.963 2556.21 230.712 2553.08 232.173C2549.95 233.634 2547.65 236.766 2546.12 241.533C2544.59 246.301 2543.81 253.538 2543.81 263.229C2543.81 273.042 2544.59 280.315 2546.12 285.116C2547.65 289.918 2549.97 293.05 2553.08 294.581C2556.2 296.112 2560.58 296.878 2566.18 296.878C2571.91 296.878 2576.34 296.112 2579.48 294.581Z" fill="#303AB2"/>
<path d="M2701.99 307.583C2695.57 302.12 2691.1 294.168 2688.61 283.799C2686.11 273.395 2684.89 260.189 2684.89 244.113C2684.89 227.689 2686.32 214.344 2689.17 204.079C2692.06 193.814 2697.16 185.985 2704.46 180.557C2711.81 175.128 2722.18 172.432 2735.54 172.432C2751.09 172.432 2766.7 174.345 2782.37 178.173V196.337C2777.66 195.693 2771.29 195.102 2763.34 194.528C2755.37 193.953 2747.44 193.675 2739.54 193.675C2731 193.675 2724.54 195.276 2720.16 198.46C2715.74 201.644 2712.71 206.794 2711.08 213.944C2709.42 221.095 2708.57 231.221 2708.57 244.339C2708.57 257.736 2709.42 267.949 2711.08 275.03C2712.73 282.111 2715.51 287.035 2719.39 289.854C2723.29 292.637 2728.93 294.047 2736.32 294.047C2741.56 294.047 2746.78 293.56 2751.98 292.516C2757.22 291.489 2761.86 290.289 2765.95 288.897V256.396H2737.47V238.024C2741.28 237.537 2746.19 237.067 2752.19 236.701C2758.17 236.336 2764.05 236.127 2769.78 236.127C2777.42 236.127 2783.73 236.336 2788.69 236.701V314.89H2770.93L2767.67 305.129C2762.7 307.931 2756.78 310.419 2749.91 312.576C2743.02 314.751 2735.96 315.847 2728.68 315.847C2717.32 315.812 2708.43 313.063 2701.99 307.583Z" fill="#303AB2"/>
<path d="M2815.64 212.392H2834L2839.36 228.816C2843.81 223.214 2848.56 218.865 2853.59 215.733C2858.62 212.601 2864.32 211.035 2870.69 211.035C2873.75 211.035 2876.62 211.418 2879.3 212.184V236.28C2874.45 235.776 2870.57 235.497 2867.63 235.497C2861.63 235.497 2856.46 236.489 2852.14 238.473C2847.79 240.439 2843.55 243.605 2839.34 247.937V314.852H2815.64V212.392Z" fill="#303AB2"/>
<path d="M2912.85 311.128C2906.41 307.996 2901.75 302.724 2898.87 295.261C2896.02 287.814 2894.59 277.271 2894.59 263.63C2894.59 249.746 2895.95 239.046 2898.68 231.513C2901.41 223.997 2905.94 218.707 2912.25 215.645C2918.55 212.583 2927.44 211.052 2938.93 211.052C2948.98 211.052 2956.93 212.079 2962.81 214.114C2968.66 216.15 2972.94 219.682 2975.62 224.727C2978.28 229.755 2979.62 236.802 2979.62 245.849C2979.62 255.279 2976.91 262.029 2971.5 266.101C2966.07 270.172 2958.2 272.225 2947.89 272.225H2917.87C2918.13 278.854 2919.02 283.986 2920.55 287.623C2922.08 291.259 2924.76 293.903 2928.68 295.556C2932.56 297.209 2938.2 298.062 2945.59 298.062H2976.56V311.998C2969.67 313.285 2963.53 314.242 2958.1 314.886C2952.69 315.512 2946.48 315.843 2939.47 315.843C2928.17 315.808 2919.27 314.242 2912.85 311.128ZM2945.62 257.889C2950.22 257.889 2953.52 256.984 2955.56 255.227C2957.59 253.417 2958.62 250.303 2958.62 245.849C2958.62 239.22 2957.16 234.627 2954.24 232.087C2951.3 229.547 2946.2 228.259 2938.94 228.259C2933.46 228.259 2929.22 229.129 2926.24 230.834C2923.23 232.557 2921.08 235.514 2919.74 239.725C2918.4 243.935 2917.72 249.99 2917.72 257.889H2945.62Z" fill="#303AB2"/>
<path d="M3004.97 309.006C3000.2 304.343 2997.8 298.097 2997.8 290.181V281.586C2997.8 273.426 3000.59 266.936 3006.14 262.082C3011.67 257.263 3019.93 254.827 3030.89 254.827H3060.14V245.832C3060.14 242.004 3059.5 238.942 3058.24 236.663C3056.96 234.367 3054.61 232.627 3051.18 231.391C3047.74 230.208 3042.76 229.582 3036.27 229.582H3005.32V215.82C3016.91 212.618 3030.3 211.035 3045.46 211.035C3058.45 211.035 3068.11 213.575 3074.41 218.673C3080.72 223.771 3083.89 232.314 3083.89 244.301V314.852H3065.34L3061.34 303.751C3060.05 304.882 3057.44 306.448 3053.49 308.432C3049.55 310.415 3044.93 312.172 3039.65 313.703C3034.36 315.234 3029.1 316 3023.87 316C3016.04 316 3009.75 313.669 3004.97 309.006ZM3049.53 296.601C3055.44 294.756 3058.99 293.521 3060.12 292.877V266.101L3037.96 267.25C3026.86 268.137 3021.32 273.061 3021.32 281.969V286.179C3021.32 290.772 3022.63 294.078 3025.26 296.114C3027.85 298.149 3031.22 299.245 3035.3 299.367C3038.85 299.367 3043.59 298.445 3049.53 296.601Z" fill="#303AB2"/>
<path d="M3122.15 306.807C3117.24 301.448 3114.93 292.419 3115.17 279.666L3115.96 231.472H3099.88V216.179L3116.7 212.351L3120.15 183.678H3138.68V212.351H3164.67V231.472H3138.68V279.457C3138.68 285.459 3139.79 289.618 3142.04 291.984C3144.25 294.35 3147.15 295.707 3150.72 296.09L3163.52 297.429V314.828H3146.51C3135.18 314.845 3127.07 312.166 3122.15 306.807Z" fill="#303AB2"/>
<path d="M3246.77 309.882C3240.35 305.916 3237.12 297.964 3237.12 285.977V204.552C3237.12 193.713 3240.06 185.884 3245.92 181.03C3251.77 176.193 3258.85 173.774 3267.13 173.774C3279.12 173.774 3289.44 173.966 3298.12 174.349C3306.78 174.731 3316.7 175.253 3327.92 175.88V195.575H3274.61C3270.14 195.575 3266.7 196.688 3264.28 198.915C3261.86 201.142 3260.64 204.483 3260.64 208.937V233.973L3319.33 235.313V253.842L3260.64 255.199V279.47C3260.64 288.917 3265.23 293.597 3274.4 293.597H3327.92V313.31C3311.88 314.702 3292.5 315.52 3269.81 315.798C3260.9 315.815 3253.23 313.849 3246.77 309.882Z" fill="#303AB2"/>
<path d="M3342.28 212.395H3366.55L3392.17 292.88L3418.38 212.395H3442.46L3405.17 314.872H3378.03L3342.28 212.395Z" fill="#303AB2"/>
<path d="M3470.62 311.128C3464.2 307.996 3459.54 302.724 3456.69 295.261C3453.8 287.814 3452.37 277.271 3452.37 263.63C3452.37 249.746 3453.75 239.046 3456.48 231.513C3459.23 223.997 3463.75 218.707 3470.05 215.645C3476.35 212.583 3485.26 211.052 3496.7 211.052C3506.78 211.052 3514.75 212.079 3520.61 214.114C3526.47 216.15 3530.74 219.682 3533.4 224.727C3536.08 229.755 3537.42 236.802 3537.42 245.849C3537.42 255.279 3534.72 262.029 3529.27 266.101C3523.86 270.172 3516 272.225 3505.68 272.225H3475.67C3475.93 278.854 3476.8 283.986 3478.33 287.623C3479.86 291.259 3482.58 293.903 3486.46 295.556C3490.35 297.209 3495.99 298.062 3503.39 298.062H3534.35V311.998C3527.46 313.285 3521.32 314.242 3515.89 314.886C3510.47 315.512 3504.26 315.843 3497.26 315.843C3485.95 315.808 3477.08 314.242 3470.62 311.128ZM3503.4 257.889C3508 257.889 3511.3 256.984 3513.35 255.227C3515.37 253.417 3516.42 250.303 3516.42 245.849C3516.42 239.22 3514.94 234.627 3512 232.087C3509.07 229.547 3503.98 228.259 3496.7 228.259C3491.24 228.259 3486.98 229.129 3484 230.834C3481.03 232.539 3478.84 235.514 3477.51 239.725C3476.17 243.935 3475.51 249.99 3475.51 257.889H3503.4Z" fill="#303AB2"/>
<path d="M3560.38 212.384H3579.68L3584.08 223.084C3588.79 219.534 3594.17 216.559 3600.22 214.193C3606.28 211.844 3612.3 210.661 3618.3 210.661C3629.52 210.661 3637.6 213.932 3642.57 220.509C3647.55 227.068 3650.05 235.767 3650.05 246.589V314.843H3626.34V249.477C3626.34 244.014 3624.81 239.717 3621.75 236.672C3618.68 233.627 3614.54 232.079 3609.32 232.079C3604.61 232.079 3600.26 232.792 3596.33 234.184C3592.4 235.576 3588.31 237.681 3584.1 240.482V314.843H3560.4V212.384H3560.38Z" fill="#303AB2"/>
<path d="M3688.54 306.807C3683.65 301.448 3681.3 292.419 3681.58 279.666L3682.33 231.472H3666.29V216.179L3683.11 212.351L3686.54 183.678H3705.08V212.351H3731.08V231.472H3705.08V279.457C3705.08 285.459 3706.18 289.618 3708.41 291.984C3710.65 294.35 3713.54 295.707 3717.11 296.09L3729.91 297.429V314.828H3712.88C3701.57 314.845 3693.44 312.166 3688.54 306.807Z" fill="#303AB2"/>
<path d="M3764.92 314.946C3756.88 314.25 3751.09 313.259 3747.52 311.971V298.035H3791.68C3796.91 298.035 3800.69 297.322 3803.05 295.93C3805.4 294.52 3806.59 291.65 3806.59 287.335V283.699C3806.59 280.254 3805.47 277.661 3803.23 275.956C3801.02 274.216 3797.42 273.381 3792.44 273.381H3776.96C3756.29 273.381 3745.99 264.404 3745.99 246.431V240.69C3745.99 230.755 3748.98 223.396 3754.98 218.611C3760.97 213.844 3771.09 211.443 3785.36 211.443C3791.1 211.443 3797.7 211.86 3805.16 212.678C3812.62 213.513 3818.38 214.435 3822.47 215.445V229.398H3780.78C3775.83 229.398 3772.16 230.268 3769.81 231.973C3767.44 233.713 3766.27 236.601 3766.27 240.672V244.309C3766.27 248.258 3767.47 250.903 3769.91 252.242C3772.33 253.582 3776.14 254.243 3781.36 254.243H3797.23C3807.04 254.243 3814.43 256.54 3819.41 261.133C3824.37 265.726 3826.86 272.216 3826.86 280.636V289.023C3826.86 298.974 3823.55 305.951 3816.92 309.953C3810.29 313.972 3800.36 315.99 3787.1 315.99C3780.32 316.007 3772.96 315.642 3764.92 314.946Z" fill="#303AB2"/>
<path d="M3848.36 314.074C3847.65 313.448 3847.3 312.613 3847.3 311.586V293.44C3847.3 291.004 3848.5 289.804 3850.94 289.804H3864.49C3866.91 289.804 3868.13 291.004 3868.13 293.44V311.586C3868.13 313.883 3866.91 315.031 3864.49 315.031H3850.94C3849.91 315.049 3849.06 314.736 3848.36 314.074Z" fill="#303AB2"/>
<path d="M1589.03 332.539C1590.3 332.539 1591.23 332.225 1591.77 331.596C1592.35 330.968 1592.62 329.576 1592.62 327.394C1592.62 325.643 1592.3 324.431 1591.68 323.758C1591.05 323.111 1590.15 322.77 1589.03 322.77H1580.53V332.539H1589.03ZM1569.79 312.983H1589.36C1598.69 312.983 1603.36 317.742 1603.36 327.286C1603.36 331.345 1602.73 334.425 1601.52 336.49C1600.28 338.555 1598.43 340.01 1595.99 340.863L1605.16 357.878H1594.42L1585.88 340.441H1580.53V357.878H1569.79V312.983ZM1597.56 364.209C1602.82 364.209 1606.91 361.964 1609.79 357.474C1612.66 352.985 1614.1 345.577 1614.1 335.278C1614.1 326.658 1613.07 319.744 1611 314.554C1608.93 309.373 1604.75 306.787 1598.51 306.787H1576.71C1571.19 306.787 1566.78 308.852 1563.56 312.983C1560.36 317.113 1558.74 324.548 1558.74 335.278C1558.74 344.051 1560.22 351.054 1563.19 356.307C1566.2 361.56 1570.69 364.209 1576.71 364.209H1597.56ZM1555.1 363.4C1550.35 356.379 1548 346.996 1548 335.278C1548 323.65 1550.07 314.357 1554.24 307.416C1558.42 300.484 1565.93 297 1576.71 297H1598.51C1608.39 297 1615.27 300.367 1619.09 307.102C1622.91 313.836 1624.84 323.219 1624.84 335.278C1624.84 348.118 1622.5 357.771 1617.83 364.253C1613.16 370.745 1606.73 373.978 1598.51 373.978H1576.71C1567.05 373.978 1559.82 370.449 1555.1 363.4Z" fill="#303AB2"/>
<path d="M1483.61 355.824L1471.76 288.745C1471.42 287.001 1470.35 285.774 1468.68 284.884C1467.04 284.066 1465.17 284.048 1463.36 284.635C1456.24 286.646 1448.93 288.194 1441.49 289.226C1433.95 290.293 1425.69 290.756 1416.81 290.756C1408.54 290.756 1400.62 289.742 1393.13 287.642C1385.73 285.631 1378.95 282.571 1372.94 278.603C1367.03 274.511 1362.15 269.28 1358.63 262.714C1355.09 256.38 1353.22 248.765 1353.22 239.922C1353.22 224.691 1358.77 212.504 1369.82 203.322C1380.87 194.195 1395.18 189.622 1412.79 189.622C1423.7 189.622 1432.63 190.369 1439.78 191.651C1446.99 192.967 1452.93 194.604 1457.79 196.241C1462.2 197.949 1465.19 196.383 1466.81 191.651L1482.54 124.109C1482.54 121.014 1480.99 119.021 1477.93 118.06C1465.65 114.288 1453.18 111.761 1440.69 110.64C1428.06 109.413 1416.81 108.79 1406.67 108.79C1377.06 108.79 1351.44 112.633 1330.02 120.071C1308.4 127.508 1290.72 137.472 1276.61 150.016C1262.55 162.506 1252.11 176.794 1245.13 192.932C1238.21 208.981 1234.74 225.723 1234.74 242.929C1234.74 263.035 1238.5 281.059 1245.99 297.09C1253.46 313.157 1264.13 326.999 1278.05 338.529C1291.82 350.023 1308.67 358.866 1328.24 364.844C1347.99 371.018 1370.09 374.043 1394.79 374.043C1411.64 374.043 1427.58 373.082 1442.51 371.268C1457.61 369.399 1470.07 366.303 1480.23 361.784C1483.23 360.539 1484.28 358.51 1483.61 355.824Z" fill="#303AB2"/>
<path d="M1119.2 85.526C1131.69 90.2055 1144.71 90.7926 1157.93 88.2661C1172.18 85.526 1184.71 79.601 1194.76 69.8328C1204.33 60.4205 1209.78 49.5136 1208.83 36.3826C1208.83 35.9378 1209.1 35.404 1209.42 34.977C1212.96 30.0484 1211.2 24.9597 1205.2 22.8246C1204.71 22.7 1204.1 22.3264 1203.91 21.9349C1198.34 13.2165 1190.12 7.43391 1179.87 3.76862C1165.3 -1.19554 1150.62 -0.928651 1137.2 2.66547C1123.48 6.54427 1112.63 12.3803 1104.07 21.3656C1095.37 30.6712 1090.51 41.0799 1091.42 53.3924C1091.42 53.8728 1091.15 54.4778 1090.94 54.8514C1087.29 59.6554 1089.04 64.7797 1095.1 66.986C1095.55 67.1639 1096.17 67.591 1096.49 68.0002C1101.81 76.2204 1109.48 81.8607 1119.2 85.526Z" fill="#303AB2"/>
<path d="M1204.89 108.824H1103.77C1099.27 108.824 1095.69 112.205 1095.69 116.226V119.269V121.066V124.126V358.883V361.854V363.758V366.694C1095.69 370.75 1099.27 374.06 1103.77 374.06H1204.89C1209.33 374.06 1212.96 370.733 1212.96 366.694V363.758V361.854V358.883V124.126V121.066V119.269V116.226C1212.96 112.205 1209.33 108.824 1204.89 108.824Z" fill="#303AB2"/>
<path d="M1023.68 288.426C1015.41 288.426 1008.7 281.718 1008.7 273.462V248.695V221.988V201.206L1008.74 201.135V193.982V191.829H1062.08C1064.45 191.829 1066.35 190.175 1066.35 188.04V114.325C1066.35 112.189 1064.45 110.517 1062.08 110.517H1008.74V54.7013C1008.74 52.5839 1006.89 50.8403 1004.47 50.8403L899.882 89.4148C897.391 90.1621 895.541 91.2296 895.541 93.3114V110.499H865.863C863.532 110.499 861.664 112.172 861.664 114.307V188.022C861.664 190.157 863.532 191.812 865.863 191.812H895.541V193.965V201.064V267.128C895.541 303.923 904.437 330.755 922.123 347.409C929.667 354.597 940.023 360.824 953.331 366.144C966.409 371.393 981.373 374.026 998.062 374.026C1011.53 374.026 1023.99 373.226 1035.3 371.696C1046.6 370.237 1055.44 368.262 1061.81 365.895C1064.89 364.454 1066.35 362.621 1066.35 360.255V290.205C1066.35 289.476 1066.12 288.906 1065.94 288.319C1065.57 288.355 1065.19 288.444 1064.84 288.444H1023.68V288.426Z" fill="#303AB2"/>
<path d="M839.529 115.031C838.319 111.365 833.675 110.031 829.725 110.031C809.886 110.031 794.638 118.394 794.638 118.394C787.219 121.329 780.475 125.511 774.283 130.937V120.031V116.419C774.283 112.308 770.6 108.981 766.028 108.981H686.441H671.958H665.321C660.73 108.981 657.065 112.326 657.065 116.419V120.013V363.079V366.69C657.065 370.747 660.73 374.181 665.321 374.181H671.958H686.441H766.028C767.896 374.181 769.55 373.576 770.92 372.74C772.824 371.939 773.838 370.516 774.141 368.256C774.141 368.185 774.141 368.06 774.177 367.936C774.177 367.687 774.265 367.491 774.265 367.189V206.734C774.265 198.496 780.973 191.824 789.229 191.824H822.163L822.199 191.788H835.579C837.946 191.788 839.796 190.116 839.796 187.999V180.188V145.937C839.796 139.496 839.796 133.037 839.796 126.596V117.148C839.796 117.077 839.796 116.988 839.796 116.988V114.319L839.529 115.031Z" fill="#303AB2"/>
<path d="M597.14 145.245C583.529 133.84 566.946 125.033 547.73 118.485C528.443 112.151 507.323 108.841 484.441 108.841C457.503 108.841 433.732 112.275 413.182 119.037C392.56 125.851 375.212 135.192 361.227 147.256C347.135 159.266 336.442 173.465 329.2 189.638C321.781 205.918 318.222 223.729 318.222 243.034C318.222 264.065 322.404 282.658 330.837 299.01C339.342 315.254 350.783 328.973 365.319 340.146C379.981 351.32 396.99 359.825 416.242 365.536C435.405 371.301 456.204 374.184 478.356 374.184C500.793 374.184 521.895 371.088 541.52 365.003C561.217 358.882 578.476 350.164 593.279 338.634C608.065 327.051 619.595 312.888 628.046 296.198C636.498 279.349 640.715 260.097 640.715 238.408C640.715 219.512 636.8 202.04 629.185 186.133C621.516 170.173 610.841 156.597 597.14 145.245ZM511.629 286.822C503.764 297.106 492.929 302.266 479.335 302.266C464.104 302.266 452.753 296.287 445.618 284.277C438.358 272.303 434.675 258.158 434.675 241.717C434.675 234.173 435.547 226.593 437.184 219.103C438.696 211.683 441.276 205.118 444.977 199.513C448.571 193.837 453.109 189.318 458.802 185.848C464.496 182.361 471.471 180.706 479.94 180.706C494.779 180.706 505.704 186.756 512.767 198.979C519.813 211.114 523.283 225.401 523.283 241.699C523.301 261.36 519.368 276.342 511.629 286.822Z" fill="#303AB2"/>
<path d="M185.471 108.824C174.617 108.824 164.725 109.91 156.024 111.938C147.341 114.02 139.655 116.618 132.911 119.696C126.969 122.347 121.826 125.354 117.325 128.628V121.368C117.325 117.311 113.713 114.02 109.194 114.02H8.16684C3.62971 114.02 0 117.311 0 121.368V180.974C7.68644 181.614 13.7182 187.984 13.7182 195.795V287.392C13.7182 295.203 7.68644 301.572 0 302.195V364.025V366.818C0 370.928 3.62971 374.184 8.16684 374.184H109.194C113.713 374.184 117.325 370.928 117.325 366.818V364.025V216.648C117.325 216.595 117.325 216.541 117.361 216.452H117.325V213.801C117.325 213.801 117.325 213.712 117.361 213.677C117.734 198.286 131.523 185.884 148.551 185.884C165.063 185.884 178.461 197.574 179.546 212.253C179.635 212.485 179.688 212.627 179.742 212.84V215.1H179.546C179.635 215.225 179.688 215.438 179.742 215.669V282.872V285.63V351.961V354.808V364.025V366.818C179.742 370.928 183.371 374.184 187.873 374.184H288.259C292.743 374.184 296.426 370.928 296.426 366.818V364.025V317.906V315.095V285.648V282.89V226.452V226.345V223.605V223.534C296.426 185.635 286.516 157.096 266.694 137.809C246.873 118.486 219.793 108.824 185.471 108.824Z" fill="#303AB2"/>
</svg>
