<svg width="1625" height="662" viewBox="0 0 1625 662" fill="none" xmlns="http://www.w3.org/2000/svg">
<path d="M1093 503.184C1079.85 501.318 1062.88 500.182 1049.81 500.142C1012.83 500.02 999.883 510.119 997.123 530.156C994.647 547.678 1001.18 560.535 1021.24 567.146L1046.4 575.826C1056.55 579.193 1059.47 580.166 1059.03 583.816C1058.34 588.075 1053.38 589.13 1028.74 589.13C1020.5 589.13 1011.41 589.049 1002.72 589.008C995.459 588.927 991.196 592.537 990.181 599.797L989.897 602.109C988.882 609.612 992.373 614.358 999.964 615.372C1015.75 617.562 1028.3 618.211 1042.22 618.211C1075.35 618.211 1094.91 613.344 1098.48 584.749C1100.76 566.376 1091.99 555.83 1073.68 549.949L1047.82 541.472C1038.73 538.552 1035.65 537.01 1036.21 533.279C1036.78 529.507 1041 529.385 1057.16 529.385C1068.57 529.385 1079.2 529.466 1089.8 529.588C1097.06 529.669 1101.33 526.019 1102.34 518.799L1102.62 516.528C1103.68 509.024 1100.43 504.076 1092.92 503.224L1093 503.184Z" fill="#303AB2"/>
<path d="M1176.34 529.345C1187.75 529.345 1198.38 529.426 1208.98 529.547C1216.24 529.629 1220.51 525.978 1221.52 518.759L1221.81 516.487C1222.86 508.984 1219.61 504.035 1212.1 503.184C1198.95 501.318 1181.98 500.182 1168.91 500.142C1131.93 500.02 1118.98 510.119 1116.22 530.156C1113.75 547.678 1120.28 560.535 1140.34 567.146L1165.5 575.826C1175.65 579.193 1178.57 580.166 1178.13 583.816C1177.44 588.075 1172.49 589.13 1147.85 589.13C1139.6 589.13 1130.51 589.049 1121.82 589.008C1114.56 588.927 1110.3 592.537 1109.28 599.797L1109 602.109C1107.98 609.612 1111.47 614.358 1119.06 615.372C1134.86 617.562 1147.4 618.211 1161.32 618.211C1194.45 618.211 1214.01 613.344 1217.58 584.749C1219.86 566.376 1211.09 555.83 1192.78 549.949L1166.92 541.472C1157.83 538.552 1154.75 537.01 1155.31 533.279C1155.88 529.507 1160.1 529.385 1176.26 529.385L1176.34 529.345Z" fill="#303AB2"/>
<path d="M930.915 500.142C890.363 500.142 869.011 511.174 863.856 557.899C859.553 597.282 872.664 618.414 920.727 618.414C933.635 618.414 948.655 617.116 961.523 613.222C968.911 611.032 971.874 605.597 971.062 598.053L970.818 596.552C969.885 588.237 965.136 584.506 956.814 585.114C944.88 585.925 932.092 586.453 924.623 586.453C914.11 586.453 908.061 584.871 906.397 576.678C905.504 573.92 907.29 572.135 910.051 571.932L936.152 569.985C965.825 567.836 980.195 561.59 983.24 540.62C986.934 514.946 975.162 500.223 930.834 500.223L930.915 500.142ZM943.865 536.524C942.769 546.177 937.37 547.799 927.14 548.732L913.298 549.989C910.375 550.395 908.711 548.529 909.482 545.406C912.811 531.291 917.763 528.047 930.144 527.884C941.632 527.722 944.595 529.142 943.865 536.524Z" fill="#303AB2"/>
<path d="M849.364 500.953C837.348 502.088 826.835 507.402 814.9 517.176C812.262 519.407 810.232 519.204 809.908 516.933L810.029 513.851C809.096 506.671 805.077 503.264 797.08 503.264H789.489C781.411 503.264 776.824 507.239 775.809 515.108L763.591 602.108C762.413 610.748 766.797 615.737 775.484 615.737H790.91C798.988 615.737 803.534 611.762 804.549 603.893L812.099 549.421C812.343 547.11 813.642 545.649 815.834 545C826.794 540.661 834.142 538.835 843.316 538.105C851.515 537.619 856.224 534.09 858.132 526.302L860.689 514.905C862.922 505.86 858.294 499.857 849.323 500.993L849.364 500.953Z" fill="#303AB2"/>
<path d="M718.776 501.034C702.011 501.034 687.519 510.646 677.371 520.097C676.072 521.232 674.976 520.462 674.813 518.434L674.935 515.797C674.61 507.645 670.064 503.224 661.945 503.224H654.07C645.992 503.224 641.405 507.199 640.39 515.067L621.596 648.022C620.419 656.661 624.762 661.65 633.49 661.65H649.077C656.831 661.65 661.58 657.838 662.92 650.172L664.827 638.734C665.842 632.123 666.127 626.323 666.33 620.482C666.411 617.562 668.075 616.264 670.835 616.669C680.659 618.089 691.781 618.819 702.539 618.819C726.732 618.819 745.283 609.166 751.534 562.198C757.136 519.529 748.165 501.074 718.776 501.074V501.034ZM709.642 562.725C706.192 588.845 701.97 592.496 684.921 592.496C682.567 592.496 679.238 592.496 675.625 592.455C672.703 592.455 671.241 590.752 671.647 588.034L676.843 550.07C677.087 547.84 677.858 546.379 679.685 545.244C687.56 538.876 694.379 535.226 702.498 534.901C712.646 534.414 712.281 542.405 709.642 562.766V562.725Z" fill="#303AB2"/>
<path d="M609.418 502.94H595.86C588.472 502.94 583.398 505.292 579.42 511.823L561.68 539.606C559.204 543.419 556.363 542.972 554.779 538.754L545.321 513.81C542.642 506.306 537.568 502.94 529.734 502.94H517.434C507.083 502.94 502.902 509.227 506.636 518.758L518.611 548.164C521.331 555.14 520.803 560.656 516.5 566.7L493.281 598.904C486.705 608.314 490.439 615.696 501.846 615.696H516.46C523.848 615.696 529.206 613.181 532.981 606.854L552.1 576.394C554.658 572.5 557.499 572.865 559.204 577.043L569.677 605.069C572.356 612.573 577.552 615.696 585.549 615.696H598.255C608.606 615.696 612.746 609.409 608.687 599.715L595.332 568.16C592.491 561.062 593.059 555.343 597.28 549.219L618.308 519.529C624.64 510.322 620.825 502.94 609.418 502.94Z" fill="#303AB2"/>
<path d="M494.011 473.859C495.432 465.382 491.454 460.028 482.97 459.46C468.519 458.324 451.795 458.081 435.273 458H362.084C355.345 458 349.865 463.476 349.865 470.208C349.865 476.941 355.345 482.417 362.084 482.417H374.911C379.661 482.417 384.167 485.459 385.344 490.083C387.049 496.937 381.934 503.062 375.358 503.062H298.637C292.426 503.062 287.352 508.091 287.352 514.337C287.352 520.584 292.386 525.613 298.637 525.613H351.53C357.132 525.613 362.327 529.466 363.261 534.982C364.398 542.04 358.999 548.124 352.139 548.124H323.277C317.066 548.124 311.992 553.153 311.992 559.399C311.992 565.645 317.025 570.675 323.277 570.675H360.135C364.925 570.675 369.431 573.717 370.568 578.341C372.273 585.195 367.117 591.36 360.541 591.36H308.947C302.737 591.36 297.663 596.39 297.663 602.636V604.502C297.663 610.707 302.696 615.777 308.947 615.777H404.707V615.696C405.194 615.696 405.681 615.737 406.168 615.737C424.8 615.737 446.639 615.899 465.15 614.398C473.065 613.83 477.287 609.166 477.49 601.257L477.652 595.66C477.855 588.521 472.172 582.681 465.028 582.681H422.04C414.53 582.681 411.81 579.679 412.866 572.622L415.667 552.91C415.91 550.314 417.534 549.097 420.091 549.097H463.08C471.158 549.097 475.745 544.96 476.719 537.051L477.165 533.806C478.18 525.086 473.877 520.178 465.15 520.178H424.76C422.202 520.178 420.416 518.11 420.782 515.595L422.689 501.723C423.704 493.814 426.871 491.259 434.989 491.259H479.357C487.232 491.259 491.82 487.284 493.2 479.416L494.052 473.981L494.011 473.859Z" fill="#303AB2"/>
<path d="M302.574 559.318C302.574 553.112 297.541 548.042 291.29 548.042H277.285C271.074 548.042 266 553.072 266 559.318C266 565.564 271.034 570.594 277.285 570.594H291.29C297.5 570.594 302.574 565.564 302.574 559.318Z" fill="#303AB2"/>
<path d="M324.332 482.457H328.311C335.049 482.457 340.529 476.982 340.529 470.249C340.529 463.516 335.049 458.041 328.311 458.041H324.332C317.594 458.041 312.114 463.516 312.114 470.249C312.114 476.982 317.594 482.457 324.332 482.457Z" fill="#303AB2"/>
<path d="M1589.03 332.54C1590.3 332.54 1591.23 332.225 1591.77 331.597C1592.35 330.968 1592.62 329.576 1592.62 327.395C1592.62 325.644 1592.3 324.431 1591.68 323.758C1591.05 323.111 1590.15 322.77 1589.03 322.77H1580.53V332.54H1589.03ZM1569.79 312.983H1589.36C1598.69 312.983 1603.36 317.742 1603.36 327.287C1603.36 331.345 1602.73 334.425 1601.52 336.49C1600.28 338.555 1598.43 340.01 1595.99 340.863L1605.16 357.879H1594.42L1585.88 340.441H1580.53V357.879H1569.79V312.983ZM1597.56 364.209C1602.82 364.209 1606.91 361.964 1609.79 357.474C1612.66 352.985 1614.1 345.577 1614.1 335.278C1614.1 326.658 1613.07 319.744 1611 314.554C1608.93 309.373 1604.75 306.787 1598.51 306.787H1576.71C1571.19 306.787 1566.78 308.853 1563.56 312.983C1560.36 317.113 1558.74 324.548 1558.74 335.278C1558.74 344.051 1560.22 351.054 1563.19 356.307C1566.2 361.56 1570.69 364.209 1576.71 364.209H1597.56ZM1555.1 363.401C1550.35 356.379 1548 346.996 1548 335.278C1548 323.65 1550.07 314.357 1554.24 307.416C1558.42 300.484 1565.93 297 1576.71 297H1598.51C1608.39 297 1615.27 300.367 1619.09 307.102C1622.91 313.836 1624.84 323.219 1624.84 335.278C1624.84 348.118 1622.5 357.771 1617.83 364.254C1613.16 370.746 1606.73 373.978 1598.51 373.978H1576.71C1567.05 373.978 1559.82 370.449 1555.1 363.401Z" fill="#303AB2"/>
<path d="M1483.61 355.824L1471.76 288.745C1471.42 287.002 1470.35 285.774 1468.68 284.884C1467.04 284.066 1465.17 284.048 1463.36 284.635C1456.24 286.646 1448.93 288.194 1441.49 289.226C1433.95 290.293 1425.69 290.756 1416.81 290.756C1408.54 290.756 1400.62 289.742 1393.13 287.642C1385.73 285.632 1378.95 282.571 1372.94 278.603C1367.03 274.511 1362.15 269.28 1358.63 262.715C1355.09 256.38 1353.22 248.765 1353.22 239.922C1353.22 224.692 1358.77 212.504 1369.82 203.323C1380.87 194.195 1395.18 189.622 1412.79 189.622C1423.7 189.622 1432.63 190.369 1439.78 191.651C1446.99 192.967 1452.93 194.604 1457.79 196.241C1462.2 197.949 1465.19 196.383 1466.81 191.651L1482.54 124.11C1482.54 121.014 1480.99 119.021 1477.93 118.06C1465.65 114.288 1453.18 111.761 1440.69 110.64C1428.06 109.413 1416.81 108.79 1406.67 108.79C1377.06 108.79 1351.44 112.633 1330.02 120.071C1308.4 127.508 1290.72 137.472 1276.61 150.016C1262.55 162.506 1252.11 176.794 1245.13 192.932C1238.21 208.981 1234.74 225.724 1234.74 242.929C1234.74 263.035 1238.5 281.059 1245.99 297.09C1253.46 313.157 1264.13 326.999 1278.05 338.529C1291.82 350.023 1308.67 358.866 1328.24 364.845C1347.99 371.019 1370.09 374.043 1394.79 374.043C1411.64 374.043 1427.58 373.083 1442.51 371.268C1457.61 369.399 1470.07 366.304 1480.23 361.784C1483.23 360.539 1484.28 358.51 1483.61 355.824Z" fill="#303AB2"/>
<path d="M1119.2 85.526C1131.69 90.2055 1144.71 90.7926 1157.93 88.2661C1172.18 85.526 1184.71 79.601 1194.76 69.8328C1204.33 60.4205 1209.78 49.5136 1208.83 36.3826C1208.83 35.9378 1209.1 35.404 1209.42 34.977C1212.96 30.0484 1211.2 24.9597 1205.2 22.8246C1204.71 22.7 1204.1 22.3264 1203.91 21.9349C1198.34 13.2165 1190.12 7.43391 1179.87 3.76862C1165.3 -1.19554 1150.62 -0.928651 1137.2 2.66547C1123.48 6.54427 1112.63 12.3803 1104.07 21.3656C1095.37 30.6712 1090.51 41.0799 1091.42 53.3924C1091.42 53.8728 1091.15 54.4778 1090.94 54.8514C1087.29 59.6554 1089.04 64.7797 1095.1 66.986C1095.55 67.1639 1096.17 67.591 1096.49 68.0002C1101.81 76.2204 1109.48 81.8607 1119.2 85.526Z" fill="#303AB2"/>
<path d="M1204.89 108.824H1103.77C1099.27 108.824 1095.69 112.205 1095.69 116.226V119.269V121.066V124.126V358.883V361.854V363.758V366.694C1095.69 370.75 1099.27 374.06 1103.77 374.06H1204.89C1209.33 374.06 1212.96 370.732 1212.96 366.694V363.758V361.854V358.883V124.126V121.066V119.269V116.226C1212.96 112.205 1209.33 108.824 1204.89 108.824Z" fill="#303AB2"/>
<path d="M1023.68 288.426C1015.41 288.426 1008.7 281.718 1008.7 273.462V248.695V221.988V201.206L1008.74 201.135V193.982V191.83H1062.08C1064.45 191.83 1066.35 190.175 1066.35 188.04V114.325C1066.35 112.189 1064.45 110.517 1062.08 110.517H1008.74V54.7013C1008.74 52.584 1006.89 50.8403 1004.47 50.8403L899.882 89.4149C897.391 90.1622 895.541 91.2297 895.541 93.3115V110.499H865.863C863.532 110.499 861.664 112.172 861.664 114.307V188.022C861.664 190.157 863.532 191.812 865.863 191.812H895.541V193.965V201.064V267.128C895.541 303.923 904.437 330.755 922.123 347.409C929.667 354.597 940.023 360.824 953.331 366.144C966.409 371.393 981.373 374.027 998.062 374.027C1011.53 374.027 1023.99 373.226 1035.3 371.696C1046.6 370.237 1055.44 368.262 1061.81 365.895C1064.89 364.454 1066.35 362.621 1066.35 360.255V290.205C1066.35 289.476 1066.12 288.906 1065.94 288.319C1065.57 288.355 1065.19 288.444 1064.84 288.444H1023.68V288.426Z" fill="#303AB2"/>
<path d="M839.529 115.031C838.319 111.366 833.675 110.031 829.725 110.031C809.886 110.031 794.638 118.394 794.638 118.394C787.219 121.33 780.475 125.511 774.283 130.938V120.031V116.419C774.283 112.309 770.6 108.981 766.028 108.981H686.441H671.958H665.321C660.73 108.981 657.065 112.326 657.065 116.419V120.013V363.079V366.691C657.065 370.747 660.73 374.181 665.321 374.181H671.958H686.441H766.028C767.896 374.181 769.55 373.576 770.92 372.74C772.824 371.939 773.838 370.516 774.141 368.256C774.141 368.185 774.141 368.061 774.177 367.936C774.177 367.687 774.265 367.491 774.265 367.189V206.734C774.265 198.496 780.973 191.824 789.229 191.824H822.163L822.199 191.789H835.579C837.946 191.789 839.796 190.116 839.796 187.999V180.188V145.937C839.796 139.496 839.796 133.037 839.796 126.596V117.148C839.796 117.077 839.796 116.988 839.796 116.988V114.319L839.529 115.031Z" fill="#303AB2"/>
<path d="M597.14 145.245C583.529 133.84 566.946 125.033 547.73 118.485C528.443 112.151 507.323 108.841 484.441 108.841C457.503 108.841 433.732 112.275 413.182 119.037C392.56 125.851 375.212 135.192 361.227 147.256C347.135 159.266 336.442 173.464 329.2 189.638C321.781 205.918 318.222 223.729 318.222 243.034C318.222 264.065 322.404 282.658 330.837 299.009C339.342 315.254 350.783 328.972 365.319 340.146C379.981 351.32 396.99 359.825 416.242 365.536C435.405 371.301 456.204 374.184 478.356 374.184C500.793 374.184 521.895 371.088 541.52 365.003C561.217 358.882 578.476 350.163 593.279 338.634C608.065 327.051 619.595 312.888 628.046 296.198C636.498 279.349 640.715 260.097 640.715 238.408C640.715 219.512 636.8 202.039 629.185 186.133C621.516 170.173 610.841 156.597 597.14 145.245ZM511.629 286.821C503.764 297.106 492.929 302.266 479.335 302.266C464.104 302.266 452.753 296.287 445.618 284.277C438.358 272.303 434.675 258.157 434.675 241.717C434.675 234.173 435.547 226.593 437.184 219.103C438.696 211.683 441.276 205.118 444.977 199.513C448.571 193.837 453.109 189.318 458.802 185.848C464.496 182.361 471.471 180.706 479.94 180.706C494.779 180.706 505.704 186.755 512.767 198.979C519.813 211.114 523.283 225.401 523.283 241.699C523.301 261.36 519.368 276.342 511.629 286.821Z" fill="#303AB2"/>
<path d="M185.471 108.824C174.617 108.824 164.725 109.91 156.024 111.938C147.341 114.02 139.655 116.617 132.911 119.696C126.969 122.347 121.826 125.354 117.325 128.627V121.368C117.325 117.311 113.713 114.02 109.194 114.02H8.16684C3.62971 114.02 0 117.311 0 121.368V180.974C7.68644 181.614 13.7182 187.984 13.7182 195.795V287.392C13.7182 295.203 7.68644 301.572 0 302.195V364.025V366.818C0 370.928 3.62971 374.184 8.16684 374.184H109.194C113.713 374.184 117.325 370.928 117.325 366.818V364.025V216.648C117.325 216.594 117.325 216.541 117.361 216.452H117.325V213.801C117.325 213.801 117.325 213.712 117.361 213.676C117.734 198.286 131.523 185.884 148.551 185.884C165.063 185.884 178.461 197.574 179.546 212.253C179.635 212.484 179.688 212.627 179.742 212.84V215.1H179.546C179.635 215.224 179.688 215.438 179.742 215.669V282.872V285.63V351.961V354.808V364.025V366.818C179.742 370.928 183.371 374.184 187.873 374.184H288.259C292.743 374.184 296.426 370.928 296.426 366.818V364.025V317.906V315.095V285.648V282.89V226.452V226.345V223.605V223.534C296.426 185.635 286.516 157.096 266.694 137.808C246.873 118.486 219.793 108.824 185.471 108.824Z" fill="#303AB2"/>
</svg>
