<svg width="3177" height="839" viewBox="0 0 3177 839" fill="none" xmlns="http://www.w3.org/2000/svg">
<g clip-path="url(#clip0_38_32)">
<path d="M59.6299 660.194H-0.203613V628.824H154.197V660.194H94.6461V837.337H59.6299V660.194Z" fill="black"/>
<path d="M180.015 660.455C178.961 659.504 178.447 658.295 178.447 656.778V631.065C178.447 629.368 178.91 628.005 179.86 626.976C180.785 625.922 182.121 625.408 183.817 625.408H210.355C212.051 625.408 213.31 625.922 214.157 626.976C215.005 628.005 215.417 629.368 215.417 631.065V656.778C215.417 660.172 213.721 661.87 210.33 661.87H183.791C182.301 661.87 181.042 661.407 180.015 660.455ZM179.295 685.885H214.286V837.337H179.295V685.885Z" fill="black"/>
<path d="M264.668 821.913C253.853 810.519 248.457 790.615 248.457 762.179C248.457 742.017 250.898 726.255 255.805 714.838C260.686 703.447 267.7 695.451 276.82 690.822C285.94 686.194 297.577 683.88 311.682 683.88C329.743 683.88 346.981 685.86 363.346 689.793V709.876H322.138C312.735 709.876 305.26 711.341 299.71 714.247C294.161 717.153 290.025 722.373 287.301 729.906C284.579 737.44 283.191 748.188 283.191 762.126C283.191 775.857 284.552 786.345 287.301 793.649C290.025 800.878 294.161 805.837 299.71 808.459C305.26 811.11 312.838 812.421 322.421 812.421H365.607V832.198C358.259 834.071 349.653 835.689 339.788 837C329.897 838.311 320.263 838.985 310.86 838.985C290.872 839.007 275.51 833.299 264.668 821.913Z" fill="black"/>
<path d="M394.101 621.759H429.091V741.249H448.308L486.124 685.888H521.989L473.999 757.085L525.945 837.337H490.081L447.769 772.621H429.143V837.337H394.152V621.759H394.101Z" fill="black"/>
<path d="M570.925 831.801C561.42 827.172 554.535 819.381 550.296 808.354C546.083 797.35 543.976 781.768 543.976 761.61C543.976 741.087 545.98 725.274 550.014 714.14C554.047 703.031 560.726 695.214 570.052 690.689C579.352 686.163 592.48 683.9 609.436 683.9C624.285 683.9 636.026 685.417 644.709 688.426C653.341 691.434 659.661 696.654 663.617 704.111C667.548 711.542 669.526 721.957 669.526 735.327C669.526 749.264 665.518 759.243 657.529 765.258C649.514 771.273 637.901 774.307 622.667 774.307H578.351C578.735 784.105 580.046 791.694 582.307 797.065C584.567 802.436 588.524 806.346 594.304 808.789C600.033 811.231 608.357 812.497 619.276 812.497H665.005V833.09C654.831 834.992 645.762 836.408 637.747 837.359C629.757 838.281 620.585 838.775 610.232 838.775C593.559 838.723 580.431 836.408 570.925 831.801ZM619.327 753.122C626.109 753.122 630.99 751.781 633.996 749.19C637.002 746.512 638.517 741.91 638.517 735.327C638.517 725.53 636.36 718.742 632.043 714.988C627.702 711.234 620.174 709.331 609.461 709.331C601.369 709.331 595.101 710.617 590.707 713.136C586.263 715.682 583.077 720.054 581.099 726.276C579.121 732.499 578.119 741.447 578.119 753.122H619.327Z" fill="black"/>
<path d="M722.503 825.419C715.258 817.493 711.842 804.152 712.202 785.304L713.357 714.076H689.62V691.474L714.462 685.817L719.549 643.442H746.909V685.817H785.29V714.076H746.909V784.997C746.909 793.866 748.556 800.009 751.864 803.507C755.127 807.006 759.423 809.013 764.685 809.575L783.598 811.553V837.27H758.473C741.746 837.292 729.748 833.337 722.503 825.419Z" fill="black"/>
<path d="M835.256 837.464C823.415 836.438 814.83 834.97 809.569 833.067V812.474H874.766C882.475 812.474 888.103 811.418 891.546 809.358C895.041 807.275 896.763 803.035 896.763 796.66V791.282C896.763 786.188 895.139 782.36 891.853 779.843C888.537 777.266 883.223 776.038 875.896 776.038H853.009C822.539 776.038 807.309 762.763 807.309 736.204V727.719C807.309 713.037 811.724 702.161 820.586 695.089C829.448 688.018 844.402 684.495 865.47 684.495C873.92 684.495 883.687 685.112 894.682 686.321C905.699 687.555 914.202 688.918 920.219 690.409V711.031H858.689C851.34 711.031 845.943 712.317 842.426 714.837C838.953 717.409 837.209 721.677 837.209 727.694V733.068C837.209 738.905 839.005 742.813 842.575 744.793C846.175 746.773 851.804 747.75 859.535 747.75H882.939C897.399 747.75 908.349 751.145 915.669 757.932C923.018 764.718 926.693 774.315 926.693 786.757V799.147C926.693 813.86 921.806 824.168 912.024 830.086C902.234 836.026 887.564 839.007 867.985 839.007C858.046 839.03 847.103 838.491 835.256 837.464Z" fill="black"/>
<path d="M1081.97 660.194H1022.13V628.824H1176.53V660.194H1116.99V837.337H1082V660.194H1081.97Z" fill="black"/>
<path d="M1211.52 831.666C1201.73 826.962 1194.54 819.066 1189.91 807.957C1185.29 796.825 1183.01 781.296 1183.01 761.34C1183.01 740.616 1185.29 724.7 1189.91 713.617C1194.54 702.483 1201.68 694.795 1211.39 690.449C1221.08 686.104 1234.21 683.944 1250.75 683.944C1267.48 683.944 1280.73 686.155 1290.42 690.603C1300.1 695.026 1307.29 702.843 1312 714.029C1316.72 725.265 1319.07 741.027 1319.07 761.37C1319.07 781.708 1316.8 797.44 1312.28 808.549C1307.76 819.658 1300.59 827.479 1290.8 832.003C1281.01 836.528 1267.68 838.79 1250.73 838.79C1234.39 838.738 1221.31 836.371 1211.52 831.666ZM1270.38 807.365C1274.97 805.103 1278.42 800.451 1280.68 793.379C1282.94 786.308 1284.05 775.558 1284.05 761.033C1284.05 746.71 1282.94 736.014 1280.68 728.968C1278.42 721.923 1274.95 717.294 1270.38 715.134C1265.75 712.974 1259.21 711.868 1250.75 711.868C1242.48 711.868 1236.03 712.974 1231.41 715.134C1226.78 717.294 1223.39 721.923 1221.13 728.968C1218.87 736.014 1217.71 746.71 1217.71 761.033C1217.71 775.536 1218.87 786.285 1221.13 793.379C1223.39 800.473 1226.8 805.103 1231.41 807.365C1236 809.628 1242.48 810.759 1250.75 810.759C1259.21 810.759 1265.75 809.628 1270.38 807.365Z" fill="black"/>
<path d="M1451.29 826.572C1441.81 818.497 1435.2 806.743 1431.53 791.424C1427.83 776.045 1426.03 756.531 1426.03 732.768C1426.03 708.495 1428.14 688.773 1432.35 673.602C1436.62 658.431 1444.15 646.86 1454.94 638.838C1465.78 630.815 1481.09 626.83 1500.82 626.83C1523.79 626.83 1546.83 629.658 1569.98 635.315V662.16C1563.01 661.208 1553.61 660.334 1541.87 659.485C1530.1 658.637 1518.39 658.225 1506.73 658.225C1494.11 658.225 1484.58 660.591 1478.11 665.297C1471.58 670.002 1467.12 677.613 1464.7 688.181C1462.26 698.75 1461 713.715 1461 733.102C1461 752.905 1462.26 767.992 1464.7 778.465C1467.14 788.93 1471.25 796.203 1476.98 800.368C1482.74 804.481 1491.06 806.564 1501.98 806.564C1509.71 806.564 1517.42 805.844 1525.1 804.301C1532.83 802.788 1539.69 801.013 1545.72 798.953V750.92H1503.67V723.769C1509.3 723.049 1516.54 722.354 1525.4 721.815C1534.24 721.275 1542.93 720.966 1551.38 720.966C1562.65 720.966 1571.98 721.275 1579.31 721.815V837.367H1553.07L1548.27 822.947C1540.92 827.082 1532.19 830.76 1522.04 833.951C1511.86 837.165 1501.44 838.783 1490.7 838.783C1473.92 838.73 1460.79 834.67 1451.29 826.572Z" fill="black"/>
<path d="M1619.09 685.885H1646.2L1654.11 710.159C1660.69 701.879 1667.71 695.451 1675.13 690.822C1682.56 686.194 1690.98 683.88 1700.38 683.88C1704.9 683.88 1709.14 684.445 1713.1 685.577V721.19C1705.93 720.444 1700.2 720.033 1695.86 720.033C1687 720.033 1679.37 721.499 1673 724.43C1666.58 727.335 1660.3 732.015 1654.09 738.418V837.314H1619.09V685.885Z" fill="black"/>
<path d="M1762.64 831.801C1753.13 827.172 1746.25 819.381 1742.01 808.354C1737.8 797.35 1735.69 781.768 1735.69 761.61C1735.69 741.087 1737.69 725.274 1741.73 714.14C1745.76 703.031 1752.44 695.214 1761.76 690.689C1771.07 686.163 1784.19 683.9 1801.15 683.9C1816 683.9 1827.74 685.417 1836.42 688.426C1845.05 691.434 1851.37 696.654 1855.33 704.111C1859.26 711.542 1861.24 721.957 1861.24 735.327C1861.24 749.264 1857.23 759.243 1849.24 765.258C1841.23 771.273 1829.61 774.307 1814.38 774.307H1770.06C1770.45 784.105 1771.76 791.694 1774.02 797.065C1776.28 802.436 1780.23 806.346 1786.01 808.789C1791.75 811.231 1800.07 812.497 1810.99 812.497H1856.72V833.09C1846.54 834.992 1837.48 836.408 1829.46 837.359C1821.47 838.281 1812.3 838.775 1801.95 838.775C1785.27 838.723 1772.11 836.408 1762.64 831.801ZM1811.04 753.122C1817.82 753.122 1822.7 751.781 1825.71 749.19C1828.71 746.512 1830.23 741.91 1830.23 735.327C1830.23 725.53 1828.08 718.742 1823.76 714.988C1819.42 711.234 1811.89 709.331 1801.18 709.331C1793.08 709.331 1786.81 710.617 1782.42 713.136C1777.97 715.682 1774.79 720.054 1772.81 726.276C1770.83 732.499 1769.83 741.447 1769.83 753.122H1811.04Z" fill="black"/>
<path d="M1898.67 828.67C1891.63 821.778 1888.08 812.549 1888.08 800.848V788.15C1888.08 776.09 1892.19 766.494 1900.39 759.325C1908.56 752.201 1920.76 748.6 1936.94 748.6H1980.13V735.306C1980.13 729.65 1979.18 725.123 1977.33 721.755C1975.43 718.361 1971.96 715.79 1966.9 713.964C1961.82 712.216 1954.47 711.29 1944.89 711.29H1899.18V690.951C1916.29 686.219 1936.07 683.88 1958.45 683.88C1977.64 683.88 1991.9 687.634 2001.2 695.167C2010.52 702.702 2015.2 715.327 2015.2 733.044V837.314H1987.81L1981.9 820.909C1980 822.579 1976.15 824.894 1970.32 827.823C1964.49 830.752 1957.68 833.351 1949.87 835.614C1942.06 837.876 1934.3 839.007 1926.56 839.007C1915.01 839.007 1905.73 835.561 1898.67 828.67ZM1964.46 810.339C1973.19 807.612 1978.44 805.784 1980.11 804.833V765.265L1947.38 766.958C1930.99 768.269 1922.81 775.55 1922.81 788.712V794.937C1922.81 801.724 1924.74 806.608 1928.62 809.62C1932.45 812.624 1937.43 814.249 1943.45 814.429C1948.69 814.429 1955.7 813.066 1964.46 810.339Z" fill="black"/>
<path d="M2071.69 825.419C2064.44 817.493 2061.03 804.152 2061.39 785.304L2062.54 714.076H2038.81V691.474L2063.65 685.817L2068.74 643.442H2096.09V685.817H2134.47V714.076H2096.09V784.997C2096.09 793.866 2097.74 800.009 2101.06 803.507C2104.32 807.006 2108.61 809.013 2113.88 809.575L2132.78 811.553V837.27H2107.66C2090.93 837.292 2078.96 833.337 2071.69 825.419Z" fill="black"/>
<path d="M2255.71 829.981C2246.23 824.115 2241.46 812.369 2241.46 794.653V674.311C2241.46 658.291 2245.8 646.721 2254.46 639.546C2263.09 632.398 2273.54 628.824 2285.77 628.824C2303.47 628.824 2318.7 629.107 2331.52 629.672C2344.32 630.238 2358.96 631.01 2375.53 631.936V661.043H2296.82C2290.22 661.043 2285.13 662.689 2281.56 665.979C2277.99 669.271 2276.19 674.208 2276.19 680.791V717.792L2362.85 719.772V747.156L2276.19 749.16V785.034C2276.19 798.998 2282.97 805.912 2296.51 805.912H2375.53V835.045C2351.85 837.105 2323.23 838.311 2289.73 838.723C2276.57 838.745 2265.24 835.839 2255.71 829.981Z" fill="black"/>
<path d="M2396.73 685.895H2432.57L2470.41 804.848L2509.1 685.895H2544.65L2489.6 837.345H2449.52L2396.73 685.895Z" fill="black"/>
<path d="M2586.24 831.801C2576.77 827.172 2569.88 819.381 2565.67 808.354C2561.4 797.35 2559.3 781.768 2559.3 761.61C2559.3 741.087 2561.33 725.274 2565.36 714.14C2569.42 703.031 2576.09 695.214 2585.4 690.689C2594.7 686.163 2607.85 683.9 2624.76 683.9C2639.63 683.9 2651.4 685.417 2660.06 688.426C2668.71 691.434 2675.01 696.654 2678.94 704.111C2682.9 711.542 2684.87 721.957 2684.87 735.327C2684.87 749.264 2680.89 759.243 2672.85 765.258C2664.86 771.273 2653.24 774.307 2638.01 774.307H2593.7C2594.08 784.105 2595.37 791.694 2597.63 797.065C2599.89 802.436 2603.89 806.346 2609.63 808.789C2615.38 811.231 2623.7 812.497 2634.62 812.497H2680.35V833.09C2670.17 834.992 2661.11 836.408 2653.09 837.359C2645.08 838.281 2635.9 838.775 2625.58 838.775C2608.88 838.723 2595.78 836.408 2586.24 831.801ZM2634.65 753.122C2641.43 753.122 2646.31 751.781 2649.35 749.19C2652.32 746.512 2653.87 741.91 2653.87 735.327C2653.87 725.53 2651.68 718.742 2647.34 714.988C2643.02 711.234 2635.49 709.331 2624.76 709.331C2616.69 709.331 2610.4 710.617 2606 713.136C2601.61 715.656 2598.37 720.054 2596.42 726.276C2594.44 732.499 2593.47 741.447 2593.47 753.122H2634.65Z" fill="black"/>
<path d="M2718.79 685.875H2747.29L2753.78 701.688C2760.74 696.442 2768.68 692.046 2777.63 688.549C2786.56 685.078 2795.46 683.329 2804.32 683.329C2820.89 683.329 2832.81 688.163 2840.15 697.883C2847.5 707.576 2851.2 720.433 2851.2 736.427V837.3H2816.19V740.695C2816.19 732.621 2813.93 726.27 2809.41 721.77C2804.89 717.27 2798.77 714.982 2791.06 714.982C2784.1 714.982 2777.68 716.036 2771.87 718.093C2766.06 720.15 2760.02 723.262 2753.81 727.401V837.3H2718.82V685.875H2718.79Z" fill="black"/>
<path d="M2908.04 825.419C2900.82 817.493 2897.35 804.152 2897.76 785.304L2898.86 714.076H2875.18V691.474L2900.02 685.817L2905.08 643.442H2932.47V685.817H2970.85V714.076H2932.47V784.997C2932.47 793.866 2934.08 800.009 2937.38 803.507C2940.69 807.006 2944.95 809.013 2950.22 809.575L2969.13 811.553V837.27H2943.98C2927.28 837.292 2915.28 833.337 2908.04 825.419Z" fill="black"/>
<path d="M3020.81 837.464C3008.94 836.438 3000.39 834.97 2995.12 833.067V812.474H3060.32C3068.05 812.474 3073.63 811.418 3077.13 809.358C3080.59 807.275 3082.34 803.035 3082.34 796.66V791.282C3082.34 786.188 3080.7 782.36 3077.38 779.843C3074.12 777.266 3068.8 776.038 3061.45 776.038H3038.59C3008.07 776.038 2992.86 762.763 2992.86 736.204V727.719C2992.86 713.037 2997.28 702.161 3006.14 695.089C3014.98 688.044 3029.93 684.495 3051 684.495C3059.48 684.495 3069.21 685.112 3080.23 686.321C3091.26 687.555 3099.76 688.918 3105.8 690.409V711.031H3044.24C3036.92 711.031 3031.5 712.317 3028.03 714.837C3024.54 717.409 3022.82 721.677 3022.82 727.694V733.068C3022.82 738.905 3024.58 742.813 3028.19 744.793C3031.76 746.773 3037.38 747.75 3045.09 747.75H3068.52C3083.01 747.75 3093.93 751.145 3101.28 757.932C3108.6 764.718 3112.27 774.315 3112.27 786.757V799.147C3112.27 813.86 3107.39 824.168 3097.6 830.086C3087.81 836.026 3073.14 839.007 3053.56 839.007C3043.55 839.03 3032.68 838.491 3020.81 837.464Z" fill="black"/>
<path d="M3144.01 836.161C3142.96 835.239 3142.45 834.003 3142.45 832.483V805.665C3142.45 802.069 3144.22 800.293 3147.82 800.293H3167.83C3171.4 800.293 3173.2 802.069 3173.2 805.665V832.483C3173.2 835.876 3171.4 837.576 3167.83 837.576H3147.82C3146.3 837.599 3145.04 837.142 3144.01 836.161Z" fill="black"/>
<path d="M2823.91 486.122C2825.77 486.122 2827.13 485.662 2827.92 484.743C2828.77 483.825 2829.16 481.79 2829.16 478.6C2829.16 476.041 2828.7 474.269 2827.79 473.284C2826.87 472.339 2825.55 471.841 2823.91 471.841H2811.49V486.122H2823.91ZM2795.79 457.533H2824.39C2838.03 457.533 2844.86 464.49 2844.86 478.443C2844.86 484.376 2843.95 488.878 2842.17 491.897C2840.36 494.916 2837.66 497.043 2834.09 498.29L2847.49 523.163H2831.79L2819.31 497.673H2811.49V523.163H2795.79V457.533ZM2836.39 532.417C2844.08 532.417 2850.05 529.136 2854.26 522.573C2858.46 516.01 2860.56 505.18 2860.56 490.125C2860.56 477.524 2859.05 467.417 2856.03 459.83C2853.01 452.256 2846.9 448.476 2837.77 448.476H2805.91C2797.83 448.476 2791.39 451.495 2786.69 457.533C2782 463.571 2779.64 474.439 2779.64 490.125C2779.64 502.949 2781.8 513.187 2786.14 520.866C2790.54 528.545 2797.11 532.417 2805.91 532.417H2836.39ZM2774.32 531.236C2767.38 520.971 2763.94 507.254 2763.94 490.125C2763.94 473.127 2766.96 459.541 2773.06 449.395C2779.18 439.261 2790.15 434.169 2805.91 434.169H2837.77C2852.22 434.169 2862.27 439.091 2867.85 448.936C2873.44 458.78 2876.26 472.497 2876.26 490.125C2876.26 508.895 2872.85 523.006 2866.02 532.483C2859.18 541.973 2849.79 546.698 2837.77 546.698H2805.91C2791.79 546.698 2781.21 541.54 2774.32 531.236Z" fill="black"/>
<path d="M2669.8 520.16L2652.48 422.101C2651.99 419.552 2650.43 417.758 2647.98 416.457C2645.59 415.261 2642.86 415.235 2640.2 416.093C2629.8 419.032 2619.11 421.295 2608.24 422.804C2597.21 424.364 2585.14 425.04 2572.16 425.04C2560.07 425.04 2548.49 423.558 2537.54 420.489C2526.72 417.55 2516.81 413.076 2508.02 407.276C2499.39 401.293 2492.26 393.646 2487.11 384.048C2481.93 374.789 2479.2 363.657 2479.2 350.729C2479.2 328.465 2487.32 310.648 2503.47 297.227C2519.62 283.883 2540.53 277.199 2566.28 277.199C2582.23 277.199 2595.28 278.291 2605.74 280.164C2616.27 282.089 2624.96 284.482 2632.06 286.875C2638.51 289.372 2642.88 287.083 2645.25 280.164L2668.24 181.429C2668.24 176.904 2665.98 173.991 2661.51 172.586C2643.56 167.072 2625.33 163.378 2607.07 161.74C2588.6 159.945 2572.16 159.035 2557.34 159.035C2514.06 159.035 2476.6 164.653 2445.28 175.525C2413.68 186.397 2387.83 200.963 2367.2 219.3C2346.65 237.559 2331.39 258.445 2321.19 282.037C2311.07 305.498 2306 329.973 2306 355.125C2306 384.517 2311.49 410.865 2322.44 434.3C2333.36 457.787 2348.97 478.023 2369.31 494.878C2389.44 511.68 2414.07 524.607 2442.68 533.347C2471.55 542.372 2503.86 546.794 2539.96 546.794C2564.59 546.794 2587.9 545.389 2609.72 542.736C2631.8 540.005 2650.01 535.48 2664.86 528.873C2669.26 527.052 2670.79 524.087 2669.8 520.16Z" fill="black"/>
<path d="M2137.09 125.026C2155.35 131.866 2174.39 132.725 2193.71 129.031C2214.55 125.026 2232.86 116.364 2247.56 102.085C2261.55 88.3254 2269.51 72.3812 2268.13 53.1857C2268.13 52.5355 2268.52 51.7552 2268.99 51.1309C2274.16 43.9261 2271.59 36.4872 2262.82 33.366C2262.09 33.1839 2261.21 32.6377 2260.92 32.0655C2252.78 19.3205 2240.77 10.8672 2225.78 5.50913C2204.48 -1.7477 2183.02 -1.35754 2163.41 3.89651C2143.36 9.56672 2127.49 18.098 2114.98 31.2332C2102.26 44.8365 2095.16 60.0524 2096.49 78.0514C2096.49 78.7537 2096.1 79.6381 2095.79 80.1843C2090.45 87.207 2093 94.6979 2101.87 97.9232C2102.52 98.1833 2103.43 98.8075 2103.9 99.4058C2111.68 111.422 2122.89 119.668 2137.09 125.026Z" fill="black"/>
<path d="M2262.36 159.084H2114.54C2107.96 159.084 2102.73 164.026 2102.73 169.905V174.352V176.979V181.453V524.631V528.975V531.758V536.05C2102.73 541.98 2107.96 546.818 2114.54 546.818H2262.36C2268.86 546.818 2274.17 541.954 2274.17 536.05V531.758V528.975V524.631V181.453V176.979V174.352V169.905C2274.17 164.026 2268.86 159.084 2262.36 159.084Z" fill="black"/>
<path d="M1997.47 421.635C1985.37 421.635 1975.57 411.829 1975.57 399.76V363.554V324.513V294.133L1975.62 294.029V283.573V280.426H2053.6C2057.06 280.426 2059.84 278.007 2059.84 274.886V167.125C2059.84 164.004 2057.06 161.559 2053.6 161.559H1975.62V79.9655C1975.62 76.8703 1972.91 74.3213 1969.38 74.3213L1816.49 130.711C1812.85 131.804 1810.14 133.364 1810.14 136.408V161.533H1766.76C1763.35 161.533 1760.62 163.978 1760.62 167.099V274.86C1760.62 277.981 1763.35 280.4 1766.76 280.4H1810.14V283.547V293.925V390.501C1810.14 444.29 1823.15 483.513 1849 507.858C1860.03 518.366 1875.17 527.47 1894.62 535.247C1913.74 542.92 1935.61 546.77 1960.01 546.77C1979.7 546.77 1997.91 545.599 2014.45 543.362C2030.97 541.229 2043.9 538.342 2053.21 534.883C2057.71 532.776 2059.84 530.097 2059.84 526.638V424.236C2059.84 423.169 2059.5 422.337 2059.24 421.479C2058.69 421.531 2058.15 421.661 2057.63 421.661H1997.47V421.635Z" fill="black"/>
<path d="M1728.26 168.158C1726.49 162.8 1719.7 160.849 1713.93 160.849C1684.93 160.849 1662.64 173.074 1662.64 173.074C1651.79 177.365 1641.93 183.478 1632.88 191.411V175.467V170.187C1632.88 164.178 1627.5 159.314 1620.81 159.314H1504.47H1483.3H1473.6C1466.89 159.314 1461.53 164.204 1461.53 170.187V175.441V530.765V536.045C1461.53 541.976 1466.89 546.996 1473.6 546.996H1483.3H1504.47H1620.81C1623.54 546.996 1625.96 546.111 1627.97 544.889C1630.75 543.718 1632.23 541.638 1632.67 538.334C1632.67 538.23 1632.67 538.048 1632.73 537.866C1632.73 537.502 1632.86 537.216 1632.86 536.774V302.214C1632.86 290.172 1642.66 280.418 1654.73 280.418H1702.88L1702.93 280.366H1722.49C1725.95 280.366 1728.65 277.921 1728.65 274.826V263.407V213.338C1728.65 203.922 1728.65 194.48 1728.65 185.064V171.253C1728.65 171.149 1728.65 171.019 1728.65 171.019V167.117L1728.26 168.158Z" fill="black"/>
<path d="M1373.93 212.326C1354.03 195.654 1329.79 182.779 1301.7 173.207C1273.5 163.947 1242.63 159.109 1209.18 159.109C1169.8 159.109 1135.05 164.129 1105.01 174.013C1074.86 183.975 1049.5 197.63 1029.06 215.265C1008.46 232.822 992.826 253.578 982.24 277.221C971.393 301.021 966.191 327.057 966.191 355.278C966.191 386.022 972.304 413.203 984.633 437.106C997.065 460.853 1013.79 480.907 1035.04 497.241C1056.47 513.576 1081.34 526.008 1109.48 534.358C1137.49 542.785 1167.9 546.999 1200.28 546.999C1233.08 546.999 1263.93 542.473 1292.62 533.577C1321.41 524.63 1346.64 511.885 1368.28 495.03C1389.9 478.098 1406.75 457.394 1419.11 432.996C1431.46 408.365 1437.63 380.222 1437.63 348.515C1437.63 320.892 1431.9 295.351 1420.77 272.097C1409.56 248.766 1393.95 228.921 1373.93 212.326ZM1248.92 419.289C1237.43 434.323 1221.59 441.866 1201.71 441.866C1179.45 441.866 1162.85 433.126 1152.42 415.569C1141.81 398.065 1136.43 377.387 1136.43 353.353C1136.43 342.325 1137.7 331.245 1140.1 320.294C1142.31 309.448 1146.08 299.85 1151.49 291.657C1156.74 283.36 1163.37 276.753 1171.7 271.681C1180.02 266.583 1190.22 264.164 1202.6 264.164C1224.29 264.164 1240.26 273.008 1250.59 290.877C1260.89 308.616 1265.96 329.502 1265.96 353.327C1265.98 382.068 1260.24 403.969 1248.92 419.289Z" fill="black"/>
<path d="M772.13 159.084C756.264 159.084 741.802 160.671 729.083 163.636C716.39 166.679 705.154 170.477 695.296 174.977C686.608 178.852 679.092 183.248 672.511 188.034V177.422C672.511 171.491 667.231 166.679 660.624 166.679H512.939C506.306 166.679 501 171.491 501 177.422V264.556C512.236 265.492 521.054 274.804 521.054 286.222V420.122C521.054 431.541 512.236 440.852 501 441.763V532.148V536.232C501 542.24 506.306 547 512.939 547H660.624C667.231 547 672.511 542.24 672.511 536.232V532.148V316.706C672.511 316.628 672.511 316.55 672.563 316.42H672.511V312.544C672.511 312.544 672.511 312.414 672.563 312.362C673.109 289.864 693.267 271.734 718.159 271.734C742.296 271.734 761.882 288.823 763.468 310.281C763.598 310.62 763.677 310.828 763.755 311.14V314.443H763.468C763.598 314.625 763.677 314.937 763.755 315.275V413.516V417.547V514.513V518.675V532.148V536.232C763.755 542.24 769.061 547 775.641 547H922.39C928.945 547 934.329 542.24 934.329 536.232V532.148V464.73V460.62V417.573V413.542V331.038V330.882V326.876V326.772C934.329 271.37 919.841 229.65 890.866 201.455C861.891 173.208 822.303 159.084 772.13 159.084Z" fill="black"/>
</g>
<defs>
<clipPath id="clip0_38_32">
<rect width="3177" height="839" fill="white"/>
</clipPath>
</defs>
</svg>
