<svg width="408" height="266" viewBox="0 0 408 266" fill="none" xmlns="http://www.w3.org/2000/svg">
<path d="M185.471 0C174.617 0 164.725 1.08536 156.024 3.11372C147.341 5.19547 139.655 7.7932 132.911 10.8713C126.969 13.5224 121.826 16.5294 117.325 19.8033V12.5438C117.325 8.48712 113.713 5.19547 109.194 5.19547H8.16684C3.62971 5.19547 0 8.48712 0 12.5438V72.1493C7.68644 72.7899 13.7182 79.1596 13.7182 86.9706V178.567C13.7182 186.378 7.68644 192.748 0 193.371V255.2V257.994C0 262.104 3.62971 265.36 8.16684 265.36H109.194C113.713 265.36 117.325 262.104 117.325 257.994V255.2V107.824C117.325 107.77 117.325 107.717 117.361 107.628H117.325V104.977C117.325 104.977 117.325 104.888 117.361 104.852C117.734 89.4616 131.523 77.0601 148.551 77.0601C165.063 77.0601 178.461 88.7499 179.546 103.429C179.635 103.66 179.688 103.803 179.742 104.016V106.276H179.546C179.635 106.4 179.688 106.614 179.742 106.845V174.048V176.806V243.137V245.984V255.2V257.994C179.742 262.104 183.371 265.36 187.873 265.36H288.259C292.743 265.36 296.426 262.104 296.426 257.994V255.2V209.082V206.271V176.824V174.066V117.627V117.521V114.781V114.709C296.426 76.811 286.516 48.2715 266.694 28.9843C246.873 9.66143 219.793 0 185.471 0Z" fill="black"/>
<path d="M372.026 223.539C373.301 223.539 374.228 223.225 374.766 222.597C375.35 221.968 375.62 220.576 375.62 218.394C375.62 216.644 375.305 215.431 374.676 214.758C374.048 214.111 373.149 213.77 372.026 213.77H363.532V223.539H372.026ZM352.792 203.983H372.357C381.687 203.983 386.359 208.742 386.359 218.287C386.359 222.345 385.731 225.425 384.516 227.49C383.276 229.555 381.434 231.01 378.99 231.863L388.156 248.878H377.417L368.879 231.441H363.532V248.878H352.792V203.983ZM380.564 255.209C385.821 255.209 389.909 252.964 392.785 248.474C395.661 243.985 397.099 236.577 397.099 226.278C397.099 217.658 396.066 210.744 393.998 205.554C391.932 200.373 387.754 197.787 381.507 197.787H359.713C354.186 197.787 349.783 199.853 346.564 203.983C343.357 208.113 341.74 215.548 341.74 226.278C341.74 235.051 343.221 242.054 346.187 247.307C349.198 252.56 353.692 255.209 359.713 255.209H380.564ZM338.1 254.4C333.354 247.379 331 237.996 331 226.278C331 214.65 333.066 205.357 337.244 198.416C341.424 191.484 348.929 188 359.713 188H381.507C391.393 188 398.268 191.367 402.087 198.102C405.906 204.836 407.839 214.219 407.839 226.278C407.839 239.118 405.501 248.771 400.828 255.254C396.156 261.745 389.73 264.978 381.507 264.978H359.713C350.052 264.978 342.816 261.449 338.1 254.4Z" fill="black"/>
</svg>
