<svg width="1625" height="639" viewBox="0 0 1625 639" fill="none" xmlns="http://www.w3.org/2000/svg">
<path d="M51.2897 557.511H24V543.215H94.4211V557.511H67.2603V638.231H51.2897V557.511Z" fill="black"/>
<path d="M106.197 557.629C105.716 557.196 105.482 556.645 105.482 555.954V544.236C105.482 543.463 105.693 542.842 106.126 542.373C106.548 541.893 107.158 541.659 107.931 541.659H120.035C120.808 541.659 121.382 541.893 121.769 542.373C122.156 542.842 122.343 543.463 122.343 544.236V555.954C122.343 557.5 121.57 558.274 120.023 558.274H107.919C107.24 558.274 106.665 558.063 106.197 557.629ZM105.869 569.218H121.828V638.233H105.869V569.218Z" fill="black"/>
<path d="M144.805 631.208C139.872 626.017 137.411 616.948 137.411 603.989C137.411 594.802 138.524 587.62 140.762 582.417C142.989 577.226 146.187 573.582 150.347 571.473C154.507 569.364 159.815 568.309 166.247 568.309C174.485 568.309 182.347 569.212 189.811 571.004V580.156H171.016C166.728 580.156 163.318 580.824 160.787 582.148C158.256 583.472 156.37 585.85 155.128 589.283C153.886 592.717 153.253 597.614 153.253 603.965C153.253 610.222 153.874 615.003 155.128 618.331C156.37 621.623 158.256 623.885 160.787 625.08C163.318 626.287 166.775 626.884 171.145 626.884H190.842V635.895C187.491 636.75 183.566 637.488 179.066 638.086C174.555 638.684 170.161 638.988 165.872 638.988C156.756 639 149.75 636.399 144.805 631.208Z" fill="black"/>
<path d="M203.837 540H219.796V594.45H228.561L245.809 569.223H262.166L240.278 601.668L263.971 638.238H247.613L228.315 608.745H219.82V638.238H203.861V540H203.837Z" fill="black"/>
<path d="M284.488 635.719C280.152 633.61 277.012 630.059 275.079 625.033C273.157 620.018 272.196 612.917 272.196 603.73C272.196 594.38 273.11 587.174 274.95 582.1C276.789 577.038 279.836 573.476 284.089 571.414C288.331 569.352 294.319 568.321 302.052 568.321C308.825 568.321 314.179 569.012 318.14 570.383C322.077 571.754 324.959 574.133 326.764 577.531C328.557 580.917 329.459 585.662 329.459 591.755C329.459 598.106 327.631 602.652 323.987 605.394C320.331 608.136 315.035 609.519 308.086 609.519H287.874C288.05 613.983 288.647 617.44 289.679 619.889C290.71 622.338 292.514 624.119 295.151 625.232C297.763 626.345 301.56 626.919 306.54 626.919H327.397V636.305C322.757 637.172 318.62 637.816 314.965 638.25C311.32 638.672 307.137 638.894 302.415 638.894C294.811 638.871 288.823 637.816 284.488 635.719ZM306.563 599.864C309.657 599.864 311.883 599.254 313.254 598.071C314.625 596.852 315.316 594.755 315.316 591.755C315.316 587.291 314.332 584.198 312.363 582.487C310.383 580.776 306.95 579.909 302.064 579.909C298.373 579.909 295.514 580.495 293.51 581.643C291.483 582.803 290.03 584.795 289.128 587.631C288.226 590.466 287.769 594.544 287.769 599.864H306.563Z" fill="black"/>
<path d="M353.619 632.809C350.315 629.2 348.757 623.119 348.921 614.53L349.448 582.073H338.621V571.773L349.952 569.196L352.272 549.885H364.751V569.196H382.256V582.073H364.751V614.389C364.751 618.432 365.501 621.232 367.012 622.826C368.5 624.419 370.457 625.333 372.859 625.591L381.483 626.493V638.211H370.023C362.395 638.222 356.924 636.418 353.619 632.809Z" fill="black"/>
<path d="M405.047 638.29C399.646 637.822 395.732 637.154 393.33 636.287V626.901H423.068C426.584 626.901 429.15 626.421 430.72 625.483C432.313 624.534 433.099 622.601 433.099 619.695V617.246C433.099 614.926 432.36 613.18 430.861 612.032C429.349 610.86 426.924 610.298 423.584 610.298H413.144C399.247 610.298 392.299 604.252 392.299 592.148V588.281C392.299 581.59 394.314 576.634 398.357 573.412C402.399 570.189 409.219 568.584 418.827 568.584C422.682 568.584 427.134 568.865 432.149 569.416C437.176 569.978 441.055 570.599 443.796 571.279V580.676H415.733C412.382 580.676 409.922 581.262 408.316 582.41C406.735 583.582 405.938 585.527 405.938 588.269V590.718C405.938 593.378 406.758 595.159 408.387 596.061C410.027 596.963 412.593 597.409 416.12 597.409H426.795C433.391 597.409 438.383 598.955 441.722 602.049C445.074 605.142 446.749 609.513 446.749 615.184V620.832C446.749 627.534 444.523 632.232 440.059 634.927C435.594 637.634 428.904 638.993 419.975 638.993C415.441 639.005 410.449 638.759 405.047 638.29Z" fill="black"/>
<path d="M517.569 557.511H490.28V543.215H560.701V557.511H533.54V638.231H517.581V557.511H517.569Z" fill="black"/>
<path d="M576.659 635.648C572.195 633.504 568.914 629.907 566.805 624.845C564.696 619.771 563.653 612.694 563.653 603.601C563.653 594.157 564.696 586.904 566.805 581.854C568.914 576.78 572.171 573.277 576.6 571.297C581.018 569.316 587.006 568.332 594.551 568.332C602.179 568.332 608.225 569.34 612.643 571.367C617.06 573.382 620.341 576.944 622.485 582.041C624.641 587.162 625.708 594.345 625.708 603.613C625.708 612.881 624.677 620.052 622.614 625.114C620.552 630.176 617.283 633.738 612.819 635.8C608.354 637.863 602.273 638.894 594.54 638.894C587.087 638.87 581.123 637.792 576.659 635.648ZM603.503 624.575C605.601 623.544 607.171 621.423 608.202 618.201C609.233 614.979 609.737 610.081 609.737 603.461C609.737 596.934 609.233 592.06 608.202 588.849C607.171 585.639 605.589 583.529 603.503 582.545C601.394 581.561 598.406 581.057 594.551 581.057C590.779 581.057 587.837 581.561 585.728 582.545C583.619 583.529 582.073 585.639 581.041 588.849C580.01 592.06 579.483 596.934 579.483 603.461C579.483 610.069 580.01 614.967 581.041 618.201C582.073 621.435 583.631 623.544 585.728 624.575C587.826 625.606 590.779 626.122 594.551 626.122C598.406 626.122 601.394 625.606 603.503 624.575Z" fill="black"/>
<path d="M686.017 633.331C681.693 629.652 678.681 624.297 677.006 617.314C675.319 610.307 674.499 601.413 674.499 590.586C674.499 579.525 675.459 570.538 677.381 563.625C679.326 556.712 682.759 551.439 687.681 547.783C692.625 544.127 699.609 542.311 708.608 542.311C719.083 542.311 729.593 543.6 740.151 546.178V558.411C736.975 557.977 732.687 557.579 727.332 557.192C721.965 556.805 716.622 556.618 711.303 556.618C705.549 556.618 701.202 557.696 698.249 559.84C695.273 561.984 693.234 565.453 692.133 570.269C691.02 575.084 690.446 581.904 690.446 590.739C690.446 599.761 691.02 606.639 692.133 611.408C693.246 616.177 695.121 619.493 697.734 621.391C700.359 623.266 704.155 624.215 709.135 624.215C712.662 624.215 716.177 623.887 719.681 623.184C723.207 622.493 726.336 621.684 729.089 620.747V598.859H709.908V586.485C712.474 586.157 715.779 585.841 719.821 585.595C723.852 585.349 727.812 585.208 731.667 585.208C736.811 585.208 741.064 585.349 744.404 585.595V638.252H732.441L730.249 631.679C726.898 633.566 722.914 635.241 718.286 636.694C713.646 638.159 708.889 638.897 703.991 638.897C696.34 638.873 690.352 637.022 686.017 633.331Z" fill="black"/>
<path d="M762.554 569.223H774.916L778.525 580.285C781.524 576.512 784.723 573.582 788.11 571.473C791.496 569.364 795.339 568.309 799.628 568.309C801.69 568.309 803.623 568.567 805.428 569.083V585.311C802.159 584.971 799.546 584.784 797.565 584.784C793.523 584.784 790.043 585.452 787.137 586.788C784.208 588.112 781.349 590.244 778.513 593.162V638.227H762.554V569.223Z" fill="black"/>
<path d="M828.018 635.719C823.683 633.61 820.543 630.059 818.61 625.033C816.688 620.018 815.727 612.917 815.727 603.73C815.727 594.38 816.641 587.174 818.481 582.1C820.32 577.038 823.367 573.476 827.62 571.414C831.862 569.352 837.849 568.321 845.583 568.321C852.355 568.321 857.71 569.012 861.671 570.383C865.608 571.754 868.49 574.133 870.295 577.531C872.087 580.917 872.99 585.662 872.99 591.755C872.99 598.106 871.162 602.652 867.518 605.394C863.862 608.136 858.566 609.519 851.617 609.519H831.405C831.581 613.983 832.178 617.44 833.209 619.889C834.24 622.338 836.045 624.119 838.681 625.232C841.294 626.345 845.091 626.919 850.07 626.919H870.927V636.305C866.287 637.172 862.151 637.816 858.495 638.25C854.851 638.672 850.668 638.894 845.946 638.894C838.341 638.871 832.342 637.816 828.018 635.719ZM850.094 599.864C853.187 599.864 855.414 599.254 856.784 598.071C858.155 596.852 858.847 594.755 858.847 591.755C858.847 587.291 857.863 584.198 855.894 582.487C853.914 580.776 850.481 579.909 845.594 579.909C841.903 579.909 839.045 580.495 837.041 581.643C835.014 582.803 833.561 584.795 832.659 587.631C831.756 590.466 831.299 594.544 831.299 599.864H850.094Z" fill="black"/>
<path d="M890.061 634.29C886.851 631.149 885.234 626.943 885.234 621.612V615.823C885.234 610.328 887.109 605.957 890.846 602.688C894.572 599.442 900.138 597.802 907.52 597.802H927.217V591.744C927.217 589.166 926.783 587.104 925.94 585.569C925.073 584.022 923.491 582.851 921.183 582.019C918.863 581.222 915.511 580.8 911.141 580.8H890.296V571.532C898.099 569.376 907.122 568.309 917.328 568.309C926.08 568.309 932.584 570.02 936.825 573.453C941.079 576.887 943.211 582.64 943.211 590.713V638.227H930.72L928.025 630.751C927.158 631.513 925.401 632.567 922.741 633.903C920.081 635.239 916.976 636.422 913.414 637.453C909.852 638.484 906.313 639 902.786 639C897.514 639 893.284 637.43 890.061 634.29ZM920.069 625.935C924.053 624.693 926.444 623.861 927.205 623.428V605.395L912.277 606.168C904.802 606.766 901.076 610.082 901.076 616.081V618.917C901.076 622.01 901.954 624.236 903.724 625.607C905.47 626.978 907.743 627.716 910.485 627.798C912.875 627.798 916.074 627.177 920.069 625.935Z" fill="black"/>
<path d="M968.979 632.809C965.674 629.2 964.116 623.119 964.28 614.53L964.807 582.073H953.98V571.773L965.311 569.196L967.631 549.885H980.11V569.196H997.616V582.073H980.11V614.389C980.11 618.432 980.86 621.232 982.372 622.826C983.86 624.419 985.817 625.333 988.219 625.591L996.842 626.493V638.211H985.383C977.755 638.222 972.295 636.418 968.979 632.809Z" fill="black"/>
<path d="M1052.91 634.88C1048.59 632.208 1046.41 626.854 1046.41 618.78V563.943C1046.41 556.644 1048.39 551.371 1052.33 548.102C1056.27 544.844 1061.04 543.215 1066.62 543.215C1074.69 543.215 1081.64 543.344 1087.49 543.602C1093.32 543.86 1100 544.211 1107.56 544.633V557.897H1071.66C1068.65 557.897 1066.33 558.647 1064.7 560.147C1063.07 561.647 1062.25 563.897 1062.25 566.896V583.757L1101.77 584.66V597.139L1062.25 598.053V614.398C1062.25 620.761 1065.34 623.913 1071.52 623.913H1107.56V637.188C1096.76 638.126 1083.7 638.676 1068.42 638.864C1062.42 638.876 1057.26 637.552 1052.91 634.88Z" fill="black"/>
<path d="M1117.23 569.225H1133.57L1150.83 623.429L1168.48 569.225H1184.69L1159.58 638.24H1141.31L1117.23 569.225Z" fill="black"/>
<path d="M1203.66 635.719C1199.34 633.61 1196.2 630.059 1194.28 625.033C1192.33 620.018 1191.37 612.917 1191.37 603.73C1191.37 594.38 1192.3 587.174 1194.14 582.1C1195.99 577.038 1199.04 573.476 1203.28 571.414C1207.52 569.352 1213.52 568.321 1221.23 568.321C1228.01 568.321 1233.38 569.012 1237.33 570.383C1241.28 571.754 1244.15 574.133 1245.94 577.531C1247.75 580.917 1248.65 585.662 1248.65 591.755C1248.65 598.106 1246.83 602.652 1243.16 605.394C1239.52 608.136 1234.22 609.519 1227.28 609.519H1207.06C1207.24 613.983 1207.82 617.44 1208.86 619.889C1209.89 622.338 1211.71 624.119 1214.33 625.232C1216.95 626.345 1220.75 626.919 1225.73 626.919H1246.59V636.305C1241.95 637.172 1237.81 637.816 1234.15 638.25C1230.5 638.672 1226.31 638.894 1221.6 638.894C1213.99 638.871 1208.01 637.816 1203.66 635.719ZM1225.74 599.864C1228.83 599.864 1231.06 599.254 1232.44 598.071C1233.8 596.852 1234.5 594.755 1234.5 591.755C1234.5 587.291 1233.51 584.198 1231.53 582.487C1229.56 580.776 1226.13 579.909 1221.23 579.909C1217.55 579.909 1214.68 580.495 1212.68 581.643C1210.67 582.792 1209.2 584.795 1208.3 587.631C1207.4 590.466 1206.96 594.544 1206.96 599.864H1225.74Z" fill="black"/>
<path d="M1264.11 569.218H1277.11L1280.07 576.424C1283.25 574.033 1286.87 572.03 1290.95 570.436C1295.02 568.854 1299.08 568.058 1303.12 568.058C1310.68 568.058 1316.12 570.26 1319.47 574.69C1322.82 579.107 1324.51 584.966 1324.51 592.254V638.221H1308.53V594.199C1308.53 590.52 1307.5 587.625 1305.44 585.575C1303.38 583.524 1300.59 582.482 1297.08 582.482C1293.9 582.482 1290.97 582.962 1288.32 583.899C1285.67 584.837 1282.92 586.254 1280.09 588.141V638.221H1264.13V569.218H1264.11Z" fill="black"/>
<path d="M1350.42 632.809C1347.13 629.2 1345.55 623.119 1345.74 614.53L1346.24 582.073H1335.44V571.773L1346.77 569.196L1349.08 549.885H1361.57V569.196H1379.07V582.073H1361.57V614.389C1361.57 618.432 1362.3 621.232 1363.8 622.826C1365.32 624.419 1367.26 625.333 1369.66 625.591L1378.29 626.493V638.211H1366.82C1359.2 638.222 1353.73 636.418 1350.42 632.809Z" fill="black"/>
<path d="M1401.86 638.29C1396.45 637.822 1392.55 637.154 1390.15 636.287V626.901H1419.88C1423.41 626.901 1425.95 626.421 1427.55 625.483C1429.13 624.534 1429.93 622.601 1429.93 619.695V617.246C1429.93 614.926 1429.18 613.18 1427.66 612.032C1426.18 610.86 1423.75 610.298 1420.4 610.298H1409.97C1396.05 610.298 1389.11 604.252 1389.11 592.148V588.281C1389.11 581.59 1391.13 576.634 1395.17 573.412C1399.2 570.201 1406.02 568.584 1415.63 568.584C1419.5 568.584 1423.94 568.865 1428.96 569.416C1433.99 569.978 1437.87 570.599 1440.62 571.279V580.676H1412.55C1409.21 580.676 1406.74 581.262 1405.16 582.41C1403.56 583.582 1402.78 585.527 1402.78 588.269V590.718C1402.78 593.378 1403.59 595.159 1405.23 596.061C1406.85 596.963 1409.42 597.409 1412.94 597.409H1423.62C1430.23 597.409 1435.21 598.955 1438.56 602.049C1441.9 605.142 1443.58 609.513 1443.58 615.184V620.832C1443.58 627.534 1441.35 632.232 1436.89 634.927C1432.42 637.634 1425.73 638.993 1416.8 638.993C1412.23 639.005 1407.28 638.759 1401.86 638.29Z" fill="black"/>
<path d="M1458.06 637.703C1457.58 637.281 1457.34 636.719 1457.34 636.028V623.806C1457.34 622.166 1458.15 621.358 1459.79 621.358H1468.92C1470.55 621.358 1471.37 622.166 1471.37 623.806V636.028C1471.37 637.574 1470.55 638.348 1468.92 638.348H1459.79C1459.1 638.359 1458.53 638.148 1458.06 637.703Z" fill="black"/>
<path d="M1589.03 332.539C1590.3 332.539 1591.23 332.225 1591.77 331.597C1592.35 330.968 1592.62 329.576 1592.62 327.394C1592.62 325.643 1592.3 324.431 1591.68 323.758C1591.05 323.111 1590.15 322.77 1589.03 322.77H1580.53V332.539H1589.03ZM1569.79 312.983H1589.36C1598.69 312.983 1603.36 317.742 1603.36 327.287C1603.36 331.345 1602.73 334.425 1601.52 336.49C1600.28 338.555 1598.43 340.01 1595.99 340.863L1605.16 357.878H1594.42L1585.88 340.441H1580.53V357.878H1569.79V312.983ZM1597.56 364.209C1602.82 364.209 1606.91 361.964 1609.79 357.474C1612.66 352.985 1614.1 345.577 1614.1 335.278C1614.1 326.658 1613.07 319.744 1611 314.554C1608.93 309.373 1604.75 306.787 1598.51 306.787H1576.71C1571.19 306.787 1566.78 308.853 1563.56 312.983C1560.36 317.113 1558.74 324.548 1558.74 335.278C1558.74 344.051 1560.22 351.054 1563.19 356.307C1566.2 361.56 1570.69 364.209 1576.71 364.209H1597.56ZM1555.1 363.4C1550.35 356.379 1548 346.996 1548 335.278C1548 323.65 1550.07 314.357 1554.24 307.416C1558.42 300.484 1565.93 297 1576.71 297H1598.51C1608.39 297 1615.27 300.367 1619.09 307.102C1622.91 313.836 1624.84 323.219 1624.84 335.278C1624.84 348.118 1622.5 357.771 1617.83 364.253C1613.16 370.745 1606.73 373.978 1598.51 373.978H1576.71C1567.05 373.978 1559.82 370.449 1555.1 363.4Z" fill="black"/>
<path d="M1483.61 355.824L1471.76 288.745C1471.42 287.001 1470.35 285.774 1468.68 284.884C1467.04 284.066 1465.17 284.048 1463.36 284.635C1456.24 286.646 1448.93 288.194 1441.49 289.226C1433.95 290.293 1425.69 290.756 1416.81 290.756C1408.54 290.756 1400.62 289.742 1393.13 287.642C1385.73 285.631 1378.95 282.571 1372.94 278.603C1367.03 274.511 1362.15 269.28 1358.63 262.714C1355.09 256.38 1353.22 248.765 1353.22 239.922C1353.22 224.691 1358.77 212.504 1369.82 203.322C1380.87 194.195 1395.18 189.622 1412.79 189.622C1423.7 189.622 1432.63 190.369 1439.78 191.651C1446.99 192.967 1452.93 194.604 1457.79 196.241C1462.2 197.949 1465.19 196.383 1466.81 191.651L1482.54 124.109C1482.54 121.014 1480.99 119.021 1477.93 118.06C1465.65 114.288 1453.18 111.761 1440.69 110.64C1428.06 109.413 1416.81 108.79 1406.67 108.79C1377.06 108.79 1351.44 112.633 1330.02 120.071C1308.4 127.508 1290.72 137.472 1276.61 150.016C1262.55 162.506 1252.11 176.794 1245.13 192.932C1238.21 208.981 1234.74 225.723 1234.74 242.929C1234.74 263.035 1238.49 281.059 1245.99 297.09C1253.46 313.157 1264.13 326.999 1278.05 338.529C1291.82 350.023 1308.67 358.866 1328.24 364.844C1347.99 371.018 1370.09 374.043 1394.79 374.043C1411.64 374.043 1427.58 373.082 1442.51 371.268C1457.61 369.399 1470.07 366.303 1480.23 361.784C1483.23 360.539 1484.28 358.51 1483.61 355.824Z" fill="black"/>
<path d="M1119.2 85.526C1131.69 90.2055 1144.71 90.7926 1157.93 88.2661C1172.18 85.526 1184.71 79.601 1194.76 69.8328C1204.33 60.4205 1209.78 49.5136 1208.83 36.3826C1208.83 35.9378 1209.1 35.404 1209.42 34.977C1212.96 30.0484 1211.2 24.9597 1205.2 22.8246C1204.71 22.7 1204.1 22.3264 1203.91 21.9349C1198.34 13.2165 1190.12 7.43391 1179.87 3.76862C1165.3 -1.19554 1150.62 -0.928651 1137.2 2.66547C1123.48 6.54427 1112.63 12.3803 1104.07 21.3656C1095.37 30.6712 1090.51 41.0799 1091.42 53.3924C1091.42 53.8728 1091.15 54.4778 1090.94 54.8514C1087.29 59.6554 1089.04 64.7797 1095.1 66.986C1095.55 67.1639 1096.17 67.591 1096.49 68.0002C1101.81 76.2204 1109.48 81.8607 1119.2 85.526Z" fill="black"/>
<path d="M1204.89 108.824H1103.77C1099.27 108.824 1095.69 112.205 1095.69 116.226V119.269V121.066V124.126V358.883V361.854V363.758V366.694C1095.69 370.75 1099.27 374.06 1103.77 374.06H1204.89C1209.33 374.06 1212.96 370.733 1212.96 366.694V363.758V361.854V358.883V124.126V121.066V119.269V116.226C1212.96 112.205 1209.33 108.824 1204.89 108.824Z" fill="black"/>
<path d="M1023.68 288.426C1015.41 288.426 1008.7 281.718 1008.7 273.462V248.695V221.988V201.206L1008.74 201.135V193.982V191.829H1062.08C1064.45 191.829 1066.35 190.175 1066.35 188.04V114.325C1066.35 112.189 1064.45 110.517 1062.08 110.517H1008.74V54.7013C1008.74 52.5839 1006.89 50.8403 1004.47 50.8403L899.882 89.4148C897.391 90.1621 895.541 91.2296 895.541 93.3114V110.499H865.863C863.532 110.499 861.664 112.172 861.664 114.307V188.022C861.664 190.157 863.532 191.812 865.863 191.812H895.541V193.965V201.064V267.128C895.541 303.923 904.437 330.755 922.123 347.409C929.667 354.597 940.023 360.824 953.331 366.144C966.409 371.393 981.373 374.026 998.062 374.026C1011.53 374.026 1023.99 373.226 1035.3 371.696C1046.6 370.237 1055.44 368.262 1061.81 365.895C1064.89 364.454 1066.35 362.621 1066.35 360.255V290.205C1066.35 289.476 1066.12 288.906 1065.94 288.319C1065.57 288.355 1065.19 288.444 1064.84 288.444H1023.68V288.426Z" fill="black"/>
<path d="M839.529 115.031C838.319 111.365 833.675 110.031 829.725 110.031C809.886 110.031 794.638 118.394 794.638 118.394C787.218 121.329 780.475 125.511 774.283 130.937V120.031V116.419C774.283 112.308 770.6 108.981 766.027 108.981H686.441H671.957H665.321C660.73 108.981 657.065 112.326 657.065 116.419V120.013V363.079V366.69C657.065 370.747 660.73 374.181 665.321 374.181H671.957H686.441H766.027C767.896 374.181 769.55 373.576 770.92 372.74C772.824 371.939 773.838 370.516 774.141 368.256C774.141 368.185 774.141 368.06 774.176 367.936C774.176 367.687 774.265 367.491 774.265 367.189V206.734C774.265 198.496 780.973 191.824 789.229 191.824H822.163L822.199 191.788H835.579C837.945 191.788 839.796 190.116 839.796 187.999V180.188V145.937C839.796 139.496 839.796 133.037 839.796 126.596V117.148C839.796 117.077 839.796 116.988 839.796 116.988V114.319L839.529 115.031Z" fill="black"/>
<path d="M597.14 145.245C583.529 133.84 566.946 125.033 547.73 118.485C528.443 112.151 507.323 108.841 484.441 108.841C457.503 108.841 433.732 112.275 413.182 119.037C392.56 125.851 375.212 135.192 361.227 147.256C347.135 159.266 336.442 173.465 329.2 189.638C321.781 205.918 318.222 223.729 318.222 243.034C318.222 264.065 322.403 282.658 330.837 299.01C339.342 315.254 350.783 328.973 365.319 340.146C379.981 351.32 396.99 359.825 416.242 365.536C435.405 371.301 456.204 374.184 478.356 374.184C500.793 374.184 521.895 371.088 541.52 365.003C561.217 358.882 578.476 350.164 593.279 338.634C608.065 327.051 619.595 312.888 628.046 296.198C636.498 279.349 640.714 260.097 640.714 238.408C640.714 219.512 636.8 202.04 629.185 186.133C621.516 170.173 610.841 156.597 597.14 145.245ZM511.629 286.822C503.764 297.106 492.929 302.266 479.335 302.266C464.104 302.266 452.753 296.287 445.618 284.277C438.358 272.303 434.675 258.158 434.675 241.717C434.675 234.173 435.547 226.593 437.184 219.103C438.696 211.683 441.276 205.118 444.977 199.513C448.571 193.837 453.108 189.318 458.802 185.848C464.496 182.361 471.471 180.706 479.94 180.706C494.779 180.706 505.704 186.756 512.767 198.979C519.813 211.114 523.283 225.401 523.283 241.699C523.301 261.36 519.368 276.342 511.629 286.822Z" fill="black"/>
<path d="M185.471 108.824C174.617 108.824 164.725 109.91 156.024 111.938C147.341 114.02 139.655 116.618 132.911 119.696C126.969 122.347 121.826 125.354 117.325 128.628V121.368C117.325 117.311 113.713 114.02 109.194 114.02H8.16684C3.62971 114.02 0 117.311 0 121.368V180.974C7.68644 181.614 13.7182 187.984 13.7182 195.795V287.392C13.7182 295.203 7.68644 301.572 0 302.195V364.025V366.818C0 370.928 3.62971 374.184 8.16684 374.184H109.194C113.713 374.184 117.325 370.928 117.325 366.818V364.025V216.648C117.325 216.595 117.325 216.541 117.361 216.452H117.325V213.801C117.325 213.801 117.325 213.712 117.361 213.677C117.734 198.286 131.523 185.884 148.551 185.884C165.063 185.884 178.461 197.574 179.546 212.253C179.635 212.485 179.688 212.627 179.742 212.84V215.1H179.546C179.635 215.225 179.688 215.438 179.742 215.669V282.872V285.63V351.961V354.808V364.025V366.818C179.742 370.928 183.371 374.184 187.873 374.184H288.259C292.743 374.184 296.426 370.928 296.426 366.818V364.025V317.906V315.095V285.648V282.89V226.452V226.345V223.605V223.534C296.426 185.635 286.516 157.096 266.694 137.809C246.873 118.486 219.793 108.824 185.471 108.824Z" fill="black"/>
</svg>
