<svg width="708" height="708" viewBox="0 0 708 708" fill="none" xmlns="http://www.w3.org/2000/svg">
<g clip-path="url(#clip0_6_311)">
<circle cx="354" cy="354" r="354" fill="white"/>
<path d="M391.471 221C380.617 221 370.725 222.085 362.024 224.114C353.341 226.195 345.655 228.793 338.911 231.871C332.969 234.522 327.826 237.529 323.325 240.803V233.544C323.325 229.487 319.713 226.195 315.194 226.195H214.167C209.63 226.195 206 229.487 206 233.544V293.149C213.686 293.79 219.718 300.16 219.718 307.971V399.567C219.718 407.378 213.686 413.748 206 414.371V476.2V478.994C206 483.104 209.63 486.36 214.167 486.36H315.194C319.713 486.36 323.325 483.104 323.325 478.994V476.2V328.824C323.325 328.77 323.325 328.717 323.361 328.628H323.325V325.977C323.325 325.977 323.325 325.888 323.361 325.852C323.734 310.462 337.523 298.06 354.551 298.06C371.063 298.06 384.461 309.75 385.546 324.429C385.635 324.66 385.688 324.803 385.742 325.016V327.276H385.546C385.635 327.4 385.688 327.614 385.742 327.845V395.048V397.806V464.137V466.984V476.2V478.994C385.742 483.104 389.371 486.36 393.873 486.36H494.259C498.743 486.36 502.426 483.104 502.426 478.994V476.2V430.082V427.271V397.824V395.066V338.627V338.521V335.781V335.709C502.426 297.811 492.516 269.272 472.694 249.984C452.873 230.661 425.793 221 391.471 221Z" fill="black"/>
</g>
<defs>
<clipPath id="clip0_6_311">
<rect width="708" height="708" fill="white"/>
</clipPath>
</defs>
</svg>
