<svg width="264" height="264" viewBox="0 0 264 264" fill="none" xmlns="http://www.w3.org/2000/svg">
<g clip-path="url(#clip0_10155_80888)">
<path d="M263.5 201.641H0.5V201.773H263.5V201.641Z" fill="#EBEBEB"/>
<path d="M237.148 210.108H225.745V210.239H237.148V210.108Z" fill="#EBEBEB"/>
<path d="M181.795 207.379H163.854V207.51H181.795V207.379Z" fill="#EBEBEB"/>
<path d="M232.524 205.223H209.104V205.355H232.524V205.223Z" fill="#EBEBEB"/>
<path d="M91.5058 207.875H85.6472V208.007H91.5058V207.875Z" fill="#EBEBEB"/>
<path d="M80.9643 207.875H60.7717V208.007H80.9643V207.875Z" fill="#EBEBEB"/>
<path d="M49.945 205.655H35.3774V205.786H49.945V205.655Z" fill="#EBEBEB"/>
<path d="M125.169 178.183H23.5993C21.944 178.183 20.5969 176.836 20.5969 175.18V32.4072C20.5969 30.7518 21.944 29.4048 23.5993 29.4048H125.169C126.824 29.4048 128.171 30.7518 128.171 32.4072V175.18C128.171 176.836 126.824 178.183 125.169 178.183ZM23.5993 29.5368C22.0161 29.5368 20.7284 30.8244 20.7284 32.4077V175.181C20.7284 176.764 22.0161 178.052 23.5993 178.052H125.169C126.752 178.052 128.04 176.764 128.04 175.181V32.4072C128.04 30.8244 126.752 29.5363 125.169 29.5363L23.5993 29.5368Z" fill="#EBEBEB"/>
<path d="M238.941 178.183H137.372C135.716 178.183 134.37 176.836 134.37 175.18V32.4072C134.37 30.7518 135.717 29.4048 137.372 29.4048H238.941C240.597 29.4048 241.943 30.7518 241.943 32.4072V175.18C241.944 176.836 240.597 178.183 238.941 178.183ZM137.372 29.5368C135.789 29.5368 134.501 30.8244 134.501 32.4077V175.181C134.501 176.764 135.789 178.052 137.372 178.052H238.941C240.524 178.052 241.812 176.764 241.812 175.181V32.4072C241.812 30.8244 240.524 29.5363 238.941 29.5363L137.372 29.5368Z" fill="#EBEBEB"/>
<path d="M114.154 106.162L114.391 99.2497L110.147 97.8631C109.972 95.5014 109.577 93.1691 109.015 90.922L112.612 88.2699L110.169 81.7775L105.72 82.1357C104.66 80.0365 103.413 78.0392 102.017 76.1656L104.321 72.319L99.5832 67.2636L95.6055 69.3003C93.814 67.7775 91.9257 66.3989 89.9042 65.1796L90.5486 60.7644L84.2376 57.9003L81.3462 61.2888C79.1433 60.5739 76.861 60.0395 74.4998 59.685L73.4247 55.3571L66.4941 55.1198L65.1254 59.3641C62.7453 59.5561 60.4314 59.9333 58.1849 60.4956L55.5138 56.9161L49.0219 59.3415L49.3807 63.791C47.2809 64.8693 45.2842 66.1148 43.4106 67.5119L39.5823 65.208L34.5085 69.9273L36.5447 73.9228C35.023 75.6964 33.6433 77.6037 32.4414 79.6257L28.0272 78.9634L25.1452 85.2733L28.5516 88.1653C27.8373 90.3687 27.2834 92.6689 26.9478 95.0127L22.601 96.1047L22.3643 103.017L26.6259 104.405C26.8 106.784 27.1956 109.099 27.7579 111.345L24.1616 113.997L26.6049 120.49L31.0538 120.131C32.1142 122.23 33.3603 124.227 34.7568 126.101L32.4519 129.948L37.1906 135.003L41.1677 132.966C42.9414 134.489 44.8481 135.869 46.8695 137.088L46.2068 141.502L52.5177 144.366L55.4276 140.978C57.6305 141.693 59.9128 142.227 62.2745 142.582L63.3496 146.909L70.2802 147.147L71.6494 142.902C74.029 142.71 76.3429 142.333 78.5894 141.771L81.2421 145.349L87.7339 142.924L87.3931 138.476C89.4934 137.398 91.4717 136.151 93.3632 134.754L97.192 137.059L102.265 132.339L100.23 128.344C101.751 126.57 103.131 124.663 104.333 122.641L108.747 123.304L111.629 116.993L108.222 114.101C108.937 111.898 109.49 109.617 109.826 107.255L114.154 106.162ZM67.4472 128.554C52.31 128.036 40.4566 115.341 40.9752 100.203C41.4943 85.0477 54.1888 73.1953 69.3261 73.7139C84.4633 74.2326 96.3167 86.926 95.7975 102.082C95.2789 117.219 82.5844 129.073 67.4472 128.554Z" fill="#EBEBEB"/>
<path d="M232.443 83.3045L234.187 81.6765L233.49 80.3037C234.024 79.6851 234.496 79.0202 234.907 78.3354L236.43 78.5658L237.418 76.3871L236.245 75.3898C236.499 74.6192 236.682 73.8286 236.798 73.0312L238.298 72.6551L238.376 70.2671L236.909 69.7937C236.843 68.9857 236.719 68.1888 236.524 67.3988L237.758 66.4793L236.917 64.2423L235.386 64.3633C235.023 63.6516 234.597 62.9646 234.108 62.3029L234.901 60.9853L233.269 59.2374L231.9 59.938C231.272 59.4041 230.616 58.9323 229.931 58.5215L230.153 56.9971L227.978 56.0056L226.981 57.1781C226.206 56.9288 225.416 56.7457 224.618 56.6295L224.246 55.1341L221.858 55.0478L221.38 56.5185C220.576 56.58 219.775 56.7084 218.989 56.9088L218.074 55.6711L215.833 56.5069L215.958 58.0428C215.246 58.4058 214.55 58.8318 213.897 59.3215L212.571 58.5278L210.828 60.1558L211.529 61.5334C210.991 62.1562 210.523 62.8168 210.112 63.5017L208.588 63.2713L207.6 65.4505L208.773 66.4478C208.519 67.2184 208.336 68.009 208.22 68.8064L206.72 69.1825L206.643 71.571L208.109 72.0439C208.171 72.8476 208.299 73.6493 208.494 74.4393L207.256 75.354L208.097 77.5911L209.633 77.4743C209.996 78.186 210.422 78.8724 210.912 79.5352L210.118 80.8528L211.751 82.6007L213.119 81.8996C213.746 82.4329 214.403 82.9053 215.088 83.3161L214.862 84.8357L217.036 85.8272L218.038 84.6595C218.813 84.9088 219.6 85.0871 220.401 85.2076L220.773 86.703L223.161 86.7893L223.639 85.3186C224.442 85.257 225.244 85.1287 226.03 84.9283L226.945 86.1665L229.186 85.3307L229.061 83.7947C229.772 83.4318 230.464 83.0105 231.122 82.5166L232.443 83.3045ZM220.021 73.2416C218.739 71.8682 218.813 69.7142 220.186 68.4319C221.561 67.1479 223.715 67.2215 224.997 68.5954C226.28 69.9688 226.206 72.1228 224.831 73.4068C223.458 74.6892 221.304 74.615 220.021 73.2416Z" fill="#EBEBEB"/>
<path d="M168.814 154.269L163.375 150.512C163.373 150.508 163.373 150.503 163.372 150.499C162.834 148.523 162.092 146.621 161.184 144.833L162.578 139.363L154.688 130.913L149.134 131.93C147.413 130.904 145.568 130.034 143.635 129.362C143.63 129.361 143.625 129.36 143.621 129.358L140.244 123.672L128.691 123.276L124.934 128.715C124.927 128.717 124.92 128.719 124.912 128.72C122.938 129.259 121.038 129.999 119.253 130.905L113.786 129.512L105.336 137.403L106.351 142.946C106.35 142.948 106.349 142.948 106.348 142.95C105.3 144.69 104.45 146.536 103.778 148.47L98.0931 151.845L97.697 163.4L103.141 167.159C103.679 169.149 104.398 171.047 105.322 172.85C105.323 172.851 105.323 172.851 105.323 172.852L103.934 178.304L111.824 186.753L117.343 185.744C119.085 186.773 120.934 187.645 122.89 188.317C122.892 188.318 122.893 188.318 122.895 188.318L126.266 193.996L137.82 194.392L141.574 188.956C143.571 188.419 145.474 187.678 147.281 186.769C147.281 186.769 147.283 186.769 147.283 186.768L152.725 188.155L161.175 180.265L160.16 174.721C161.208 172.982 162.058 171.134 162.73 169.2L162.73 169.199L168.417 165.822L168.814 154.269ZM132.809 171.832C125.627 171.586 120.016 165.556 120.261 158.395C120.508 151.213 126.517 145.602 133.699 145.847C140.881 146.094 146.491 152.103 146.246 159.285C146.001 166.446 139.991 172.078 132.809 171.832Z" fill="#EBEBEB"/>
<path d="M181.206 121.456C181.194 121.456 181.181 121.456 181.168 121.455L172.06 121.143C171.681 121.131 171.336 120.926 171.143 120.601L168.69 116.47C167.386 115.998 166.101 115.401 164.859 114.694L160.911 115.416C160.538 115.486 160.157 115.358 159.899 115.081L153.679 108.42C153.42 108.144 153.321 107.755 153.414 107.388L154.407 103.49C153.804 102.256 153.299 100.937 152.903 99.5611L148.942 96.8254C148.631 96.6107 148.45 96.2515 148.463 95.8738L148.775 86.7651C148.787 86.3869 148.992 86.0413 149.318 85.8483L153.455 83.3913C153.946 82.0479 154.541 80.7692 155.228 79.5789L154.502 75.6165C154.434 75.2446 154.56 74.8627 154.837 74.605L161.499 68.384C161.775 68.1252 162.165 68.0263 162.531 68.1194L166.442 69.1162C167.707 68.5008 169.021 67.9937 170.36 67.6061L173.094 63.6479C173.308 63.3365 173.661 63.144 174.046 63.1692L183.155 63.4817C183.533 63.4943 183.878 63.6989 184.071 64.0245L186.529 68.162C187.834 68.6402 189.109 69.2351 190.33 69.9357L194.304 69.2077C194.677 69.1399 195.057 69.2656 195.316 69.5423L201.536 76.2046C201.794 76.4812 201.894 76.8705 201.801 77.2371L200.803 81.1495C201.419 82.4151 201.926 83.729 202.314 85.0661L206.272 87.7992C206.584 88.0138 206.764 88.3731 206.751 88.7512L206.44 97.8605C206.427 98.2387 206.222 98.5843 205.897 98.7773L201.758 101.235C201.267 102.578 200.673 103.856 199.987 105.045L200.712 109.009C200.78 109.381 200.655 109.763 200.378 110.021L193.716 116.24C193.44 116.499 193.051 116.599 192.684 116.505L188.791 115.513C187.508 116.132 186.186 116.639 184.853 117.022L182.122 120.977C181.913 121.277 181.571 121.456 181.206 121.456ZM172.742 118.944L180.637 119.215L183.252 115.429C183.401 115.213 183.623 115.056 183.877 114.988C185.332 114.597 186.775 114.043 188.167 113.343C188.169 113.342 188.172 113.341 188.174 113.34C188.406 113.226 188.677 113.19 188.941 113.259L192.643 114.202L198.417 108.811L197.726 105.038C197.677 104.772 197.728 104.497 197.867 104.265C198.629 103.001 199.275 101.614 199.787 100.144C199.871 99.883 200.05 99.6637 200.282 99.5269L204.239 97.1767L204.51 89.2815L200.721 86.6646C200.523 86.5279 200.374 86.3301 200.298 86.1023C200.289 86.0739 200.28 86.0439 200.273 86.0134C199.877 84.5627 199.325 83.1373 198.635 81.7765C198.513 81.5361 198.483 81.26 198.549 80.9991L199.497 77.276L194.106 71.5011L190.324 72.1933C190.059 72.2422 189.786 72.1922 189.555 72.0544C188.24 71.2696 186.852 70.6211 185.428 70.1261C185.348 70.0982 185.266 70.0609 185.197 70.0183C185.043 69.9236 184.915 69.7937 184.824 69.639L182.471 65.6788L174.577 65.4079L171.96 69.1972C171.804 69.4229 171.571 69.5817 171.306 69.6454C169.845 70.0456 168.424 70.5948 167.07 71.2823C166.829 71.4043 166.552 71.4348 166.293 71.368L162.571 70.4191L156.797 75.8111L157.488 79.5841C157.532 79.8208 157.496 80.0654 157.389 80.2805C157.374 80.3111 157.357 80.3405 157.339 80.37C156.576 81.6387 155.929 83.0294 155.417 84.5038C155.331 84.751 155.16 84.9604 154.935 85.094L150.975 87.4457L150.705 95.3405L154.498 97.9599C154.714 98.1088 154.87 98.3302 154.939 98.5838C155.348 100.097 155.898 101.533 156.575 102.853C156.614 102.929 156.644 103.009 156.665 103.092C156.709 103.27 156.709 103.457 156.664 103.635L155.718 107.346L161.109 113.119L164.864 112.432C165.128 112.384 165.399 112.433 165.629 112.569C166.967 113.361 168.363 114.009 169.778 114.497C170.034 114.578 170.255 114.751 170.395 114.988L172.742 118.944ZM177.619 108.969C177.424 108.969 177.23 108.965 177.035 108.958C167.858 108.644 160.648 100.922 160.963 91.7458C161.277 82.5697 169.011 75.3619 178.175 75.6733C187.352 75.9879 194.561 83.709 194.247 92.8861C194.095 97.3256 192.222 101.444 188.973 104.48C185.864 107.387 181.851 108.969 177.619 108.969ZM177.599 77.8851C169.868 77.8851 163.45 84.0367 163.183 91.822C162.91 99.7741 169.158 106.465 177.111 106.738C180.964 106.867 184.638 105.492 187.457 102.858C190.272 100.225 191.896 96.657 192.027 92.8099C192.3 84.8578 186.051 78.166 178.099 77.8936C177.932 77.8883 177.765 77.8851 177.599 77.8851Z" fill="#EBEBEB"/>
<path d="M202.189 55.8999L198.415 54.8868L197.402 51.1138L198.88 49.6363L200.438 52.8638L203.666 54.4229L202.189 55.8999Z" fill="#E0E0E0"/>
<path d="M202.423 53.374C203.11 52.6866 203.11 51.5662 202.423 50.8787C201.735 50.1912 200.62 50.1965 199.933 50.8839L201.81 48.0683L204.327 49.3407L204.879 51.9859L202.423 53.374Z" fill="#E0E0E0"/>
<path d="M198.582 49.934L201.347 47.1688L205.12 48.1819L206.134 51.9554L203.369 54.7206L199.595 53.707L198.582 49.934ZM203.603 52.1948C204.29 51.5073 204.29 50.3869 203.603 49.6994C202.915 49.0119 201.8 49.0172 201.113 49.7047C200.425 50.3922 200.425 51.5025 201.113 52.1895C201.8 52.877 202.915 52.8822 203.603 52.1948Z" fill="#F0F0F0"/>
<path d="M47.9563 156.568L49.9808 156.025L50.5247 154L49.732 153.207L48.8957 154.939L47.1636 155.776L47.9563 156.568Z" fill="#E0E0E0"/>
<path d="M47.8306 155.213C47.4619 154.844 47.4619 154.243 47.8306 153.874C48.1993 153.505 48.7979 153.508 49.1666 153.876L48.1594 152.365L46.8086 153.048L46.5125 154.467L47.8306 155.213Z" fill="#E0E0E0"/>
<path d="M49.8919 153.367L48.4081 151.883L46.3835 152.427L45.8396 154.452L47.3234 155.936L49.348 155.392L49.8919 153.367ZM47.1972 154.58C46.8285 154.211 46.8285 153.61 47.1972 153.241C47.5659 152.872 48.1645 152.875 48.5332 153.244C48.902 153.612 48.902 154.208 48.5332 154.577C48.165 154.946 47.5665 154.949 47.1972 154.58Z" fill="#F0F0F0"/>
<path d="M40.6668 45.5582L42.3474 47.2388C42.785 47.6764 43.5009 47.6764 43.9386 47.2388C44.3762 46.8012 44.3762 46.0853 43.9386 45.6476L42.258 43.9671C41.8204 43.5294 41.1045 43.5294 40.6668 43.9671C40.2292 44.4047 40.2292 45.1211 40.6668 45.5582Z" fill="#F0F0F0"/>
<path d="M39.483 41.3728C40.778 40.9079 42.1819 41.5159 42.6185 42.7315C43.0551 43.9471 42.3592 45.3094 41.0642 45.7749C39.7691 46.2399 38.3653 45.6319 37.9287 44.4163C37.4921 43.2007 38.188 41.8383 39.483 41.3728Z" fill="#E0E0E0"/>
<path d="M37.6517 44.1358L37.8953 44.8139L42.8959 43.0179L42.6524 42.3397L37.6517 44.1358Z" fill="#F0F0F0"/>
<path d="M132 225.397C188.325 225.397 233.986 222.731 233.986 219.441C233.986 216.152 188.325 213.485 132 213.485C75.6749 213.485 30.0144 216.152 30.0144 219.441C30.0144 222.731 75.6749 225.397 132 225.397Z" fill="#F5F5F5"/>
<path d="M46.1126 63.9598C45.586 61.6438 45.8212 59.6939 46.8185 58.1091C47.8158 56.5253 49.4663 55.4717 51.7697 54.9478C54.1314 54.4108 56.095 54.6312 57.6609 55.609C59.2268 56.5863 60.2693 58.2169 60.7885 60.5014C61.1656 62.1598 61.1956 63.5832 60.879 64.7714C60.5618 65.9602 59.9432 66.9696 59.0227 67.7996C58.1017 68.6302 56.854 69.2235 55.2797 69.5817C53.6796 69.9457 52.2973 69.992 51.1327 69.7211C49.9681 69.4497 48.9346 68.8364 48.0319 67.8806C47.1293 66.9254 46.4892 65.6188 46.1126 63.9598ZM50.5015 62.983C50.8271 64.4158 51.3273 65.3842 52.0022 65.8886C52.6765 66.3941 53.4718 66.5414 54.3886 66.3331C55.3307 66.1196 55.9903 65.6472 56.3669 64.9171C56.7436 64.187 56.752 63.0277 56.3906 61.4408C56.0871 60.1053 55.5958 59.1906 54.9168 58.6961C54.2377 58.2027 53.4371 58.0607 52.5145 58.2706C51.6303 58.4715 50.9917 58.946 50.5983 59.6934C50.2048 60.4414 50.1728 61.5376 50.5015 62.983Z" fill="#263238"/>
<path d="M62.8798 62.2245C62.5232 60.657 62.7588 59.2442 63.5862 57.9871C64.4131 56.7299 65.7271 55.8967 67.5276 55.488C69.5858 55.0199 71.2764 55.2629 72.5998 56.2181C73.6633 56.9877 74.3556 58.0754 74.6754 59.482C75.0346 61.0636 74.8053 62.4775 73.9858 63.7257C73.1668 64.9739 71.8313 65.8087 69.9792 66.2295C68.3276 66.6051 66.8964 66.4899 65.686 65.8823C64.198 65.1286 63.2627 63.9093 62.8798 62.2245ZM66.8269 61.3177C67.0352 62.2335 67.3745 62.8689 67.8458 63.2239C68.3166 63.5785 68.8326 63.6915 69.3938 63.5637C69.9614 63.4343 70.3785 63.1124 70.6446 62.5969C70.9108 62.082 70.9355 61.3466 70.7188 60.3925C70.5163 59.502 70.1818 58.8802 69.7147 58.5283C69.2476 58.1764 68.7431 58.0618 68.2014 58.1854C67.627 58.3158 67.203 58.6451 66.9295 59.1722C66.6554 59.6987 66.6213 60.414 66.8269 61.3177Z" fill="#263238"/>
<path d="M78.6557 68.1257L75.4297 53.9358L79.1175 53.0969L79.4631 54.6165C79.8276 53.8622 80.1968 53.3241 80.5713 53.0011C81.0768 52.5677 81.678 52.271 82.375 52.1132C83.7494 51.8003 84.9319 52.0848 85.9229 52.9654C86.9138 53.8464 87.5856 55.0609 87.9374 56.61C88.3262 58.32 88.2131 59.7181 87.5982 60.8049C86.9833 61.8911 86.0502 62.577 84.7983 62.8615C84.1918 62.9993 83.6153 63.0219 83.0677 62.9288C82.5207 62.8357 82.0042 62.6317 81.5181 62.3145L82.6338 67.2215L78.6557 68.1257ZM80.554 58.2069C80.7386 59.0201 81.0468 59.5845 81.4782 59.9007C81.9095 60.2168 82.3866 60.3146 82.9094 60.1963C83.3676 60.0921 83.7089 59.816 83.9325 59.3684C84.156 58.9202 84.1655 58.2448 83.9604 57.3412C83.771 56.5085 83.4707 55.9341 83.0593 55.6174C82.648 55.2997 82.2098 55.1945 81.7454 55.2997C81.2425 55.4144 80.8675 55.7069 80.6213 56.1761C80.3751 56.6463 80.3525 57.3227 80.554 58.2069Z" fill="#263238"/>
<path d="M89.6227 58.5173L93.4494 57.2601C93.7161 57.6878 94.018 57.9692 94.3536 58.1038C94.6892 58.2374 95.0994 58.2495 95.5834 58.1396C96.112 58.0191 96.4965 57.8135 96.7358 57.5215C96.9236 57.3027 96.9888 57.0681 96.9315 56.8162C96.8673 56.5327 96.669 56.347 96.3371 56.2602C96.0994 56.1992 95.5039 56.1923 94.5513 56.2392C93.129 56.3123 92.1291 56.307 91.55 56.2255C90.9714 56.1429 90.4449 55.902 89.9704 55.5012C89.496 55.1009 89.1882 54.5907 89.0478 53.9721C88.8942 53.2951 88.9584 52.6676 89.2403 52.088C89.5228 51.5083 89.9815 51.0191 90.6169 50.6204C91.2523 50.2217 92.1507 49.8903 93.3121 49.6263C94.5382 49.3475 95.4645 49.236 96.0909 49.2896C96.7174 49.3443 97.2708 49.5237 97.7505 49.8283C98.2307 50.1333 98.6757 50.5915 99.086 51.2043L95.4334 52.4214C95.262 52.1137 95.0458 51.9086 94.7849 51.8055C94.4277 51.6687 94.0301 51.6503 93.5914 51.7508C93.1459 51.8518 92.8397 52.0043 92.6725 52.2084C92.5052 52.4125 92.4468 52.6276 92.4984 52.8533C92.5552 53.1047 92.7277 53.2652 93.0149 53.3351C93.3021 53.4061 93.8902 53.3935 94.778 53.3004C96.1214 53.1515 97.1429 53.1358 97.842 53.2552C98.5411 53.374 99.1154 53.6402 99.5657 54.0531C100.015 54.466 100.307 54.9657 100.441 55.5527C100.576 56.1461 100.528 56.7636 100.297 57.4053C100.066 58.0475 99.6036 58.6219 98.9077 59.1295C98.2123 59.6361 97.1998 60.0411 95.8706 60.3441C93.9927 60.7712 92.5941 60.8064 91.6757 60.4524C90.7573 60.0979 90.073 59.453 89.6227 58.5173Z" fill="#263238"/>
<path d="M102.465 45.5077L106.782 45.4835L106.801 48.7989L106.005 55.4638L103.335 55.4786L102.483 48.8231L102.465 45.5077ZM102.676 56.4948L106.705 56.4722L106.726 60.0353L102.696 60.0579L102.676 56.4948Z" fill="#263238"/>
<path d="M68.1856 90.7516C68.1541 90.7516 68.122 90.7458 68.0904 90.7337C65.7229 89.8169 64.3064 88.9211 63.571 87.8449C63.0366 87.9522 62.4386 87.8812 61.871 87.6114C61.3198 87.3494 60.789 86.8913 60.4082 86.2322C60.0531 86.5063 59.6145 86.581 59.1327 86.4295C58.5982 86.2617 58.0423 85.8114 57.5799 85.1613C57.2859 85.3738 56.9845 85.4059 56.7635 85.3875C55.1997 85.2602 53.081 82.1473 52.929 78.8298C52.9222 78.6852 53.0347 78.5616 53.1799 78.5558C53.3219 78.5437 53.4482 78.661 53.4545 78.8067C53.5986 81.9548 55.6158 84.7668 56.8067 84.8636C56.9997 84.8825 57.1612 84.822 57.2969 84.7168C56.5826 83.4634 56.2118 81.676 56.7588 79.7661C57.2112 78.1855 57.6109 77.5674 58.0906 77.6821C58.9969 77.9077 58.8781 81.3494 58.3978 83.6196C58.2889 84.1345 58.1322 84.5038 57.9534 84.7678C58.3684 85.3806 58.8602 85.793 59.291 85.9287C59.676 86.0497 59.9611 85.9471 60.1715 85.7467C59.7581 84.7284 59.6723 83.3408 60.2336 81.5708C60.9721 79.2411 61.2693 79.178 61.4471 79.1407C61.5722 79.1139 61.6974 79.1554 61.7863 79.2564C62.2723 79.805 61.6916 83.4234 61.0794 85.2128C60.9999 85.4453 60.9011 85.6489 60.7864 85.8214C61.113 86.4615 61.5943 86.8976 62.0977 87.1369C62.5017 87.3289 62.9162 87.3989 63.2933 87.3636C63.246 87.2642 63.2034 87.1632 63.165 87.0607C62.7478 85.9313 62.9519 84.6274 63.7883 83.0746C64.3432 82.0447 64.7956 81.5645 65.2122 81.564C65.3358 81.564 65.5677 81.6097 65.7313 81.9122C66.19 82.7585 65.8581 85.5516 64.9513 86.9376C64.7377 87.2642 64.4426 87.512 64.1002 87.6729C64.805 88.5997 66.1432 89.4161 68.2814 90.2451C68.4165 90.2977 68.4839 90.4497 68.4318 90.5849C68.3908 90.688 68.2908 90.7516 68.1856 90.7516ZM65.2116 82.0884C65.2101 82.0884 64.9144 82.0905 64.2506 83.3229C63.49 84.7352 63.2959 85.8977 63.6578 86.8771C63.702 86.997 63.7546 87.1138 63.8156 87.2295C64.0965 87.1091 64.3369 86.9134 64.5105 86.6488C65.2469 85.5226 65.5998 83.2098 65.3258 82.3056C65.2695 82.1205 65.2122 82.0884 65.2116 82.0884ZM61.4392 79.8723C61.3034 80.1275 61.0752 80.6529 60.7343 81.7286C60.283 83.153 60.2804 84.2976 60.5318 85.1729C60.5492 85.1287 60.5655 85.0845 60.5807 85.0408C61.1993 83.2324 61.5007 80.7413 61.4392 79.8723ZM57.9749 78.2155C57.886 78.297 57.6304 78.6284 57.2638 79.9097C56.7804 81.5997 57.0781 83.1414 57.6462 84.2471C57.7551 84.0188 57.8308 83.7558 57.8829 83.5096C58.4283 80.9265 58.2695 78.5894 57.9749 78.2155Z" fill="#263238"/>
<path d="M88.183 118.322C87.3809 118.322 86.5372 118.139 85.784 117.697C85.6588 117.623 85.6167 117.462 85.6903 117.337C85.7634 117.211 85.9249 117.17 86.0501 117.243C87.9264 118.345 90.3517 117.576 90.8509 116.773C90.9088 116.679 90.9619 116.559 90.9282 116.42C90.1861 116.498 89.2729 116.302 88.2293 115.649C86.8907 114.812 86.7876 114.563 86.796 114.364C86.8012 114.246 86.868 114.144 86.9753 114.089C87.4992 113.824 89.871 114.917 90.8599 115.567C90.9893 115.652 91.0987 115.745 91.187 115.842C91.6241 115.736 91.9629 115.509 92.188 115.24C92.3426 115.054 92.4457 114.852 92.4968 114.649C92.4621 114.655 92.4268 114.659 92.3916 114.662C91.5505 114.747 90.7068 114.386 89.8084 113.555C89.1909 112.985 88.951 112.591 89.031 112.279C89.0562 112.18 89.1393 112.003 89.4092 111.936C90.1366 111.755 91.9324 112.52 92.6667 113.325C92.8318 113.506 92.9444 113.719 93.0044 113.948C93.6908 113.626 94.4167 112.903 95.2762 111.702C95.3608 111.583 95.5249 111.556 95.6433 111.641C95.7616 111.725 95.7885 111.89 95.7043 112.008C94.7107 113.396 93.8823 114.183 93.0501 114.504C93.0175 114.875 92.8644 115.251 92.593 115.577C92.3263 115.897 91.9376 116.171 91.4458 116.319C91.4984 116.556 91.4511 116.807 91.2985 117.052C90.8541 117.765 89.5822 118.322 88.183 118.322ZM87.716 114.674C87.8927 114.805 88.1462 114.977 88.5081 115.204C89.2219 115.65 89.8578 115.856 90.4017 115.899C89.5301 115.359 88.3903 114.881 87.716 114.674ZM89.5517 112.44C89.5812 112.522 89.6979 112.738 90.165 113.17C90.9466 113.892 91.6578 114.214 92.3379 114.14C92.3937 114.134 92.45 114.126 92.5062 114.114C92.4689 113.955 92.3926 113.807 92.278 113.68C91.5379 112.869 89.911 112.355 89.5517 112.44Z" fill="#263238"/>
<path d="M95.1495 117.601L86.9534 119.089L79.5121 78.4758L63.6984 81.3483L37.9302 127.11L40.6969 142.21L73.7492 136.206L76.0121 148.557L91.8257 145.685L89.5629 133.334L97.759 131.845L95.1495 117.601ZM53.6755 125.135L67.3299 101.166L71.1402 121.962L53.6755 125.135Z" fill="#4457D0"/>
<path d="M161.156 75.7138C160.85 72.9081 160.29 70.4154 159.475 68.2351C158.66 66.0549 157.434 63.9177 155.798 61.8237C154.162 59.7297 151.934 57.9118 149.116 56.3712C146.296 54.8311 142.575 53.7586 137.952 53.1563C128.331 51.9028 120.83 53.6113 115.449 58.2795C110.067 62.9488 106.526 71.8929 104.825 85.1113C104.133 90.4876 103.961 95.4572 104.311 100.021C104.66 104.584 105.497 108.254 106.824 111.032C108.639 114.934 111.208 118.05 114.529 120.38C117.85 122.709 122.399 124.251 128.179 125.004C138.487 126.347 146.126 124.368 151.096 119.067C156.066 113.766 159.364 104.806 160.988 92.1876C161.713 86.5578 161.769 81.0669 161.156 75.7138Z" fill="#4457D0"/>
<path d="M132.929 119.604C131.664 119.561 130.318 119.446 128.928 119.265C124.113 118.638 120.387 117.419 117.854 115.642C115.354 113.889 113.463 111.583 112.072 108.59L112.046 108.536C111.035 106.42 110.374 103.406 110.081 99.5795C109.763 95.4304 109.926 90.8116 110.564 85.8498C112.442 71.2686 116.319 65.1848 119.242 62.6495C122.649 59.6934 127.248 58.3574 133.302 58.5646C134.542 58.6072 135.855 58.7182 137.205 58.8939C141.09 59.3999 144.164 60.2594 146.342 61.4487C148.451 62.6011 150.099 63.9261 151.239 65.3858C152.503 67.0038 153.451 68.6444 154.055 70.2613C154.698 71.9813 155.152 74.0269 155.405 76.3408C155.965 81.2373 155.912 86.3101 155.251 91.4486C153.792 102.778 150.975 110.739 146.877 115.109C143.837 118.351 139.275 119.822 132.93 119.604C132.929 119.604 132.929 119.604 132.929 119.604Z" fill="#263238"/>
<path d="M143.223 75.869L143.291 73.8765L142.068 73.4767C142.018 72.7961 141.904 72.1239 141.742 71.4758L142.779 70.7115L142.074 68.84L140.792 68.9431C140.486 68.3382 140.127 67.7623 139.725 67.2221L140.389 66.1133L139.023 64.6562L137.876 65.2433C137.36 64.8046 136.815 64.4069 136.233 64.0555L136.418 62.7826L134.599 61.9568L133.766 62.9336C133.131 62.7274 132.473 62.5733 131.793 62.4712L131.483 61.2236L129.485 61.1552L129.091 62.3787C128.404 62.4339 127.738 62.5428 127.09 62.7048L126.32 61.6733L124.449 62.3723L124.552 63.6547C123.947 63.9656 123.371 64.3243 122.831 64.7272L121.728 64.0634L120.265 65.4237L120.852 66.5751C120.414 67.0864 120.016 67.636 119.669 68.2188L118.397 68.0279L117.567 69.8468L118.549 70.6805C118.342 71.3159 118.183 71.9787 118.086 72.6541L116.833 72.9686L116.765 74.9611L117.993 75.3614C118.043 76.0473 118.157 76.7143 118.319 77.3618L117.282 78.126L117.987 79.9976L119.269 79.8939C119.575 80.4988 119.934 81.0748 120.336 81.615L119.672 82.7238L121.038 84.1814L122.184 83.5943C122.696 84.033 123.245 84.4307 123.827 84.7826L123.637 86.055L125.455 86.8808L126.294 85.904C126.929 86.1102 127.587 86.2643 128.268 86.3664L128.578 87.614L130.576 87.6824L130.97 86.4589C131.656 86.4037 132.323 86.2948 132.97 86.1328L133.735 87.1643L135.607 86.4653L135.508 85.1829C136.114 84.872 136.684 84.5127 137.229 84.1098L138.333 84.7742L139.795 83.4134L139.208 82.262C139.647 81.7507 140.045 81.201 140.391 80.6182L141.663 80.8092L142.494 78.9903L141.512 78.1566C141.718 77.5217 141.877 76.8636 141.974 76.183L143.223 75.869ZM129.76 82.3235C125.397 82.1741 121.98 78.5148 122.129 74.1516C122.279 69.7832 125.938 66.3668 130.301 66.5162C134.664 66.6656 138.081 70.3244 137.931 74.6928C137.782 79.056 134.123 82.4729 129.76 82.3235Z" fill="#4457D0"/>
<path opacity="0.3" d="M151.526 112.467L151.671 111.124L150.863 110.795C150.861 110.333 150.821 109.876 150.744 109.43L151.48 108.963L151.106 107.664L150.232 107.67C150.056 107.246 149.848 106.838 149.603 106.455L150.102 105.739L149.258 104.688L148.452 105.024C148.131 104.705 147.784 104.41 147.405 104.145L147.601 103.29L146.417 102.64L145.798 103.265C145.374 103.084 144.935 102.952 144.495 102.851L144.346 101.991L143.003 101.84L142.674 102.648C142.212 102.65 141.762 102.697 141.31 102.773L140.843 102.031L139.543 102.411L139.55 103.285C139.131 103.462 138.724 103.67 138.334 103.915L137.619 103.41L136.568 104.254L136.904 105.059C136.591 105.381 136.29 105.728 136.024 106.107L135.175 105.917L134.525 107.101L135.144 107.714C134.97 108.145 134.832 108.577 134.731 109.023L133.87 109.165L133.725 110.508L134.532 110.844C134.529 111.299 134.575 111.756 134.652 112.202L133.91 112.669L134.29 113.969L135.164 113.968C135.341 114.387 135.548 114.794 135.794 115.178L135.29 115.893L136.134 116.95L136.946 116.609C137.267 116.927 137.614 117.223 137.993 117.488L137.798 118.343L138.982 118.994L139.6 118.374C140.025 118.549 140.463 118.681 140.903 118.782L141.052 119.643L142.395 119.793L142.724 118.986C143.18 118.983 143.637 118.937 144.089 118.861L144.556 119.603L145.849 119.222L145.849 118.348C146.267 118.171 146.674 117.964 147.064 117.719L147.773 118.224L148.83 117.38L148.488 116.574C148.807 116.253 149.102 115.905 149.373 115.527L150.222 115.716L150.872 114.532L150.253 113.92C150.427 113.489 150.559 113.056 150.66 112.616L151.526 112.467ZM144.755 111.946C144.131 113.081 142.701 113.501 141.565 112.877C140.43 112.253 140.017 110.823 140.641 109.688C141.265 108.552 142.688 108.139 143.824 108.762C144.96 109.386 145.378 110.81 144.755 111.946Z" fill="#4457D0"/>
<path d="M158.979 89.7354L157.411 88.6523C157.41 88.6513 157.41 88.6497 157.409 88.6487C157.254 88.079 157.04 87.5309 156.779 87.0154L157.181 85.439L154.906 83.0031L153.306 83.2961C152.81 82.9999 152.278 82.7496 151.721 82.556C151.72 82.5555 151.718 82.5555 151.717 82.555L150.743 80.9159L147.413 80.8018L146.33 82.3698C146.328 82.3703 146.326 82.3709 146.324 82.3714C145.755 82.5265 145.207 82.7401 144.692 83.001L143.116 82.5991L140.681 84.8736L140.974 86.4715C140.973 86.4721 140.973 86.4726 140.972 86.4731C140.671 86.9744 140.425 87.5067 140.232 88.0643L138.593 89.0374L138.479 92.3675L140.048 93.451C140.203 94.0244 140.411 94.5714 140.677 95.0911C140.677 95.0916 140.677 95.0916 140.677 95.0916L140.277 96.6633L142.55 99.0987L144.142 98.8078C144.643 99.1045 145.176 99.3559 145.741 99.5495C145.741 99.55 145.742 99.55 145.742 99.55L146.714 101.186L150.044 101.301L151.126 99.7336C151.701 99.5789 152.25 99.3649 152.771 99.1029C152.771 99.1029 152.772 99.1029 152.772 99.1024L154.34 99.5021L156.776 97.2282L156.483 95.6303C156.785 95.129 157.03 94.5961 157.224 94.0391L158.863 93.065L158.979 89.7354ZM148.6 94.7981C146.53 94.7271 144.913 92.9892 144.983 90.9252C145.054 88.8548 146.786 87.2379 148.856 87.3084C150.927 87.3794 152.543 89.1115 152.473 91.1813C152.402 93.2454 150.67 94.8691 148.6 94.7981Z" fill="white"/>
<path d="M170.421 63.1592L170.695 62.4981C170.695 62.4981 170.696 62.4975 170.696 62.4975C170.893 62.396 171.078 62.274 171.246 62.1372L171.857 62.1604L172.572 61.1336L172.339 60.5687C172.408 60.3635 172.459 60.1484 172.486 59.9285C172.486 59.928 172.486 59.9275 172.486 59.927L173.011 59.4404L172.79 58.2085L172.129 57.9345C172.128 57.934 172.128 57.9329 172.128 57.9324C172.026 57.7356 171.905 57.5515 171.768 57.3827L171.791 56.7725L170.765 56.0572L170.201 56.2902H170.2C169.992 56.2187 169.778 56.1708 169.558 56.1434L169.071 55.6185L167.839 55.8389L167.565 56.5006C167.367 56.6026 167.182 56.722 167.012 56.8609L166.404 56.8378L165.689 57.8645L165.921 58.4258C165.851 58.6335 165.801 58.8487 165.774 59.0712L165.25 59.5572L165.47 60.7891L166.131 61.0631C166.233 61.2625 166.355 61.4471 166.492 61.6175L166.469 62.2251L167.496 62.9404L168.06 62.7069C168.268 62.7784 168.483 62.8263 168.703 62.8536L169.189 63.3791L170.421 63.1592ZM167.744 59.7471C167.607 58.9812 168.118 58.2506 168.881 58.1138C169.647 57.9771 170.377 58.4852 170.514 59.2511C170.651 60.0169 170.142 60.747 169.377 60.8843C168.614 61.021 167.881 60.5129 167.744 59.7471Z" fill="#4457D0"/>
<path d="M155.989 59.6692L155.587 59.3299C156.286 58.5031 157.276 57.4553 158.748 56.6847L158.992 57.1513C157.423 57.9723 156.418 59.1616 155.989 59.6692Z" fill="#4457D0"/>
<path d="M160.189 56.6779L159.981 56.1939C161.971 55.3418 164.05 55.0094 166.156 55.2051L166.107 55.729C164.087 55.5364 162.097 55.8594 160.189 56.6779Z" fill="#4457D0"/>
<path d="M159.196 60.3167L158.761 60.0206C159.842 58.4336 161.977 57.0518 163.953 56.66L164.055 57.1755C162.203 57.5437 160.205 58.835 159.196 60.3167Z" fill="#4457D0"/>
<path d="M124.29 110.937C124.22 110.937 124.152 110.909 124.102 110.857L122.999 109.721C122.437 109.668 121.881 109.565 121.344 109.413L119.625 110.17C119.543 110.208 119.449 110.198 119.373 110.149L116.494 108.24C116.419 108.19 116.375 108.106 116.376 108.017L116.404 106.142C116.054 105.707 115.742 105.234 115.475 104.734L114 104.162C113.916 104.129 113.855 104.057 113.837 103.969L113.15 100.583C113.132 100.495 113.161 100.404 113.225 100.342L114.362 99.2392C114.414 98.68 114.517 98.124 114.669 97.5828L113.912 95.8659C113.876 95.7839 113.884 95.6892 113.933 95.614L115.842 92.7336C115.891 92.6589 115.962 92.6126 116.065 92.6158L117.938 92.6447C118.378 92.2933 118.852 91.9814 119.348 91.7163L119.92 90.2398C119.953 90.1562 120.025 90.0952 120.113 90.0768L123.499 89.3898C123.587 89.373 123.678 89.4003 123.74 89.4645L124.842 90.6001C125.401 90.6527 125.958 90.7564 126.5 90.9078L128.217 90.1509C128.298 90.1152 128.393 90.123 128.468 90.1725L131.348 92.0813C131.422 92.1313 131.467 92.215 131.466 92.3049L131.437 94.1801C131.788 94.6161 132.099 95.089 132.365 95.5871L133.842 96.16C133.925 96.1926 133.986 96.2646 134.005 96.3525L134.691 99.7389C134.709 99.8267 134.681 99.9177 134.616 99.9803L133.479 101.083C133.427 101.636 133.324 102.191 133.171 102.737L133.929 104.456C133.966 104.538 133.957 104.633 133.908 104.708L132 107.589C131.951 107.664 131.872 107.701 131.777 107.707L129.903 107.678C129.466 108.027 128.993 108.337 128.496 108.604L127.922 110.083C127.89 110.167 127.817 110.228 127.729 110.246L124.343 110.933C124.325 110.936 124.308 110.937 124.29 110.937ZM121.325 108.87C121.35 108.87 121.375 108.874 121.4 108.881C121.963 109.046 122.548 109.156 123.141 109.205C123.205 109.211 123.264 109.238 123.308 109.284L124.379 110.388L127.483 109.759L128.041 108.322C128.064 108.262 128.108 108.213 128.164 108.183C128.692 107.908 129.19 107.581 129.645 107.21C129.693 107.171 129.747 107.144 129.815 107.151L131.641 107.179L133.391 104.538L132.652 102.863C132.628 102.807 132.623 102.743 132.641 102.683C132.807 102.11 132.916 101.524 132.965 100.942C132.97 100.878 132.998 100.819 133.044 100.775L134.148 99.7036L133.519 96.5997L132.084 96.0432C132.023 96.0195 131.973 95.9743 131.944 95.9159C131.67 95.3899 131.343 94.8939 130.97 94.4399C130.931 94.3915 130.909 94.3311 130.91 94.269L130.938 92.4417L128.297 90.6917L126.627 91.4281C126.57 91.4528 126.507 91.457 126.448 91.4402C125.877 91.2745 125.289 91.1651 124.7 91.1161C124.636 91.1109 124.577 91.0825 124.533 91.0378L123.464 89.9347L120.359 90.5644L119.803 91.9988C119.78 92.0582 119.736 92.1076 119.679 92.1371C119.155 92.4101 118.656 92.7383 118.198 93.1123C118.15 93.1512 118.086 93.1791 118.027 93.1723L116.202 93.1439L114.452 95.7844L115.189 97.4565C115.221 97.5286 115.219 97.6107 115.184 97.6806C115.035 98.2061 114.927 98.7926 114.877 99.3812C114.872 99.4443 114.844 99.5032 114.798 99.5479L113.695 100.618L114.324 103.722L115.758 104.278C115.822 104.303 115.873 104.352 115.901 104.413C116.174 104.935 116.501 105.431 116.871 105.881C116.911 105.93 116.933 105.991 116.932 106.053L116.904 107.88L119.544 109.63L121.219 108.892C121.253 108.878 121.289 108.87 121.325 108.87ZM123.912 107.169C122.583 107.169 121.239 106.792 120.05 106.004C118.49 104.97 117.425 103.39 117.052 101.556C116.679 99.721 117.044 97.851 118.078 96.2904H118.078C120.217 93.0686 124.576 92.1839 127.795 94.3179C131.015 96.455 131.899 100.814 129.765 104.035C128.417 106.067 126.185 107.169 123.912 107.169ZM118.517 96.5813C117.56 98.0241 117.223 99.7536 117.568 101.451C117.913 103.148 118.897 104.609 120.341 105.565C123.322 107.54 127.352 106.723 129.325 103.744C131.3 100.765 130.483 96.7328 127.504 94.7566C124.526 92.7825 120.494 93.601 118.517 96.5813Z" fill="white"/>
<path d="M224.485 122.348L216.229 121.234L221.689 80.3068L205.761 78.1576L167.125 113.729L165.095 128.946L198.387 133.439L196.727 145.885L212.654 148.034L214.314 135.588L222.57 136.702L224.485 122.348ZM182.711 116.71L203.097 98.1277L200.302 119.084L182.711 116.71Z" fill="#4457D0"/>
<path d="M207.815 147.644C207.799 147.644 207.783 147.642 207.767 147.64C207.625 147.613 207.53 147.476 207.556 147.333L219.825 80.0422C219.851 79.9002 219.989 79.8108 220.131 79.8308C220.274 79.8571 220.369 79.9944 220.342 80.1369L208.073 147.428C208.05 147.555 207.939 147.644 207.815 147.644Z" fill="#263238"/>
<path d="M218.701 81.1726C218.693 81.4104 218.493 81.5966 218.256 81.5887C218.018 81.5803 217.832 81.3809 217.84 81.1432C217.847 80.9054 218.047 80.7192 218.285 80.7271C218.523 80.735 218.71 80.9344 218.701 81.1726Z" fill="#263238"/>
<path d="M216.948 90.273C216.94 90.5107 216.741 90.6969 216.503 90.689C216.265 90.6811 216.079 90.4813 216.087 90.2435C216.095 90.0058 216.295 89.8196 216.532 89.8275C216.77 89.8353 216.956 90.0347 216.948 90.273Z" fill="#263238"/>
<path d="M215.195 99.3728C215.187 99.6105 214.988 99.7967 214.75 99.7888C214.512 99.7809 214.326 99.5811 214.334 99.3433C214.342 99.1056 214.541 98.9194 214.779 98.9272C215.018 98.9357 215.204 99.135 215.195 99.3728Z" fill="#263238"/>
<path d="M211.749 108.847C211.74 109.084 211.541 109.271 211.303 109.263C211.065 109.254 210.879 109.055 210.887 108.817C210.895 108.579 211.095 108.393 211.332 108.401C211.57 108.409 211.757 108.608 211.749 108.847Z" fill="#263238"/>
<path d="M211.69 117.573C211.681 117.811 211.482 117.997 211.244 117.989C211.006 117.981 210.82 117.782 210.828 117.544C210.836 117.306 211.036 117.12 211.274 117.128C211.512 117.136 211.698 117.336 211.69 117.573Z" fill="#263238"/>
<path d="M209.937 126.674C209.929 126.911 209.729 127.098 209.491 127.09C209.254 127.082 209.068 126.882 209.075 126.644C209.083 126.407 209.283 126.22 209.521 126.228C209.759 126.236 209.945 126.435 209.937 126.674Z" fill="#263238"/>
<path d="M208.184 135.774C208.175 136.012 207.976 136.198 207.738 136.19C207.501 136.182 207.314 135.982 207.322 135.745C207.331 135.507 207.53 135.321 207.768 135.329C208.006 135.336 208.192 135.536 208.184 135.774Z" fill="#263238"/>
<path d="M206.431 144.874C206.423 145.112 206.223 145.298 205.986 145.29C205.748 145.282 205.562 145.082 205.57 144.844C205.577 144.607 205.777 144.42 206.015 144.428C206.253 144.436 206.439 144.636 206.431 144.874Z" fill="#263238"/>
<path d="M211.318 109.095C211.197 109.095 211.087 109.011 211.061 108.887C211.031 108.744 211.121 108.605 211.263 108.574L212.57 108.294C212.714 108.265 212.852 108.353 212.882 108.496C212.913 108.638 212.822 108.778 212.68 108.809L211.374 109.089C211.355 109.093 211.336 109.095 211.318 109.095Z" fill="#263238"/>
<path d="M215.679 104.249C215.679 104.249 214.502 107.315 214.106 109.173C213.709 111.031 213.685 115.182 213.685 115.182" fill="#263238"/>
<path d="M213.685 115.445H213.684C213.539 115.444 213.421 115.325 213.422 115.18C213.423 115.01 213.451 110.981 213.848 109.117C214.245 107.261 215.385 104.281 215.433 104.154C215.485 104.019 215.637 103.952 215.773 104.003C215.909 104.055 215.977 104.208 215.925 104.343C215.913 104.374 214.751 107.412 214.363 109.227C213.977 111.038 213.949 115.142 213.948 115.183C213.947 115.328 213.83 115.445 213.685 115.445Z" fill="#263238"/>
<path d="M117.51 160.846C118.24 149.062 116.896 127.642 139.046 130.477C162.787 133.516 155.995 161.278 155.995 161.278L117.51 160.846Z" fill="#263238"/>
<path d="M132.796 153.763C138.134 153.763 142.462 149.436 142.462 144.098C142.462 138.76 138.134 134.433 132.796 134.433C127.458 134.433 123.131 138.76 123.131 144.098C123.131 149.436 127.458 153.763 132.796 153.763Z" fill="white"/>
<path d="M134.065 134.448C129.487 133.666 124.592 137.041 124.11 140.46L142.261 142.129C141.621 138.232 137.698 135.068 134.065 134.448Z" fill="#263238"/>
<path d="M140.193 143.858C140.063 146.385 138.686 148.368 137.117 148.287C135.548 148.207 134.381 146.093 134.511 143.566C134.64 141.039 136.018 139.056 137.587 139.136C139.156 139.217 140.323 141.331 140.193 143.858Z" fill="#263238"/>
<path d="M132.796 154.289C127.176 154.289 122.604 149.718 122.604 144.098C122.604 138.478 127.176 133.907 132.796 133.907C138.416 133.907 142.988 138.478 142.988 144.098C142.988 149.718 138.416 154.289 132.796 154.289ZM132.796 134.959C127.757 134.959 123.656 139.058 123.656 144.098C123.656 149.138 127.756 153.237 132.796 153.237C137.836 153.237 141.936 149.138 141.936 144.098C141.936 139.058 137.835 134.959 132.796 134.959Z" fill="#4457D0"/>
<path opacity="0.3" d="M153.295 160.55C153.275 160.55 153.254 160.547 153.233 160.542C153.092 160.508 153.005 160.366 153.039 160.225C153.056 160.154 154.732 153.022 152.992 145.811C152.957 145.67 153.044 145.528 153.186 145.493C153.325 145.461 153.469 145.546 153.503 145.687C155.274 153.025 153.568 160.275 153.55 160.348C153.521 160.469 153.414 160.55 153.295 160.55Z" fill="white"/>
<path opacity="0.3" d="M151.829 141.867C151.729 141.867 151.634 141.81 151.59 141.714C150.913 140.238 150.074 138.883 149.095 137.686C149.003 137.573 149.02 137.408 149.133 137.316C149.245 137.224 149.41 137.24 149.503 137.353C150.51 138.584 151.373 139.978 152.068 141.495C152.128 141.627 152.07 141.783 151.938 141.843C151.903 141.859 151.866 141.867 151.829 141.867Z" fill="white"/>
<path d="M68.2145 216.117C68.1493 216.117 68.084 216.116 68.0188 216.114C66.5671 216.074 65.4225 214.865 65.4619 213.413C65.5014 211.961 66.6975 210.838 68.1629 210.856C68.1792 210.857 68.1961 210.857 68.2134 210.857C69.733 210.857 73.3887 209.011 81.0363 196.955C81.4471 196.308 82.1203 195.871 82.8788 195.761C83.6389 195.653 84.4069 195.878 84.9855 196.381C94.4224 204.61 104.423 209.731 104.523 209.782C105.818 210.44 106.335 212.023 105.677 213.318C105.02 214.613 103.438 215.131 102.143 214.473C101.746 214.271 93.0043 209.802 83.8393 202.298C77.4295 211.934 72.6729 216.117 68.2145 216.117Z" fill="#263238"/>
<path d="M84.4863 195.909C84.4116 195.909 84.337 195.904 84.2612 195.893C83.3986 195.77 82.7989 194.971 82.9225 194.107C83.2965 191.49 82.8331 181.68 79.5167 174.053C79.2142 173.358 79.4488 172.547 80.0753 172.12C87.2804 167.209 102.628 166.622 103.278 166.6C104.145 166.581 104.879 167.251 104.91 168.122C104.94 168.993 104.259 169.724 103.388 169.754C103.246 169.759 89.8279 170.273 82.9331 174.068C85.8702 181.662 86.5362 191.13 86.0465 194.554C85.9339 195.341 85.259 195.909 84.4863 195.909Z" fill="#263238"/>
<path d="M87.1373 193.866C86.0879 191.391 81.3576 191.672 78.5803 193.793C77.096 194.927 75.0872 198.339 74.8757 199.575C74.6648 200.811 75.5211 201.931 76.9918 201.804C78.8055 201.647 81.295 199.011 81.295 199.011C79.6386 200.636 81.7758 201.782 84.9649 199.433C86.7344 198.13 88.3124 196.638 87.1373 193.866Z" fill="#4457D0"/>
<path d="M177.607 161.541C177.583 161.541 177.559 161.538 177.535 161.53C177.395 161.49 177.314 161.344 177.355 161.205C178.055 158.764 178.821 157.273 179.827 156.444C179.673 155.92 179.69 155.319 179.907 154.73C180.119 154.157 180.528 153.588 181.15 153.149C180.845 152.82 180.732 152.389 180.839 151.896C180.959 151.349 181.357 150.755 181.963 150.236C181.725 149.962 181.666 149.664 181.665 149.443C181.652 147.875 184.561 145.485 187.852 145.036C187.996 145.009 188.128 145.116 188.148 145.261C188.167 145.405 188.067 145.537 187.923 145.557C184.799 145.984 182.18 148.244 182.191 149.439C182.192 149.633 182.264 149.788 182.381 149.914C183.565 149.09 185.313 148.56 187.263 148.934C188.878 149.243 189.534 149.584 189.458 150.074C189.315 150.996 185.877 151.186 183.573 150.912C183.05 150.85 182.668 150.727 182.389 150.573C181.816 151.041 181.449 151.567 181.353 152.009C181.268 152.403 181.395 152.677 181.614 152.869C182.59 152.366 183.964 152.155 185.778 152.556C188.164 153.083 188.253 153.374 188.307 153.547C188.344 153.67 188.314 153.797 188.222 153.895C187.719 154.428 184.063 154.175 182.226 153.725C181.987 153.666 181.776 153.587 181.594 153.488C180.985 153.871 180.594 154.389 180.401 154.912C180.246 155.332 180.211 155.75 180.282 156.123C180.377 156.067 180.473 156.016 180.572 155.968C181.661 155.452 182.977 155.539 184.598 156.232C185.674 156.693 186.193 157.1 186.23 157.515C186.242 157.637 186.218 157.872 185.931 158.063C185.128 158.596 182.317 158.515 180.856 157.737C180.511 157.553 180.238 157.282 180.047 156.955C179.187 157.74 178.493 159.146 177.861 161.35C177.826 161.466 177.721 161.541 177.607 161.541ZM180.461 156.633C180.606 156.902 180.822 157.124 181.102 157.273C182.289 157.904 184.624 158.049 185.5 157.696C185.679 157.623 185.706 157.563 185.706 157.563C185.706 157.561 185.677 157.266 184.39 156.716C182.916 156.086 181.74 155.997 180.797 156.444C180.683 156.498 180.57 156.561 180.461 156.633ZM182.214 153.178C182.26 153.191 182.305 153.204 182.35 153.215C184.207 153.669 186.715 153.747 187.575 153.605C187.309 153.493 186.765 153.313 185.663 153.07C184.204 152.749 183.064 152.849 182.214 153.178ZM182.878 150.221C183.115 150.309 183.384 150.361 183.634 150.391C186.255 150.701 188.569 150.334 188.915 150.008C188.826 149.927 188.473 149.701 187.164 149.451C185.437 149.122 183.929 149.555 182.878 150.221Z" fill="#263238"/>
<path d="M109.133 215.238C109.48 215.127 109.363 214.793 108.977 214.793H101.855C88.2946 213.357 78.8197 215.282 84.7903 215.736C90.7604 216.189 84.3701 216.094 80.0101 217.743C75.65 219.393 112.44 219.808 115.786 217.743C118.871 215.839 104.328 216.779 109.133 215.238Z" fill="#263238"/>
<path d="M160.125 217.337L98.1607 215.283L95.5891 155.202L168.762 156.839L160.125 217.337Z" fill="#4457D0"/>
<path d="M117.51 216.188C117.374 216.188 117.259 216.084 117.248 215.946L112.281 155.603C112.269 155.459 112.376 155.331 112.522 155.32C112.67 155.311 112.794 155.415 112.805 155.56L117.772 215.903C117.784 216.048 117.676 216.175 117.531 216.187C117.524 216.187 117.517 216.188 117.51 216.188Z" fill="#263238"/>
<path d="M160.125 217.337L176.779 214.802L182.025 158.935L168.761 156.839L160.125 217.337Z" fill="#4457D0"/>
<path opacity="0.2" d="M160.125 217.337L176.779 214.802L182.025 158.935L168.761 156.839L160.125 217.337Z" fill="black"/>
<path d="M103.456 203.702L101.928 168.007C101.769 164.281 104.792 161.196 108.52 161.28L154.839 162.315C158.707 162.402 161.63 165.849 161.083 169.679L155.948 205.653C155.483 208.913 152.637 211.3 149.346 211.191L109.69 209.876C106.317 209.764 103.601 207.073 103.456 203.702Z" fill="#263238"/>
<path d="M108.46 172.233L115.626 172.461L115.567 174.309L111.081 174.166L111.037 175.542L115.199 175.674L115.143 177.439L110.981 177.306L110.927 179.012L115.543 179.159L115.481 181.119L108.185 180.887L108.46 172.233Z" fill="white"/>
<path d="M116.956 181.166L117.231 172.512L121.688 172.654C122.515 172.68 123.144 172.771 123.576 172.927C124.008 173.083 124.352 173.356 124.607 173.749C124.863 174.141 124.982 174.612 124.964 175.164C124.949 175.644 124.833 176.055 124.617 176.396C124.402 176.738 124.111 177.012 123.746 177.217C123.513 177.347 123.197 177.451 122.796 177.529C123.111 177.646 123.34 177.759 123.482 177.87C123.578 177.944 123.715 178.1 123.895 178.338C124.074 178.577 124.194 178.76 124.252 178.888L125.468 181.437L122.446 181.341L121.101 178.651C120.931 178.303 120.777 178.075 120.638 177.969C120.449 177.829 120.233 177.755 119.989 177.747L119.753 177.739L119.642 181.252L116.956 181.166ZM119.806 176.104L120.933 176.14C121.055 176.143 121.293 176.112 121.646 176.045C121.824 176.015 121.971 175.929 122.088 175.787C122.205 175.645 122.266 175.479 122.272 175.29C122.281 175.011 122.199 174.794 122.027 174.639C121.854 174.483 121.525 174.398 121.036 174.382L119.862 174.345L119.806 176.104Z" fill="white"/>
<path d="M126.36 181.465L126.635 172.811L131.092 172.953C131.918 172.98 132.547 173.071 132.979 173.226C133.412 173.382 133.755 173.656 134.011 174.048C134.266 174.44 134.385 174.912 134.367 175.463C134.352 175.943 134.236 176.354 134.021 176.696C133.805 177.038 133.514 177.311 133.149 177.516C132.917 177.646 132.6 177.75 132.199 177.828C132.514 177.945 132.743 178.059 132.885 178.169C132.981 178.243 133.119 178.4 133.299 178.638C133.478 178.876 133.597 179.059 133.656 179.187L134.871 181.736L131.849 181.64L130.505 178.95C130.335 178.603 130.18 178.375 130.042 178.268C129.853 178.128 129.637 178.054 129.393 178.046L129.156 178.039L129.045 181.551L126.36 181.465ZM129.209 176.403L130.337 176.439C130.459 176.443 130.696 176.411 131.049 176.343C131.227 176.313 131.375 176.228 131.491 176.086C131.608 175.944 131.67 175.778 131.675 175.589C131.684 175.31 131.603 175.093 131.43 174.937C131.258 174.782 130.927 174.697 130.44 174.681L129.265 174.644L129.209 176.403Z" fill="white"/>
<path d="M135.322 177.425C135.367 176.012 135.796 174.925 136.608 174.163C137.42 173.401 138.528 173.042 139.933 173.087C141.373 173.133 142.471 173.555 143.225 174.352C143.98 175.15 144.335 176.246 144.291 177.639C144.259 178.651 144.062 179.475 143.701 180.112C143.34 180.748 142.832 181.236 142.177 181.576C141.523 181.916 140.715 182.07 139.755 182.039C138.779 182.008 137.976 181.827 137.347 181.496C136.717 181.165 136.214 180.657 135.838 179.971C135.462 179.285 135.29 178.436 135.322 177.425ZM137.996 177.522C137.968 178.395 138.11 179.028 138.423 179.42C138.735 179.812 139.171 180.017 139.73 180.035C140.304 180.053 140.755 179.88 141.082 179.517C141.408 179.153 141.587 178.487 141.618 177.518C141.644 176.704 141.499 176.104 141.182 175.717C140.866 175.331 140.426 175.129 139.863 175.111C139.324 175.094 138.885 175.271 138.546 175.642C138.207 176.014 138.024 176.64 137.996 177.522Z" fill="white"/>
<path d="M145.627 182.078L145.902 173.424L150.359 173.566C151.185 173.592 151.815 173.683 152.247 173.839C152.679 173.995 153.023 174.268 153.278 174.661C153.534 175.053 153.653 175.525 153.635 176.076C153.62 176.556 153.504 176.967 153.288 177.309C153.073 177.65 152.782 177.924 152.417 178.129C152.184 178.259 151.867 178.363 151.467 178.441C151.782 178.558 152.011 178.671 152.153 178.782C152.248 178.856 152.386 179.012 152.566 179.251C152.745 179.489 152.864 179.672 152.923 179.8L154.138 182.349L151.117 182.253L149.772 179.563C149.602 179.215 149.448 178.988 149.309 178.881C149.12 178.741 148.904 178.667 148.66 178.659L148.424 178.651L148.312 182.164L145.627 182.078ZM148.477 177.016L149.604 177.052C149.726 177.056 149.964 177.024 150.316 176.956C150.495 176.926 150.642 176.84 150.759 176.698C150.876 176.556 150.937 176.391 150.943 176.202C150.952 175.923 150.87 175.705 150.698 175.55C150.525 175.395 150.196 175.31 149.707 175.294L148.533 175.257L148.477 177.016Z" fill="white"/>
<path d="M149.883 196.781C149.696 196.781 149.51 196.705 149.373 196.557L144.87 191.628L140.011 196.067C139.73 196.325 139.293 196.305 139.036 196.024L134.533 191.096L129.674 195.535C129.393 195.792 128.956 195.772 128.699 195.491L124.196 190.563L119.337 195.002C119.203 195.126 119.021 195.191 118.841 195.183C118.658 195.174 118.486 195.094 118.362 194.959L113.859 190.03L109.001 194.469C108.719 194.727 108.283 194.706 108.025 194.426C107.768 194.144 107.788 193.707 108.07 193.45L113.437 188.545C113.719 188.287 114.155 188.307 114.413 188.589L118.916 193.517L123.775 189.077C123.909 188.954 124.091 188.89 124.271 188.897C124.454 188.905 124.626 188.986 124.75 189.121L129.253 194.049L134.112 189.61C134.393 189.352 134.83 189.372 135.087 189.654L139.59 194.582L144.449 190.143C144.73 189.885 145.167 189.905 145.424 190.187L150.393 195.624C150.65 195.906 150.63 196.343 150.349 196.6C150.216 196.722 150.05 196.781 149.883 196.781Z" fill="white"/>
<path d="M66.6444 218.615L63.3527 217.045L60.416 202.755L62.0098 201L66.6444 218.615Z" fill="#4457D0"/>
<path d="M66.6444 218.615L71.0128 216.063L67.2677 204.289L62.0098 201L66.6444 218.615Z" fill="#4457D0"/>
<path opacity="0.2" d="M66.6444 218.615L71.0128 216.063L67.2677 204.289L62.0098 201L66.6444 218.615Z" fill="black"/>
<path d="M138.285 221.212C138.161 221.212 138.039 221.21 137.922 221.207C136.47 221.167 135.325 219.958 135.365 218.505C135.405 217.054 136.604 215.913 138.066 215.949C142.118 216.082 150.693 213.593 155.592 208.837C155.895 208.543 156.263 208.326 156.668 208.205C164.972 205.713 168.063 210.748 168.191 210.964L163.664 213.641C163.664 213.641 163.681 213.677 163.724 213.737C163.674 213.668 162.498 212.139 158.752 213.085C152.605 218.696 143.169 221.212 138.285 221.212Z" fill="#263238"/>
<path d="M137.994 224.709L128.414 224.105L127.658 206.444L140.533 206.925L137.994 224.709Z" fill="#4457D0"/>
<path d="M137.994 224.709L140.233 222.48L141.621 211.468L140.533 206.925L137.994 224.709Z" fill="#4457D0"/>
<path opacity="0.2" d="M137.994 224.709L140.233 222.48L141.621 211.468L140.533 206.925L137.994 224.709Z" fill="black"/>
<path d="M193.495 218.02C193.162 218.02 192.826 217.916 192.541 217.699C187.073 213.544 179.683 206.166 176.847 199.049C176.805 198.945 176.775 198.837 176.757 198.726C175.374 190.503 174.053 173.194 173.997 172.46C173.931 171.592 174.582 170.834 175.451 170.768C176.317 170.704 177.078 171.353 177.143 172.222C177.157 172.399 178.491 189.878 179.841 198.035C182.669 204.955 190.338 212.061 194.45 215.186C195.144 215.713 195.279 216.703 194.752 217.397C194.442 217.806 193.971 218.02 193.495 218.02Z" fill="#263238"/>
<path d="M200.789 218.818C199.569 218.818 198.186 218.265 196.679 217.174C195.973 216.663 195.815 215.677 196.326 214.971C196.837 214.265 197.824 214.106 198.529 214.617C199.832 215.56 200.544 215.662 200.79 215.662C201.661 215.662 202.368 216.368 202.368 217.24C202.367 218.111 201.661 218.818 200.789 218.818Z" fill="#263238"/>
<path d="M197.121 217.129C198.809 212.113 205.731 213.104 208.115 213.849C210.499 214.594 212.647 215.531 213.938 216.376C215.229 217.22 215.25 218.63 213.528 219.435C211.405 220.428 206.08 219.547 206.08 219.547C208.836 220.754 206.074 222.688 201.238 220.788C199.663 220.17 196.525 218.967 197.121 217.129Z" fill="#4457D0"/>
<path d="M180.319 174.625C179.693 178.887 176.164 182.029 173.293 181.607C170.422 181.185 170.303 177.379 170.929 173.117C171.556 168.856 172.691 165.753 175.562 166.175C178.433 166.597 180.946 170.364 180.319 174.625Z" fill="#263238"/>
<path d="M110.894 157.613C111.132 157.613 111.325 157.42 111.325 157.182C111.325 156.944 111.132 156.751 110.894 156.751C110.656 156.751 110.463 156.944 110.463 157.182C110.463 157.42 110.656 157.613 110.894 157.613Z" fill="#263238"/>
<path d="M115.277 160.287C115.277 160.525 115.084 160.718 114.847 160.718C114.609 160.718 114.415 160.525 114.415 160.287C114.415 160.049 114.608 159.856 114.847 159.856C115.085 159.856 115.277 160.049 115.277 160.287Z" fill="#263238"/>
<path d="M115.76 211.259C115.76 211.498 115.567 211.69 115.329 211.69C115.091 211.69 114.897 211.497 114.897 211.259C114.897 211.021 115.091 210.828 115.329 210.828C115.567 210.828 115.76 211.021 115.76 211.259Z" fill="#263238"/>
<path d="M119.712 214.364C119.712 214.603 119.519 214.795 119.281 214.795C119.043 214.795 118.85 214.602 118.85 214.364C118.85 214.126 119.043 213.933 119.281 213.933C119.519 213.933 119.712 214.126 119.712 214.364Z" fill="#263238"/>
<path d="M43.9003 219.536C42.6484 219.536 40.9558 218.778 40.0432 217.459C39.9606 217.34 39.99 217.176 40.1094 217.094C40.2288 217.011 40.3924 217.041 40.4755 217.16C41.457 218.578 43.6205 219.333 44.581 218.886C44.682 218.838 44.764 218.779 44.8266 218.707C43.9682 218.311 43.1834 217.534 42.9719 216.35C42.8525 215.683 42.7578 214.782 43.308 214.658C44.0623 214.488 45.0491 216.313 45.4289 217.695C45.4994 217.951 45.5214 218.188 45.4973 218.402C45.8297 218.493 46.1569 218.517 46.4372 218.476C46.665 218.443 46.9885 218.349 47.1605 218.084C46.5214 217.652 46.0916 216.891 45.948 215.881C45.7439 214.443 45.897 214.192 46.0564 214.069C46.16 213.99 46.2915 213.974 46.4183 214.028C46.9806 214.267 47.6623 216.308 47.7927 217.462C47.8069 217.59 47.8069 217.712 47.7943 217.827C48.0094 217.913 48.2467 217.959 48.5039 217.965C48.9599 217.991 49.4107 217.846 49.7715 217.634C49.6968 217.587 49.6264 217.535 49.5601 217.479C49.0141 217.012 48.7942 216.267 48.8868 215.201C48.9583 214.376 49.1461 213.926 49.4775 213.784C49.5937 213.733 49.8304 213.685 50.1129 213.91C50.681 214.364 51.2112 215.802 51.0208 216.833C50.9813 217.046 50.8893 217.25 50.7567 217.438C51.7219 217.604 53.0801 217.334 54.2515 217.044C54.3919 217.01 54.535 217.095 54.5697 217.236C54.6044 217.378 54.5187 217.52 54.3777 217.554C52.9523 217.907 51.4179 218.194 50.3338 217.879C49.852 218.262 49.1735 218.495 48.4939 218.49C48.1841 218.484 47.8953 218.429 47.6318 218.328C47.4245 218.681 47.039 218.92 46.5145 218.997C46.1653 219.049 45.7539 219.015 45.3373 218.896C45.219 219.094 45.0402 219.252 44.8045 219.362C44.552 219.479 44.2427 219.536 43.9003 219.536ZM43.4459 215.183C43.4153 215.263 43.3601 215.529 43.4906 216.258C43.6636 217.226 44.2901 217.869 44.9839 218.208C44.9807 218.096 44.9602 217.972 44.9229 217.836C44.5094 216.332 43.7241 215.296 43.4459 215.183ZM46.3762 214.724C46.373 214.922 46.3909 215.254 46.4693 215.807C46.5761 216.558 46.8528 217.135 47.2683 217.502C47.1452 216.446 46.6765 215.223 46.3762 214.724ZM49.6853 214.267H49.6842C49.6832 214.267 49.487 214.367 49.4102 215.245C49.3334 216.131 49.4943 216.73 49.9015 217.078C49.994 217.157 50.0992 217.223 50.2165 217.277C50.3654 217.113 50.4669 216.929 50.5021 216.737C50.6431 215.974 50.2802 214.858 49.873 214.406C49.7678 214.289 49.7 214.267 49.6853 214.267Z" fill="#263238"/>
<path d="M120.887 223.512L122.313 221.04L120.887 218.568H119.361L120.223 221.04L119.361 223.512H120.887Z" fill="#263238"/>
<path d="M119.462 222.329C118.752 222.329 118.173 221.75 118.173 221.04C118.173 220.33 118.752 219.757 119.462 219.757L117.038 219.272L116.395 221.229L117.477 222.88L119.462 222.329Z" fill="#263238"/>
<path d="M119.669 218.568H116.813L115.387 221.04L116.813 223.512H119.669L121.095 221.04L119.669 218.568ZM118.244 222.329C117.534 222.329 116.955 221.75 116.955 221.04C116.955 220.33 117.534 219.757 118.244 219.757C118.954 219.757 119.527 220.33 119.527 221.04C119.527 221.75 118.954 222.329 118.244 222.329Z" fill="#407BFF"/>
<path d="M220.31 218.403L219.251 216.567L220.31 214.731H221.443L220.803 216.568L221.443 218.403H220.31Z" fill="#407BFF"/>
<path d="M221.369 217.524C221.896 217.524 222.326 217.095 222.326 216.567C222.326 216.04 221.896 215.614 221.369 215.614L223.169 215.254L223.646 216.708L222.843 217.934L221.369 217.524Z" fill="#407BFF"/>
<path d="M221.215 214.731H223.336L224.395 216.567L223.336 218.403H221.215L220.156 216.567L221.215 214.731ZM222.274 217.524C222.802 217.524 223.231 217.095 223.231 216.567C223.231 216.04 222.802 215.614 222.274 215.614C221.746 215.614 221.321 216.04 221.321 216.567C221.32 217.095 221.746 217.524 222.274 217.524Z" fill="#263238"/>
<path d="M180.891 220.84H183.267C183.886 220.84 184.392 220.334 184.392 219.715C184.392 219.097 183.886 218.59 183.267 218.59H180.891C180.272 218.59 179.766 219.097 179.766 219.715C179.766 220.334 180.272 220.84 180.891 220.84Z" fill="#263238"/>
<path d="M177.094 218.718C177.681 217.473 179.103 216.911 180.272 217.462C181.44 218.013 181.912 219.468 181.325 220.713C180.739 221.957 179.316 222.519 178.148 221.969C176.978 221.418 176.507 219.963 177.094 218.718Z" fill="#407BFF"/>
<path d="M177.763 221.959L178.415 222.266L180.681 217.46L180.029 217.152L177.763 221.959Z" fill="#263238"/>
</g>
<defs>
<clipPath id="clip0_10155_80888">
<rect width="263" height="263" fill="white" transform="translate(0.5 0.5)"/>
</clipPath>
</defs>
</svg>
