<svg width="217" height="154" viewBox="0 0 217 154" fill="none" xmlns="http://www.w3.org/2000/svg">
<g clip-path="url(#clip0_12066_14968)">
<g opacity="0.1">
<path d="M92.1539 65.1617L92.3906 58.2496L88.1468 56.863C87.9722 54.5013 87.5771 52.169 87.0154 49.9219L90.6122 47.2699L88.1689 40.7774L83.72 41.1356C82.6596 39.0364 81.4135 37.0392 80.017 35.1655L82.3214 31.3189L77.5832 26.2635L73.6055 28.3002C71.814 26.7774 69.9257 25.3988 67.9042 24.1795L68.5486 19.7643L62.2376 16.9002L59.3462 20.2887C57.1433 19.5738 54.861 19.0394 52.4998 18.6849L51.4247 14.357L44.4941 14.1198L43.1254 18.364C40.7453 18.556 38.4314 18.9332 36.1849 19.4955L33.5138 15.916L27.0219 18.3414L27.3807 22.7909C25.2809 23.8692 23.2842 25.1147 21.4106 26.5118L17.5823 24.2079L12.5085 28.9272L14.5447 32.9227C13.023 34.6964 11.6433 36.6036 10.4414 38.6256L6.02717 37.9633L3.14522 44.2732L6.5516 47.1652C5.83729 49.3686 5.28341 51.6688 4.94782 54.0126L0.600956 55.1046L0.364258 62.0168L4.62591 63.4049C4.80001 65.784 5.19557 68.0989 5.75786 70.3449L2.1616 72.997L4.60487 79.49L9.05378 79.1307C10.1142 81.23 11.3603 83.2272 12.7568 85.1008L10.4519 88.9475L15.1906 94.0034L19.1677 91.9662C20.9414 93.4884 22.8481 94.8687 24.8695 96.0879L24.2068 100.502L30.5177 103.366L33.4276 99.9777C35.6305 100.693 37.9128 101.227 40.2745 101.581L41.3496 105.909L48.2802 106.147L49.6494 101.902C52.029 101.71 54.3429 101.333 56.5894 100.771L59.2421 104.349L65.7339 101.924L65.3931 97.476C67.4934 96.3977 69.4717 95.1506 71.3632 93.7541L75.192 96.059L80.2652 91.3392L78.2296 87.3437C79.7513 85.57 81.131 83.6627 82.3329 81.6408L86.7471 82.3036L89.6291 75.9931L86.2222 73.1012C86.937 70.8983 87.4898 68.6165 87.826 66.2548L92.1539 65.1617ZM45.4472 87.5541C30.31 87.0355 18.4566 74.341 18.9752 59.2032C19.4943 44.0476 32.1888 32.1952 47.3261 32.7139C62.4633 33.2325 74.3167 45.9259 73.7975 61.0816C73.2789 76.2193 60.5844 88.0727 45.4472 87.5541Z" fill="#EBEBEB"/>
<path d="M210.443 42.3045L212.187 40.6765L211.49 39.3036C212.024 38.685 212.496 38.0202 212.907 37.3353L214.43 37.5657L215.418 35.387L214.245 34.3897C214.499 33.6191 214.682 32.8286 214.798 32.0311L216.298 31.6551L216.376 29.267L214.909 28.7936C214.843 27.9857 214.719 27.1888 214.524 26.3987L215.758 25.4793L214.917 23.2422L213.386 23.3632C213.023 22.6515 212.597 21.9646 212.108 21.3028L212.901 19.9852L211.269 18.2373L209.9 18.938C209.272 18.4041 208.616 17.9322 207.931 17.5214L208.153 15.9971L205.978 15.0056L204.981 16.178C204.206 15.9287 203.416 15.7457 202.618 15.6294L202.246 14.134L199.858 14.0477L199.38 15.5184C198.576 15.58 197.775 15.7083 196.989 15.9087L196.074 14.671L193.833 15.5069L193.958 17.0428C193.246 17.4057 192.55 17.8318 191.897 18.3215L190.571 17.5277L188.828 19.1557L189.529 20.5333C188.991 21.1561 188.523 21.8167 188.112 22.5016L186.588 22.2712L185.6 24.4504L186.773 25.4477C186.519 26.2183 186.336 27.0089 186.22 27.8063L184.72 28.1824L184.643 30.571L186.109 31.0438C186.171 31.8476 186.299 32.6492 186.494 33.4392L185.256 34.354L186.097 36.591L187.633 36.4743C187.996 37.1859 188.422 37.8724 188.912 38.5351L188.118 39.8528L189.751 41.6007L191.119 40.8995C191.746 41.4329 192.403 41.9052 193.088 42.316L192.862 43.8356L195.036 44.8271L196.038 43.6594C196.813 43.9087 197.6 44.0871 198.401 44.2075L198.773 45.7029L201.161 45.7892L201.639 44.3185C202.442 44.257 203.244 44.1286 204.03 43.9282L204.945 45.1664L207.186 44.3306L207.061 42.7947C207.772 42.4317 208.464 42.0104 209.122 41.5165L210.443 42.3045ZM198.021 32.2415C196.739 30.8682 196.813 28.7142 198.186 27.4318C199.561 26.1478 201.715 26.2215 202.997 27.5954C204.28 28.9688 204.206 31.1227 202.831 32.4067C201.458 33.6891 199.304 33.6149 198.021 32.2415Z" fill="#EBEBEB"/>
<path d="M146.814 113.269L141.375 109.512C141.373 109.508 141.373 109.503 141.372 109.499C140.834 107.523 140.091 105.621 139.184 103.833L140.577 98.3635L132.687 89.9133L127.133 90.93C125.413 89.9038 123.568 89.0338 121.635 88.3621C121.63 88.3611 121.625 88.36 121.621 88.3579L118.244 82.6718L106.69 82.2758L102.934 87.7151C102.927 87.7167 102.92 87.7188 102.912 87.7204C100.938 88.2585 99.0376 88.9991 97.2524 89.9054L91.7857 88.512L83.336 96.4025L84.3506 101.946C84.3496 101.948 84.3485 101.948 84.3475 101.95C83.2997 103.69 82.4497 105.536 81.778 107.47L76.093 110.845L75.6969 122.4L81.141 126.159C81.6786 128.149 82.3976 130.047 83.3223 131.85C83.3228 131.851 83.3228 131.851 83.3234 131.852L81.9337 137.304L89.8237 145.753L95.343 144.744C97.0851 145.773 98.9335 146.644 100.89 147.317C100.892 147.318 100.893 147.318 100.895 147.318L104.266 152.996L115.82 153.392L119.574 147.956C121.571 147.419 123.474 146.678 125.281 145.769C125.281 145.769 125.282 145.769 125.283 145.768L130.725 147.155L139.175 139.265L138.16 133.721C139.208 131.982 140.058 130.134 140.729 128.2L140.73 128.199L146.417 124.822L146.814 113.269ZM110.808 130.832C103.626 130.586 98.0161 124.556 98.2612 117.395C98.5074 110.213 104.516 104.602 111.698 104.847C118.88 105.094 124.491 111.103 124.246 118.285C124.001 125.446 117.99 131.078 110.808 130.832Z" fill="#EBEBEB"/>
<path d="M159.206 80.4558C159.194 80.4558 159.181 80.4558 159.168 80.4553L150.06 80.1434C149.681 80.1307 149.336 79.9256 149.143 79.6005L146.69 75.4704C145.386 74.9975 144.101 74.401 142.859 73.6935L138.911 74.4157C138.538 74.4862 138.157 74.3584 137.899 74.0812L131.679 67.4205C131.42 67.1438 131.321 66.7545 131.414 66.3879L132.407 62.4903C131.804 61.2557 131.299 59.9371 130.903 58.561L126.942 55.8253C126.631 55.6107 126.45 55.2515 126.463 54.8738L126.775 45.765C126.787 45.3868 126.992 45.0413 127.318 44.8482L131.455 42.3913C131.946 41.0479 132.541 39.7692 133.228 38.5788L132.502 34.6165C132.434 34.2446 132.56 33.8627 132.837 33.605L139.499 27.384C139.775 27.1252 140.165 27.0263 140.531 27.1194L144.442 28.1162C145.707 27.5007 147.021 26.9937 148.36 26.606L151.094 22.6479C151.308 22.3365 151.661 22.144 152.046 22.1692L161.155 22.4817C161.533 22.4943 161.878 22.6989 162.071 23.0245L164.529 27.162C165.834 27.6401 167.109 28.235 168.33 28.9357L172.304 28.2077C172.677 28.1398 173.057 28.2656 173.316 28.5422L179.536 35.2045C179.794 35.4812 179.894 35.8705 179.801 36.2371L178.803 40.1495C179.419 41.415 179.926 42.729 180.314 44.0661L184.272 46.7992C184.584 47.0138 184.764 47.373 184.751 47.7512L184.44 56.8605C184.427 57.2387 184.222 57.5843 183.897 57.7773L179.758 60.2353C179.267 61.5782 178.673 62.8564 177.987 64.0451L178.712 68.0091C178.78 68.3809 178.655 68.7628 178.378 69.0206L171.716 75.24C171.44 75.4988 171.051 75.5987 170.684 75.5046L166.791 74.5125C165.508 75.1321 164.186 75.6387 162.853 76.0221L160.122 79.9771C159.913 80.277 159.571 80.4558 159.206 80.4558ZM150.742 77.9441L158.637 78.215L161.252 74.4289C161.401 74.2127 161.623 74.056 161.877 73.9876C163.332 73.5968 164.775 73.0434 166.167 72.3433C166.169 72.3423 166.172 72.3412 166.174 72.3396C166.406 72.2255 166.677 72.1902 166.941 72.2591L170.643 73.2023L176.417 67.8113L175.726 64.0378C175.677 63.7716 175.728 63.497 175.867 63.2645C176.629 62.0006 177.275 60.614 177.787 59.1439C177.871 58.883 178.05 58.6636 178.282 58.5269L182.239 56.1767L182.51 48.2814L178.721 45.6646C178.523 45.5278 178.374 45.33 178.298 45.1023C178.289 45.0739 178.28 45.0439 178.273 45.0134C177.877 43.5627 177.325 42.1372 176.635 40.7765C176.513 40.5361 176.483 40.2599 176.549 39.999L177.497 36.276L172.106 30.501L168.324 31.1933C168.059 31.2422 167.786 31.1922 167.555 31.0544C166.24 30.2696 164.852 29.6211 163.428 29.1261C163.348 29.0982 163.266 29.0609 163.197 29.0183C163.043 28.9236 162.915 28.7936 162.824 28.639L160.471 24.6788L152.577 24.4079L149.96 28.1972C149.804 28.4228 149.571 28.5817 149.306 28.6453C147.845 29.0456 146.424 29.5948 145.07 30.2822C144.829 30.4043 144.552 30.4348 144.293 30.368L140.571 29.4191L134.797 34.8111L135.488 38.5841C135.532 38.8208 135.496 39.0654 135.389 39.2805C135.374 39.311 135.357 39.3405 135.339 39.3699C134.576 40.6386 133.929 42.0294 133.417 43.5038C133.331 43.751 133.16 43.9603 132.935 44.0939L128.975 46.4457L128.705 54.3404L132.498 56.9599C132.714 57.1088 132.87 57.3302 132.939 57.5837C133.348 59.0965 133.898 60.533 134.575 61.8533C134.614 61.929 134.644 62.009 134.665 62.0921C134.709 62.2704 134.709 62.4571 134.664 62.6354L133.718 66.3458L139.109 72.1192L142.864 71.4323C143.128 71.3844 143.399 71.4333 143.629 71.569C144.967 72.3607 146.363 73.0087 147.778 73.4968C148.034 73.5778 148.255 73.7509 148.395 73.9881L150.742 77.9441ZM155.619 67.9686C155.424 67.9686 155.23 67.9649 155.035 67.958C145.858 67.6435 138.648 59.9223 138.963 50.7457C139.277 41.5697 147.011 34.3619 156.175 34.6733C165.352 34.9878 172.561 42.709 172.247 51.8861C172.095 56.3256 170.222 60.4436 166.973 63.4802C163.864 66.3869 159.851 67.9686 155.619 67.9686ZM155.599 36.8851C147.868 36.8851 141.45 43.0367 141.183 50.822C140.91 58.7741 147.158 65.4653 155.111 65.7378C158.964 65.8667 162.638 64.4922 165.457 61.8575C168.272 59.2254 169.896 55.657 170.027 51.8098C170.3 43.8578 164.051 37.166 156.099 36.8935C155.932 36.8883 155.765 36.8851 155.599 36.8851Z" fill="#EBEBEB"/>
<path d="M180.189 14.8998L176.415 13.8868L175.402 10.1138L176.88 8.63623L178.438 11.8638L181.666 13.4228L180.189 14.8998Z" fill="#E0E0E0"/>
<path d="M180.423 12.374C181.11 11.6865 181.11 10.5661 180.423 9.87866C179.736 9.19117 178.62 9.19644 177.933 9.88392L179.81 7.06824L182.327 8.34063L182.879 10.9859L180.423 12.374Z" fill="#E0E0E0"/>
<path d="M176.582 8.93401L179.347 6.16882L183.12 7.1819L184.134 10.9554L181.369 13.7206L177.595 12.707L176.582 8.93401ZM181.603 11.1948C182.29 10.5073 182.29 9.38689 181.603 8.69941C180.915 8.01193 179.8 8.01719 179.113 8.70467C178.425 9.39215 178.425 10.5025 179.113 11.1895C179.8 11.877 180.915 11.8822 181.603 11.1948Z" fill="#F0F0F0"/>
<path d="M25.9563 115.568L27.9808 115.025L28.5247 113L27.732 112.207L26.8957 113.939L25.1636 114.776L25.9563 115.568Z" fill="#E0E0E0"/>
<path d="M25.8305 114.213C25.4618 113.844 25.4618 113.243 25.8305 112.874C26.1993 112.505 26.7979 112.508 27.1666 112.876L26.1593 111.365L24.8085 112.048L24.5124 113.467L25.8305 114.213Z" fill="#E0E0E0"/>
<path d="M27.892 112.367L26.4081 110.883L24.3835 111.427L23.8397 113.452L25.3235 114.936L27.3481 114.392L27.892 112.367ZM25.1973 113.58C24.8285 113.211 24.8285 112.61 25.1973 112.241C25.566 111.872 26.1646 111.875 26.5333 112.244C26.902 112.612 26.902 113.208 26.5333 113.577C26.1651 113.946 25.5665 113.949 25.1973 113.58Z" fill="#F0F0F0"/>
<path d="M18.667 4.55817L20.3475 6.23874C20.7852 6.67637 21.5011 6.67637 21.9387 6.23874C22.3763 5.80111 22.3763 5.08522 21.9387 4.64759L20.2581 2.96702C19.8205 2.52939 19.1046 2.52939 18.667 2.96702C18.2293 3.40465 18.2293 4.12106 18.667 4.55817Z" fill="#F0F0F0"/>
<path d="M17.4829 0.372776C18.778 -0.0922075 20.1819 0.515848 20.6184 1.73143C21.055 2.94702 20.3591 4.30936 19.0641 4.77487C17.7691 5.23985 16.3652 4.6318 15.9286 3.41621C15.492 2.20062 16.1879 0.838286 17.4829 0.372776Z" fill="#E0E0E0"/>
<path d="M15.6517 3.13567L15.8953 3.81384L20.8959 2.01783L20.6524 1.33965L15.6517 3.13567Z" fill="#F0F0F0"/>
</g>
<path d="M110 124.397C166.325 124.397 211.986 121.731 211.986 118.441C211.986 115.152 166.325 112.485 110 112.485C53.6749 112.485 8.0144 115.152 8.0144 118.441C8.0144 121.731 53.6749 124.397 110 124.397Z" fill="#F5F5F5"/>
<path d="M24.1126 22.9598C23.5861 20.6438 23.8212 18.6939 24.8185 17.1091C25.8158 15.5253 27.4664 14.4717 29.7698 13.9478C32.1315 13.4108 34.0951 13.6312 35.661 14.609C37.2269 15.5863 38.2694 17.2169 38.7886 19.5013C39.1657 21.1598 39.1957 22.5832 38.879 23.7714C38.5618 24.9602 37.9433 25.9695 37.0228 26.7996C36.1017 27.6301 34.8541 28.2235 33.2798 28.5817C31.6797 28.9457 30.2973 28.9919 29.1328 28.7211C27.9682 28.4496 26.9346 27.8363 26.032 26.8806C25.1294 25.9254 24.4892 24.6188 24.1126 22.9598ZM28.5016 21.983C28.8272 23.4158 29.3274 24.3842 30.0023 24.8886C30.6766 25.3941 31.4719 25.5414 32.3887 25.3331C33.3308 25.1195 33.9904 24.6472 34.367 23.9171C34.7436 23.187 34.752 22.0277 34.3907 20.4408C34.0872 19.1052 33.5959 18.1905 32.9168 17.6961C32.2378 17.2027 31.4372 17.0607 30.5146 17.2706C29.6304 17.4715 28.9918 17.9459 28.5984 18.6934C28.2049 19.4414 28.1728 20.5375 28.5016 21.983Z" fill="white"/>
<path d="M40.8799 21.2245C40.5233 19.657 40.759 18.2442 41.5864 16.9871C42.4132 15.7299 43.7272 14.8967 45.5277 14.488C47.5859 14.0199 49.2765 14.2629 50.5999 15.2181C51.6635 15.9877 52.3557 17.0754 52.6755 18.482C53.0347 20.0636 52.8054 21.4775 51.9859 22.7257C51.1669 23.9739 49.8314 24.8087 47.9794 25.2295C46.3277 25.6051 44.8965 25.4899 43.6861 24.8823C42.1981 24.1286 41.2629 22.9093 40.8799 21.2245ZM44.827 20.3177C45.0353 21.2335 45.3746 21.8689 45.8459 22.2239C46.3167 22.5785 46.8327 22.6915 47.3939 22.5637C47.9615 22.4343 48.3786 22.1124 48.6447 21.5969C48.9109 21.082 48.9356 20.3466 48.7189 19.3925C48.5164 18.502 48.1819 17.8802 47.7148 17.5283C47.2477 17.1764 46.7433 17.0618 46.2015 17.1854C45.6271 17.3158 45.2031 17.6451 44.9296 18.1722C44.6556 18.6987 44.6214 19.414 44.827 20.3177Z" fill="white"/>
<path d="M56.6557 27.1257L53.4297 12.9358L57.1175 12.0968L57.4631 13.6164C57.8276 12.8622 58.1969 12.3241 58.5714 12.0011C59.0769 11.5677 59.6781 11.271 60.3751 11.1132C61.7495 10.8002 62.9319 11.0848 63.9229 11.9653C64.9139 12.8464 65.5856 14.0609 65.9375 15.61C66.3262 17.32 66.2131 18.7181 65.5982 19.8048C64.9833 20.891 64.0502 21.5769 62.7983 21.8615C62.1919 21.9993 61.6154 22.0219 61.0678 21.9288C60.5208 21.8357 60.0042 21.6316 59.5182 21.3144L60.6338 26.2215L56.6557 27.1257ZM58.554 17.2069C58.7387 18.0201 59.0469 18.5845 59.4782 18.9006C59.9095 19.2168 60.3866 19.3146 60.9095 19.1962C61.3676 19.0921 61.709 18.8159 61.9325 18.3683C62.1561 17.9202 62.1656 17.2448 61.9604 16.3411C61.7711 15.5085 61.4707 14.9341 61.0594 14.6174C60.648 14.2997 60.2099 14.1945 59.7454 14.2997C59.2426 14.4144 58.8675 14.7068 58.6214 15.176C58.3752 15.6463 58.3526 16.3227 58.554 17.2069Z" fill="white"/>
<path d="M67.6228 17.5173L71.4495 16.2602C71.7162 16.6878 72.0181 16.9692 72.3537 17.1039C72.6893 17.2375 73.0996 17.2496 73.5835 17.1396C74.1121 17.0192 74.4966 16.8135 74.7359 16.5216C74.9237 16.3028 74.9889 16.0682 74.9316 15.8162C74.8674 15.5327 74.6691 15.347 74.3372 15.2602C74.0995 15.1992 73.504 15.1924 72.5515 15.2392C71.1292 15.3123 70.1292 15.307 69.5501 15.2255C68.9715 15.1429 68.445 14.902 67.9705 14.5012C67.4961 14.1009 67.1884 13.5907 67.0479 12.9721C66.8943 12.2952 66.9585 11.6676 67.2404 11.088C67.5229 10.5083 67.9816 10.0192 68.617 9.62046C69.2524 9.22175 70.1508 8.89037 71.3122 8.62632C72.5383 8.34754 73.4646 8.23602 74.0911 8.28967C74.7175 8.34438 75.2709 8.52374 75.7506 8.8283C76.2308 9.13338 76.6758 9.59153 77.0861 10.2043L73.4336 11.4215C73.2621 11.1138 73.0459 10.9086 72.785 10.8055C72.4279 10.6688 72.0302 10.6504 71.5915 10.7508C71.146 10.8518 70.8399 11.0044 70.6726 11.2084C70.5053 11.4125 70.4469 11.6277 70.4985 11.8533C70.5553 12.1048 70.7278 12.2652 71.015 12.3351C71.3022 12.4061 71.8903 12.3935 72.7782 12.3004C74.1216 12.1516 75.1431 12.1358 75.8421 12.2552C76.5412 12.3741 77.1156 12.6402 77.5658 13.0531C78.0156 13.466 78.3075 13.9657 78.4411 14.5528C78.5757 15.1461 78.5279 15.7636 78.2975 16.4053C78.0666 17.0476 77.6037 17.622 76.9078 18.1296C76.2124 18.6361 75.1999 19.0411 73.8707 19.3441C71.9929 19.7712 70.5942 19.8064 69.6758 19.4524C68.7574 19.0979 68.0731 18.453 67.6228 17.5173Z" fill="white"/>
<path d="M80.4646 4.50772L84.782 4.48352L84.8009 7.7989L84.0046 14.4638L81.3346 14.4786L80.483 7.8231L80.4646 4.50772ZM80.6755 15.4948L84.7052 15.4722L84.7257 19.0353L80.696 19.0579L80.6755 15.4948Z" fill="white"/>
<path d="M95.5098 59.8464C96.2404 48.0624 94.8964 26.6416 117.046 29.4773C140.787 32.5165 133.995 60.2777 133.995 60.2777L95.5098 59.8464Z" fill="#263238"/>
<path d="M110.796 52.7634C116.134 52.7634 120.462 48.4361 120.462 43.0981C120.462 37.7601 116.134 33.4329 110.796 33.4329C105.458 33.4329 101.131 37.7601 101.131 43.0981C101.131 48.4361 105.458 52.7634 110.796 52.7634Z" fill="white"/>
<path d="M112.066 33.4482C107.487 32.6665 102.592 36.0413 102.11 39.4603L120.261 41.1293C119.621 37.2317 115.698 34.0683 112.066 33.4482Z" fill="#263238"/>
<path d="M118.193 42.8578C118.063 45.3847 116.686 47.3677 115.117 47.2872C113.548 47.2067 112.381 45.0928 112.511 42.5659C112.641 40.039 114.018 38.0559 115.587 38.1364C117.156 38.2169 118.323 40.3309 118.193 42.8578Z" fill="#263238"/>
<path d="M110.796 53.2894C105.177 53.2894 100.605 48.7179 100.605 43.0981C100.605 37.4783 105.177 32.9069 110.796 32.9069C116.416 32.9069 120.988 37.4783 120.988 43.0981C120.988 48.7179 116.416 53.2894 110.796 53.2894ZM110.796 33.9589C105.757 33.9589 101.657 38.0585 101.657 43.0981C101.657 48.1377 105.756 52.2374 110.796 52.2374C115.836 52.2374 119.936 48.1377 119.936 43.0981C119.936 38.0585 115.835 33.9589 110.796 33.9589Z" fill="#7E8CDF"/>
<path opacity="0.3" d="M131.295 59.5498C131.275 59.5498 131.254 59.5472 131.233 59.5424C131.092 59.5083 131.005 59.3662 131.039 59.2247C131.056 59.1537 132.732 52.0217 130.992 44.8108C130.957 44.6698 131.044 44.5278 131.186 44.4931C131.325 44.4615 131.469 44.5457 131.503 44.6871C133.274 52.0248 131.568 59.2752 131.55 59.3478C131.521 59.4693 131.414 59.5498 131.295 59.5498Z" fill="white"/>
<path opacity="0.3" d="M129.829 40.8673C129.729 40.8673 129.634 40.8105 129.59 40.7137C128.913 39.2378 128.074 37.8828 127.096 36.6861C127.003 36.5736 127.02 36.4084 127.133 36.3163C127.245 36.2238 127.411 36.2401 127.503 36.3532C128.51 37.5845 129.373 38.9779 130.068 40.4949C130.128 40.6269 130.071 40.7831 129.939 40.8431C129.903 40.8594 129.866 40.8673 129.829 40.8673Z" fill="white"/>
<path d="M46.2146 115.117C46.1494 115.117 46.0842 115.116 46.0189 115.114C44.5672 115.074 43.4226 113.865 43.462 112.413C43.5015 110.961 44.6976 109.838 46.1631 109.856C46.1794 109.857 46.1962 109.857 46.2136 109.857C47.7332 109.857 51.3889 108.011 59.0364 95.9547C59.4472 95.3077 60.1205 94.8711 60.879 94.7607C61.639 94.6529 62.407 94.878 62.9856 95.3814C72.4226 103.61 82.4234 108.731 82.5233 108.782C83.8178 109.44 84.3349 111.023 83.6774 112.318C83.0199 113.613 81.4377 114.131 80.1432 113.473C79.7461 113.271 71.0045 108.802 61.8394 101.298C55.4296 110.934 50.673 115.117 46.2146 115.117Z" fill="#263238"/>
<path d="M62.4864 94.909C62.4117 94.909 62.337 94.9037 62.2613 94.8932C61.3986 94.7701 60.799 93.9706 60.9226 93.1075C61.2966 90.4896 60.8332 80.6802 57.5168 73.0532C57.2143 72.3583 57.4489 71.5467 58.0754 71.1196C65.2805 66.2094 80.6281 65.6224 81.2783 65.5998C82.1446 65.5808 82.8794 66.251 82.9099 67.122C82.9404 67.9925 82.2587 68.7237 81.3882 68.7537C81.2462 68.7589 67.8279 69.2733 60.9331 73.0679C63.8703 80.6623 64.5362 90.1298 64.0465 93.554C63.934 94.3415 63.2591 94.909 62.4864 94.909Z" fill="#263238"/>
<path d="M65.1375 92.8661C64.0881 90.3907 59.3578 90.6721 56.5805 92.7935C55.0961 93.927 53.0873 97.3386 52.8759 98.5747C52.665 99.8114 53.5213 100.931 54.992 100.804C56.8056 100.647 59.2952 98.0114 59.2952 98.0114C57.6388 99.6357 59.776 100.782 62.9651 98.4327C64.7346 97.1298 66.3126 95.6381 65.1375 92.8661Z" fill="#7E8CDF"/>
<path d="M155.607 60.5407C155.584 60.5407 155.559 60.5375 155.535 60.5302C155.395 60.4902 155.314 60.344 155.355 60.2051C156.056 57.7645 156.821 56.2733 157.827 55.4443C157.673 54.9204 157.69 54.3187 157.908 53.7301C158.119 53.1572 158.528 52.5881 159.15 52.1494C158.845 51.8201 158.732 51.3893 158.84 50.8965C158.959 50.3489 159.357 49.7551 159.963 49.2364C159.725 48.9624 159.667 48.6641 159.665 48.4432C159.652 46.8747 162.562 44.4851 165.852 44.0359C165.996 44.009 166.128 44.1163 166.148 44.261C166.167 44.4046 166.067 44.5371 165.923 44.5571C162.799 44.9837 160.18 47.2445 160.191 48.439C160.193 48.6326 160.264 48.7883 160.381 48.914C161.565 48.0898 163.313 47.5595 165.264 47.9341C166.878 48.2428 167.534 48.5837 167.459 49.0739C167.316 49.996 163.877 50.1864 161.573 49.9123C161.05 49.8503 160.668 49.7267 160.389 49.5725C159.816 50.0412 159.449 50.5672 159.354 51.0085C159.268 51.4025 159.395 51.6771 159.614 51.8691C160.59 51.3657 161.965 51.1553 163.778 51.5561C166.164 52.0826 166.253 52.3735 166.307 52.5466C166.345 52.6702 166.314 52.7975 166.222 52.8948C165.719 53.4276 162.064 53.1746 160.227 52.7249C159.987 52.6665 159.776 52.5865 159.594 52.4876C158.985 52.8711 158.594 53.3887 158.401 53.912C158.246 54.3318 158.211 54.75 158.282 55.1234C158.377 55.0671 158.474 55.0156 158.572 54.9682C159.661 54.4517 160.977 54.5385 162.598 55.2318C163.674 55.6926 164.193 56.0997 164.231 56.5147C164.242 56.6372 164.218 56.8724 163.931 57.0628C163.129 57.5956 160.317 57.5146 158.856 56.7367C158.511 56.5526 158.238 56.2817 158.047 55.955C157.187 56.7403 156.494 58.1463 155.861 60.3498C155.827 60.466 155.722 60.5407 155.607 60.5407ZM158.461 55.6326C158.606 55.9019 158.822 56.1239 159.102 56.2727C160.289 56.9045 162.624 57.0491 163.501 56.6956C163.679 56.6231 163.706 56.5626 163.706 56.5626C163.706 56.561 163.677 56.2664 162.391 55.7162C160.916 55.0856 159.741 54.9972 158.798 55.4438C158.683 55.4985 158.57 55.561 158.461 55.6326ZM160.215 52.1778C160.26 52.191 160.306 52.2036 160.35 52.2146C162.208 52.6691 164.715 52.747 165.575 52.6055C165.309 52.4929 164.765 52.313 163.663 52.07C162.204 51.7486 161.064 51.8491 160.215 52.1778ZM160.878 49.2207C161.116 49.309 161.384 49.3611 161.634 49.3906C164.255 49.7009 166.569 49.3343 166.915 49.0076C166.826 48.9266 166.473 48.7015 165.164 48.4511C163.437 48.1224 161.929 48.5553 160.878 49.2207Z" fill="#263238"/>
<path d="M87.1332 114.238C87.4799 114.127 87.3636 113.793 86.977 113.793H79.8555C66.2947 112.357 56.8198 114.282 62.7905 114.736C68.7606 115.189 62.3702 115.094 58.0102 116.743C53.6502 118.393 90.4402 118.808 93.7861 116.743C96.8716 114.839 82.3282 115.779 87.1332 114.238Z" fill="#263238"/>
<path d="M138.125 116.337L76.1609 114.283L73.5892 54.2024L146.762 55.8388L138.125 116.337Z" fill="#7E8CDF"/>
<path d="M95.5097 115.188C95.374 115.188 95.2588 115.084 95.2478 114.946L90.2808 54.6032C90.2687 54.4585 90.3765 54.3313 90.5217 54.3197C90.6705 54.3113 90.7936 54.4154 90.8052 54.5601L95.7722 114.903C95.7838 115.048 95.6765 115.175 95.5313 115.187C95.5239 115.187 95.5166 115.188 95.5097 115.188Z" fill="#263238"/>
<path d="M138.125 116.337L154.779 113.802L160.025 57.9355L146.762 55.8389L138.125 116.337Z" fill="#7E8CDF"/>
<path opacity="0.2" d="M138.125 116.337L154.779 113.802L160.025 57.9355L146.762 55.8389L138.125 116.337Z" fill="black"/>
<path d="M81.4561 102.702L79.9286 67.0074C79.7692 63.2812 82.7921 60.1962 86.5204 60.2799L132.839 61.3156C136.708 61.4018 139.631 64.8492 139.084 68.6796L133.948 104.653C133.483 107.913 130.637 110.3 127.346 110.191L87.6902 108.876C84.3175 108.764 81.6007 106.073 81.4561 102.702Z" fill="#263238"/>
<path d="M86.4599 71.2328L93.6261 71.4611L93.5672 73.3089L89.081 73.1664L89.0373 74.5418L93.199 74.6744L93.1427 76.4391L88.981 76.3066L88.9269 78.0124L93.543 78.1592L93.481 80.119L86.1848 79.8871L86.4599 71.2328Z" fill="white"/>
<path d="M94.9564 80.1658L95.2315 71.5121L99.6883 71.6541C100.515 71.6804 101.144 71.7714 101.576 71.9271C102.008 72.0828 102.352 72.3563 102.608 72.7487C102.863 73.1411 102.982 73.6124 102.964 74.1636C102.949 74.6439 102.833 75.0547 102.618 75.3966C102.402 75.7385 102.111 76.012 101.746 76.2166C101.513 76.3471 101.197 76.4512 100.796 76.5291C101.111 76.6458 101.34 76.7594 101.482 76.8699C101.578 76.9441 101.715 77.1003 101.895 77.3386C102.074 77.5769 102.194 77.7599 102.253 77.8882L103.468 80.4372L100.446 80.341L99.1012 77.651C98.9308 77.3033 98.7767 77.0756 98.6384 76.9688C98.4495 76.8289 98.2333 76.7547 97.9893 76.7468L97.7531 76.7395L97.6416 80.2521L94.9564 80.1658ZM97.8062 75.1041L98.9334 75.1399C99.0555 75.1436 99.2927 75.112 99.6457 75.0447C99.824 75.0147 99.9712 74.929 100.088 74.787C100.205 74.6449 100.266 74.4792 100.272 74.2904C100.281 74.0111 100.2 73.7939 100.027 73.6387C99.8545 73.4835 99.5247 73.3983 99.0365 73.3825L97.862 73.3452L97.8062 75.1041Z" fill="white"/>
<path d="M104.36 80.4652L104.635 71.8114L109.092 71.9534C109.918 71.9797 110.548 72.0707 110.979 72.2264C111.412 72.3821 111.755 72.6556 112.011 73.048C112.267 73.4404 112.385 73.9122 112.368 74.463C112.352 74.9432 112.237 75.354 112.021 75.6959C111.805 76.0378 111.514 76.3113 111.149 76.5159C110.917 76.6464 110.6 76.7505 110.199 76.8284C110.514 76.9452 110.743 77.0588 110.885 77.1692C110.981 77.2434 111.119 77.3996 111.299 77.6379C111.478 77.8762 111.597 78.0592 111.656 78.1876L112.871 80.7366L109.85 80.6403L108.505 77.9503C108.335 77.6027 108.18 77.3749 108.042 77.2681C107.853 77.1282 107.637 77.054 107.393 77.0462L107.156 77.0388L107.045 80.5509L104.36 80.4652ZM107.21 75.4034L108.337 75.4392C108.459 75.4429 108.696 75.4113 109.049 75.3435C109.227 75.3135 109.375 75.2278 109.491 75.0857C109.608 74.9437 109.67 74.778 109.675 74.5892C109.684 74.3099 109.603 74.0927 109.43 73.9375C109.258 73.7823 108.927 73.6971 108.44 73.6813L107.265 73.644L107.21 75.4034Z" fill="white"/>
<path d="M113.322 76.4249C113.367 75.0121 113.796 73.9248 114.608 73.1626C115.42 72.401 116.528 72.0423 117.933 72.087C119.373 72.1327 120.471 72.5546 121.225 73.3525C121.98 74.1505 122.335 75.2461 122.291 76.6395C122.259 77.651 122.062 78.4752 121.701 79.1117C121.34 79.7482 120.832 80.2363 120.178 80.5761C119.523 80.9159 118.715 81.07 117.755 81.0395C116.779 81.0084 115.976 80.8275 115.347 80.4961C114.717 80.1648 114.214 79.6566 113.838 78.9707C113.462 78.2848 113.29 77.4364 113.322 76.4249ZM115.996 76.5217C115.968 77.3954 116.111 78.0281 116.423 78.42C116.735 78.8119 117.171 79.017 117.73 79.0349C118.304 79.0533 118.755 78.8803 119.082 78.5168C119.409 78.1528 119.587 77.4869 119.618 76.5185C119.644 75.7043 119.499 75.1036 119.182 74.7175C118.866 74.3309 118.426 74.1289 117.863 74.111C117.324 74.0937 116.885 74.2709 116.546 74.6423C116.207 75.0136 116.024 75.6401 115.996 76.5217Z" fill="white"/>
<path d="M123.627 81.0779L123.902 72.4242L128.359 72.5662C129.185 72.5925 129.815 72.6835 130.247 72.8392C130.679 72.9949 131.023 73.2684 131.278 73.6608C131.534 74.0532 131.653 74.525 131.635 75.0758C131.62 75.556 131.504 75.9668 131.288 76.3087C131.073 76.6506 130.782 76.9241 130.417 77.1287C130.184 77.2592 129.867 77.3633 129.467 77.4412C129.782 77.558 130.011 77.6716 130.153 77.782C130.248 77.8562 130.386 78.0124 130.566 78.2507C130.745 78.489 130.864 78.672 130.923 78.8004L132.138 81.3494L129.117 81.2531L127.772 78.5632C127.602 78.2155 127.447 77.9877 127.309 77.8809C127.12 77.741 126.904 77.6668 126.66 77.6589L126.424 77.6516L126.312 81.1637L123.627 81.0779ZM126.477 76.0163L127.604 76.052C127.726 76.0557 127.963 76.0241 128.316 75.9563C128.495 75.9263 128.642 75.8406 128.759 75.6985C128.875 75.5565 128.937 75.3908 128.943 75.202C128.952 74.9227 128.87 74.7055 128.698 74.5503C128.525 74.3951 128.195 74.3099 127.707 74.2941L126.533 74.2568L126.477 76.0163Z" fill="white"/>
<path d="M127.883 95.7811C127.696 95.7811 127.51 95.7054 127.373 95.5565L122.87 90.6284L118.012 95.0674C117.73 95.3251 117.294 95.3046 117.036 95.0237L112.533 90.0956L107.675 94.5345C107.393 94.7917 106.956 94.7717 106.699 94.4909L102.196 89.5628L97.3376 94.0022C97.203 94.1258 97.021 94.1905 96.8411 94.1826C96.658 94.1742 96.486 94.0937 96.3624 93.9585L91.8593 89.0305L87.0007 93.4694C86.7192 93.7266 86.2827 93.7061 86.0255 93.4257C85.7682 93.1443 85.7882 92.7072 86.0696 92.45L91.4375 87.545C91.7189 87.2868 92.1555 87.3073 92.4132 87.5887L96.9163 92.5168L101.775 88.0773C101.91 87.9537 102.091 87.8896 102.271 87.8969C102.455 87.9053 102.627 87.9858 102.75 88.121L107.253 93.0491L112.112 88.6102C112.393 88.3524 112.83 88.3724 113.087 88.6538L117.59 93.5819L122.449 89.143C122.73 88.8848 123.167 88.9047 123.425 89.1867L128.393 94.6245C128.65 94.9059 128.63 95.343 128.349 95.6002C128.216 95.7217 128.05 95.7811 127.883 95.7811Z" fill="white"/>
<path d="M44.6445 117.615L41.3528 116.045L38.4161 101.755L40.0099 99.9998L44.6445 117.615Z" fill="#7E8CDF"/>
<path d="M44.6445 117.615L49.013 115.063L45.2678 103.289L40.0099 99.9998L44.6445 117.615Z" fill="#7E8CDF"/>
<path opacity="0.2" d="M44.6445 117.615L49.013 115.063L45.2678 103.289L40.0099 99.9998L44.6445 117.615Z" fill="black"/>
<path d="M116.285 120.212C116.161 120.212 116.04 120.21 115.922 120.207C114.47 120.167 113.325 118.958 113.365 117.505C113.405 116.054 114.604 114.913 116.066 114.949C120.118 115.082 128.693 112.593 133.592 107.837C133.895 107.543 134.263 107.326 134.668 107.205C142.972 104.713 146.063 109.748 146.191 109.964L141.664 112.641C141.664 112.641 141.681 112.677 141.724 112.737C141.674 112.668 140.498 111.139 136.752 112.085C130.605 117.696 121.169 120.212 116.285 120.212Z" fill="#263238"/>
<path d="M115.994 123.709L106.414 123.105L105.658 105.444L118.533 105.925L115.994 123.709Z" fill="#7E8CDF"/>
<path d="M115.994 123.709L118.233 121.48L119.621 110.468L118.533 105.925L115.994 123.709Z" fill="#7E8CDF"/>
<path opacity="0.2" d="M115.994 123.709L118.233 121.48L119.621 110.468L118.533 105.925L115.994 123.709Z" fill="black"/>
<path d="M171.495 117.021C171.162 117.021 170.827 116.916 170.541 116.699C165.073 112.544 157.683 105.166 154.847 98.0488C154.805 97.9451 154.775 97.8368 154.757 97.7263C153.374 89.5034 152.053 72.1938 151.997 71.4605C151.931 70.5921 152.582 69.8336 153.451 69.7679C154.317 69.7042 155.078 70.3528 155.143 71.2222C155.157 71.399 156.492 88.878 157.841 97.0346C160.67 103.955 168.338 111.061 172.45 114.186C173.144 114.714 173.279 115.703 172.752 116.397C172.442 116.806 171.971 117.021 171.495 117.021Z" fill="#263238"/>
<path d="M178.789 117.818C177.569 117.818 176.186 117.265 174.679 116.174C173.973 115.663 173.815 114.677 174.326 113.971C174.837 113.265 175.824 113.107 176.53 113.617C177.832 114.56 178.544 114.662 178.79 114.662C179.661 114.662 180.368 115.368 180.368 116.24C180.367 117.112 179.661 117.818 178.789 117.818Z" fill="#263238"/>
<path d="M175.121 116.129C176.809 111.114 183.732 112.105 186.115 112.849C188.499 113.594 190.647 114.532 191.938 115.376C193.23 116.22 193.25 117.63 191.528 118.435C189.406 119.428 184.08 118.547 184.08 118.547C186.837 119.754 184.075 121.688 179.238 119.788C177.663 119.17 174.525 117.967 175.121 116.129Z" fill="#7E8CDF"/>
<path d="M158.319 73.6251C157.693 77.8867 154.164 81.029 151.293 80.6072C148.422 80.1853 148.303 76.3792 148.929 72.1175C149.556 67.8559 150.691 64.753 153.562 65.1749C156.433 65.5972 158.946 69.3639 158.319 73.6251Z" fill="#263238"/>
<path d="M88.8942 56.6131C89.1322 56.6131 89.325 56.4202 89.325 56.1823C89.325 55.9443 89.1322 55.7515 88.8942 55.7515C88.6563 55.7515 88.4634 55.9443 88.4634 56.1823C88.4634 56.4202 88.6563 56.6131 88.8942 56.6131Z" fill="#263238"/>
<path d="M93.2774 59.2872C93.2774 59.525 93.0844 59.718 92.8466 59.718C92.6089 59.718 92.4153 59.525 92.4153 59.2872C92.4153 59.049 92.6083 58.8564 92.8466 58.8564C93.0849 58.8564 93.2774 59.049 93.2774 59.2872Z" fill="#263238"/>
<path d="M93.7598 110.259C93.7598 110.498 93.5667 110.69 93.329 110.69C93.0907 110.69 92.8976 110.497 92.8976 110.259C92.8976 110.021 93.0907 109.828 93.329 109.828C93.5667 109.828 93.7598 110.021 93.7598 110.259Z" fill="#263238"/>
<path d="M97.7121 113.364C97.7121 113.603 97.519 113.795 97.2808 113.795C97.043 113.795 96.85 113.602 96.85 113.364C96.85 113.126 97.043 112.933 97.2808 112.933C97.519 112.933 97.7121 113.126 97.7121 113.364Z" fill="#263238"/>
<path d="M21.9003 118.536C20.6484 118.536 18.9557 117.778 18.0431 116.459C17.9605 116.34 17.99 116.176 18.1094 116.094C18.2288 116.011 18.3924 116.04 18.4755 116.16C19.457 117.577 21.6204 118.333 22.5809 117.886C22.6819 117.838 22.764 117.779 22.8265 117.707C21.9681 117.311 21.1833 116.534 20.9719 115.35C20.8525 114.683 20.7578 113.782 21.308 113.658C22.0623 113.488 23.049 115.313 23.4288 116.695C23.4993 116.951 23.5214 117.188 23.4972 117.402C23.8296 117.493 24.1568 117.516 24.4372 117.476C24.6649 117.443 24.9884 117.349 25.1604 117.084C24.5213 116.652 24.0916 115.891 23.948 114.881C23.7439 113.443 23.897 113.192 24.0563 113.069C24.16 112.99 24.2915 112.974 24.4182 113.028C24.9805 113.267 25.6622 115.308 25.7927 116.462C25.8069 116.59 25.8069 116.712 25.7942 116.827C26.0094 116.913 26.2466 116.959 26.5038 116.965C26.9599 116.991 27.4106 116.846 27.7715 116.634C27.6968 116.587 27.6263 116.535 27.56 116.479C27.014 116.012 26.7942 115.267 26.8867 114.201C26.9583 113.376 27.1461 112.926 27.4774 112.784C27.5937 112.732 27.8304 112.685 28.1128 112.91C28.6809 113.364 29.2111 114.802 29.0207 115.833C28.9813 116.046 28.8892 116.25 28.7567 116.438C29.7219 116.604 31.08 116.333 32.2514 116.044C32.3919 116.01 32.5349 116.095 32.5696 116.236C32.6044 116.378 32.5186 116.52 32.3777 116.554C30.9522 116.907 29.4178 117.193 28.3338 116.879C27.8519 117.262 27.1734 117.495 26.4938 117.49C26.184 117.484 25.8952 117.429 25.6317 117.328C25.4245 117.681 25.0389 117.92 24.5145 117.997C24.1652 118.049 23.7539 118.015 23.3373 117.896C23.2189 118.093 23.0401 118.252 22.8045 118.362C22.552 118.479 22.2427 118.536 21.9003 118.536ZM21.4458 114.183C21.4153 114.263 21.3601 114.529 21.4905 115.258C21.6636 116.226 22.29 116.869 22.9838 117.208C22.9807 117.096 22.9601 116.972 22.9228 116.836C22.5094 115.332 21.724 114.296 21.4458 114.183ZM24.3761 113.724C24.373 113.922 24.3909 114.254 24.4692 114.807C24.576 115.558 24.8527 116.135 25.2682 116.502C25.1452 115.446 24.6765 114.223 24.3761 113.724ZM27.6852 113.267H27.6842C27.6831 113.267 27.4869 113.367 27.4101 114.245C27.3333 115.131 27.4943 115.73 27.9014 116.078C27.994 116.157 28.0992 116.223 28.2165 116.277C28.3653 116.113 28.4668 115.928 28.5021 115.736C28.6431 114.974 28.2801 113.858 27.873 113.406C27.7678 113.289 27.6999 113.267 27.6852 113.267Z" fill="#263238"/>
<path d="M98.8872 122.512L100.313 120.04L98.8872 117.568H97.3613L98.2234 120.04L97.3613 122.512H98.8872Z" fill="#263238"/>
<path d="M97.4617 121.329C96.7516 121.329 96.173 120.75 96.173 120.04C96.173 119.33 96.7516 118.757 97.4617 118.757L95.0379 118.272L94.3951 120.229L95.4766 121.88L97.4617 121.329Z" fill="#263238"/>
<path d="M97.669 117.568H94.8128L93.3873 120.04L94.8128 122.512H97.669L99.0944 120.04L97.669 117.568ZM96.2435 121.329C95.5334 121.329 94.9548 120.75 94.9548 120.04C94.9548 119.33 95.5334 118.757 96.2435 118.757C96.9536 118.757 97.5269 119.33 97.5269 120.04C97.5269 120.75 96.9536 121.329 96.2435 121.329Z" fill="#4C5BCA"/>
<path d="M198.31 117.403L197.251 115.567L198.31 113.731H199.443L198.803 115.568L199.443 117.403H198.31Z" fill="#4C5BCA"/>
<path d="M199.368 116.524C199.896 116.524 200.326 116.095 200.326 115.567C200.326 115.04 199.896 114.614 199.368 114.614L201.168 114.254L201.646 115.708L200.843 116.934L199.368 116.524Z" fill="#4C5BCA"/>
<path d="M199.215 113.731H201.336L202.395 115.567L201.336 117.403H199.215L198.156 115.567L199.215 113.731ZM200.274 116.524C200.801 116.524 201.231 116.095 201.231 115.567C201.231 115.04 200.801 114.614 200.274 114.614C199.746 114.614 199.321 115.04 199.321 115.567C199.32 116.095 199.746 116.524 200.274 116.524Z" fill="#263238"/>
<path d="M158.891 119.84H161.267C161.886 119.84 162.392 119.334 162.392 118.715C162.392 118.097 161.886 117.59 161.267 117.59H158.891C158.272 117.59 157.766 118.097 157.766 118.715C157.766 119.334 158.272 119.84 158.891 119.84Z" fill="#263238"/>
<path d="M155.094 117.718C155.681 116.473 157.103 115.911 158.272 116.462C159.44 117.013 159.912 118.468 159.325 119.712C158.739 120.957 157.316 121.519 156.148 120.969C154.978 120.418 154.507 118.962 155.094 117.718Z" fill="#4C5BCA"/>
<path d="M155.763 120.958L156.415 121.266L158.681 116.46L158.029 116.152L155.763 120.958Z" fill="#263238"/>
</g>
<defs>
<clipPath id="clip0_12066_14968">
<rect width="217" height="154" fill="white"/>
</clipPath>
</defs>
</svg>
